<svg width="800" height="472" viewBox="0 0 800 472" fill="none" xmlns="http://www.w3.org/2000/svg">
<path fill-rule="evenodd" clip-rule="evenodd" d="M12.065 47C6.42679 47 1.85615 51.9249 1.85615 58V459C1.85615 465.075 6.42681 470 12.065 470H787.935C793.573 470 798.144 465.075 798.144 459V58C798.144 51.9249 793.573 47 787.935 47H442.691V45H787.935C794.598 45 800 50.8203 800 58V459C800 466.18 794.598 472 787.935 472H12.065C5.40169 472 0 466.18 0 459V58C0 50.8203 5.40167 45 12.065 45H357.309V47H12.065Z" fill="#F82225"/>
<path fill-rule="evenodd" clip-rule="evenodd" d="M356.38 47C356.38 21.0426 375.91 0 400 0C424.09 0 443.619 21.0426 443.619 47H441.763C441.763 22.1472 423.065 2 400 2C376.935 2 358.237 22.1472 358.237 47H356.38Z" fill="#F82225"/>
</svg>
