<svg width="40" height="41" viewBox="0 0 40 41" fill="none" xmlns="http://www.w3.org/2000/svg">
<g id="tickets">
<g id="Group 815">
<path id="Vector" d="M15.6699 0.547998C15.8945 0.297802 16.1901 0.122142 16.5173 0.0445492C16.8445 -0.0330435 17.1876 -0.00886342 17.5007 0.113851C17.8138 0.236565 18.0818 0.451953 18.269 0.73116C18.4561 1.01037 18.5535 1.34006 18.5479 1.67608C18.5479 3.78347 18.5479 6.38673 18.4734 7.87431C18.4734 8.20308 18.6041 8.51839 18.8368 8.75087C19.0694 8.98335 19.3849 9.11395 19.7139 9.11395L23.3237 9.17593C23.6244 9.15564 23.925 9.21619 24.1943 9.3513C24.4637 9.4864 24.6918 9.69113 24.8552 9.9442C25.0185 10.1973 25.111 10.4894 25.1231 10.7903C25.1352 11.0912 25.0665 11.3899 24.924 11.6552C18.3866 23.3203 17.754 24.8203 13.9953 31.4896C13.8054 31.81 13.5147 32.0587 13.1686 32.1966C12.8224 32.3346 12.4403 32.3541 12.0818 32.2522C11.7234 32.1502 11.4088 31.9326 11.1872 31.6331C10.9656 31.3337 10.8494 30.9694 10.8569 30.597C10.8569 28.1177 10.77 25.4773 10.708 24.3988C10.7084 24.233 10.665 24.0701 10.5823 23.9264C10.4995 23.7828 10.3803 23.6635 10.2366 23.5806C9.89011 23.3821 9.50531 23.2596 9.10778 23.2211C8.1526 23.1467 6.91212 23.3327 5.77087 23.2211C4.36913 23.2211 3.82331 21.6468 4.62963 20.3204C5.08861 19.465 12.8168 5.03552 15.6699 0.547998Z" fill="url(#paint0_linear_1_29658)"/>
<path id="Vector_2" d="M15.6699 0.547998C15.8945 0.297802 16.1901 0.122142 16.5173 0.0445492C16.8445 -0.0330435 17.1876 -0.00886342 17.5007 0.113851C17.8138 0.236565 18.0818 0.451953 18.269 0.73116C18.4561 1.01037 18.5535 1.34006 18.5479 1.67608C18.5479 3.78347 18.5479 6.38673 18.4734 7.87431C18.4734 8.20308 18.6041 8.51839 18.8368 8.75087C19.0694 8.98335 19.3849 9.11395 19.7139 9.11395L23.3237 9.17593C23.6244 9.15564 23.925 9.21619 24.1943 9.3513C24.4637 9.4864 24.6918 9.69113 24.8552 9.9442C25.0185 10.1973 25.111 10.4894 25.1231 10.7903C25.1352 11.0912 25.0665 11.3899 24.924 11.6552C18.3866 23.3203 17.754 24.8203 13.9953 31.4896C13.8054 31.81 13.5147 32.0587 13.1686 32.1966C12.8224 32.3346 12.4403 32.3541 12.0818 32.2522C11.7234 32.1502 11.4088 31.9326 11.1872 31.6331C10.9656 31.3337 10.8494 30.9694 10.8569 30.597C10.8569 28.1177 10.77 25.4773 10.708 24.3988C10.7084 24.233 10.665 24.0701 10.5823 23.9264C10.4995 23.7828 10.3803 23.6635 10.2366 23.5806C9.89011 23.3821 9.50531 23.2596 9.10778 23.2211C8.1526 23.1467 6.91212 23.3327 5.77087 23.2211C4.36913 23.2211 3.82331 21.6468 4.62963 20.3204C5.08861 19.465 12.8168 5.03552 15.6699 0.547998Z" fill="url(#paint1_linear_1_29658)"/>
<path id="Vector_3" fill-rule="evenodd" clip-rule="evenodd" d="M24.8981 11.6682C25.0406 11.4029 25.1094 11.1042 25.0973 10.8033C25.0852 10.5024 24.9926 10.2103 24.8293 9.9572C24.666 9.70413 24.4378 9.4994 24.1685 9.3643C23.8991 9.22919 23.5985 9.16864 23.2979 9.18893L19.6881 9.12695C19.3591 9.12695 19.0435 8.99634 18.8109 8.76387C18.5783 8.53139 18.4476 8.21608 18.4476 7.8873C18.4476 6.37494 18.522 3.77168 18.522 1.68908C18.5276 1.35306 18.4303 1.02337 18.2431 0.744161C18.056 0.464953 17.7879 0.249566 17.4748 0.126852C17.1618 0.00413747 16.8187 -0.0200432 16.4915 0.0575495C16.1643 0.135142 15.8686 0.310802 15.6441 0.560998C13.5229 3.89565 8.68495 12.7591 6.14196 17.4202C5.27362 19.0193 4.67819 20.1226 4.54174 20.3457C3.73542 21.6722 4.28124 23.1845 5.68298 23.2465C6.25733 23.2774 6.83292 23.2774 7.40726 23.2465C7.94418 23.2099 8.48296 23.2099 9.01988 23.2465C9.41742 23.285 9.80222 23.4075 10.1487 23.606C10.2924 23.6889 10.4116 23.8082 10.4944 23.9518C10.5771 24.0955 10.6205 24.2584 10.6201 24.4242C10.6201 25.5399 10.8062 28.2299 10.769 30.6224C10.7309 31.0121 10.8297 31.4029 11.0485 31.7277C11.2672 32.0525 11.5923 32.2911 11.9679 32.4025C12.3435 32.514 12.7462 32.4913 13.1069 32.3384C13.4676 32.1855 13.7638 31.9119 13.9446 31.5645C15.52 28.7629 16.5372 26.8663 17.6661 24.7589C19.2911 21.7961 21.0898 18.4491 24.8981 11.6682ZM23.3227 10.9492L19.7005 10.8872C19.3127 10.8808 18.9301 10.7981 18.5744 10.6438C18.2186 10.4895 17.8968 10.2667 17.6272 9.98816C17.3577 9.70958 17.1457 9.38066 17.0034 9.02019C16.861 8.65972 16.7912 8.27477 16.7977 7.8873C16.7977 6.46171 16.8598 4.0444 16.8598 2.01138C15.4208 4.36671 13.0143 8.65588 10.831 12.6228L7.84143 18.0896C6.92347 19.7755 6.27842 20.978 6.12956 21.2135C6.06573 21.3109 6.02343 21.4208 6.0055 21.5358C6.42727 21.5358 6.88626 21.5358 7.41967 21.5358C8.01451 21.4983 8.61112 21.4983 9.20596 21.5358C9.85106 21.5957 10.4765 21.7899 11.0419 22.106C11.4428 22.3285 11.7793 22.651 12.0184 23.042C12.2575 23.4331 12.3912 23.8794 12.4064 24.3374C12.4684 25.4531 12.5801 28.1555 12.5429 30.6224C14.0563 27.92 15.0238 26.0605 16.1775 24.0027L16.8598 22.7631C18.2987 19.9862 20.0726 16.7632 23.3227 10.9492Z" fill="url(#paint2_linear_1_29658)"/>
<path id="Vector_4" d="M34.0646 22.9639C34.8833 22.6044 35.9129 23.7696 35.3051 24.7366C34.6972 25.7035 33.6801 27.0299 33.0722 27.9225C32.8916 28.1888 32.8217 28.5149 32.8772 28.8318C32.9328 29.1487 33.1095 29.4316 33.3699 29.6208L35.1066 30.8604C35.2844 30.9625 35.4321 31.1097 35.5348 31.2871C35.6376 31.4645 35.6916 31.6658 35.6916 31.8707C35.6916 32.0757 35.6376 32.277 35.5348 32.4544C35.4321 32.6318 35.2844 32.7789 35.1066 32.881C26.9194 36.9719 25.989 37.5917 21.3 39.947C21.0636 40.02 20.8107 40.0207 20.5738 39.949C20.337 39.8772 20.127 39.7363 19.971 39.5444C19.8149 39.3524 19.7199 39.1182 19.6981 38.8719C19.6763 38.6255 19.7287 38.3783 19.8486 38.1619C20.7294 36.9223 21.6225 35.4223 22.0567 34.6909C22.145 34.5519 22.1918 34.3907 22.1918 34.2261C22.1918 34.0614 22.145 33.9002 22.0567 33.7612C21.9492 33.5669 21.8061 33.3945 21.6349 33.2529C21.1139 32.8439 20.3945 32.4596 19.7122 32.0133C19.0299 31.567 19.2036 30.3522 20.1712 29.9059C20.779 29.5712 30.7029 24.3523 34.0646 22.9639Z" fill="url(#paint3_linear_1_29658)"/>
<path id="Vector_5" d="M34.0646 22.9639C34.8833 22.6044 35.9129 23.7696 35.3051 24.7366C34.6972 25.7035 33.6801 27.0299 33.0722 27.9225C32.8916 28.1888 32.8217 28.5149 32.8772 28.8318C32.9328 29.1487 33.1095 29.4316 33.3699 29.6208L35.1066 30.8604C35.2844 30.9625 35.4321 31.1097 35.5348 31.2871C35.6376 31.4645 35.6916 31.6658 35.6916 31.8707C35.6916 32.0757 35.6376 32.277 35.5348 32.4544C35.4321 32.6318 35.2844 32.7789 35.1066 32.881C26.9194 36.9719 25.989 37.5917 21.3 39.947C21.0636 40.02 20.8107 40.0207 20.5738 39.949C20.337 39.8772 20.127 39.7363 19.971 39.5444C19.8149 39.3524 19.7199 39.1182 19.6981 38.8719C19.6763 38.6255 19.7287 38.3783 19.8486 38.1619C20.7294 36.9223 21.6225 35.4223 22.0567 34.6909C22.145 34.5519 22.1918 34.3907 22.1918 34.2261C22.1918 34.0614 22.145 33.9002 22.0567 33.7612C21.9492 33.5669 21.8061 33.3945 21.6349 33.2529C21.1139 32.8439 20.3945 32.4596 19.7122 32.0133C19.0299 31.567 19.2036 30.3522 20.1712 29.9059C20.779 29.5712 30.7029 24.3523 34.0646 22.9639Z" fill="url(#paint4_linear_1_29658)"/>
<path id="Vector_6" fill-rule="evenodd" clip-rule="evenodd" d="M35.0816 32.8777C35.2594 32.7756 35.4072 32.6284 35.5099 32.451C35.6126 32.2736 35.6667 32.0723 35.6667 31.8674C35.6667 31.6624 35.6126 31.4611 35.5099 31.2837C35.4072 31.1063 35.2594 30.9592 35.0816 30.8571L33.345 29.6174C33.0884 29.4246 32.9167 29.14 32.8658 28.8233C32.8149 28.5066 32.8888 28.1825 33.0721 27.9191C33.6799 27.0513 34.5606 25.7745 35.2677 24.7084C35.9748 23.6423 34.8832 22.5762 34.0272 22.9357C31.5463 24.0142 25.4182 27.1753 22.193 28.8364L20.1586 29.8777C19.191 30.324 18.9181 31.4025 19.6996 31.9851C20.0097 32.2207 20.3571 32.4314 20.692 32.6422C21.013 32.8274 21.3236 33.0302 21.6224 33.2496C21.7936 33.3911 21.9366 33.5635 22.0441 33.7578C22.1324 33.8968 22.1792 34.0581 22.1792 34.2227C22.1792 34.3873 22.1324 34.5486 22.0441 34.6876C21.61 35.419 20.7168 36.8817 19.8361 38.1586C19.7161 38.3749 19.6637 38.6221 19.6855 38.8685C19.7073 39.1149 19.8023 39.3491 19.9584 39.541C20.1145 39.7329 20.3244 39.8738 20.5612 39.9456C20.7981 40.0174 21.051 40.0167 21.2874 39.9437C23.2474 38.9519 24.5499 38.2701 26.0137 37.4644C28.0109 36.4355 30.3182 35.233 35.0816 32.8777ZM26.1625 35.7289C27.9364 34.7991 30.1073 33.6835 33.8908 31.7868L32.5014 30.7951C31.9276 30.3837 31.5376 29.7644 31.4148 29.0694C31.2919 28.3745 31.446 27.6591 31.844 27.0761L33.3326 24.9068C31.5835 25.7373 29.1149 26.977 26.8076 28.1546L23.0861 30.0885L21.1014 31.105L21.5479 31.3777C21.9112 31.589 22.2593 31.8251 22.5899 32.0843C22.9025 32.332 23.1673 32.6344 23.3714 32.9769C23.6021 33.3493 23.7243 33.7785 23.7243 34.2165C23.7243 34.6545 23.6021 35.0838 23.3714 35.4561C23.0365 36.014 22.4163 37.0305 21.734 38.0718L25.3438 36.1999L26.1625 35.7289Z" fill="url(#paint5_linear_1_29658)"/>
</g>
</g>
<defs>
<linearGradient id="paint0_linear_1_29658" x1="22.0212" y1="3.91984" x2="9.70314" y2="24.654" gradientUnits="userSpaceOnUse">
<stop stop-color="#FFFD54"/>
<stop offset="1" stop-color="#FFBC00"/>
</linearGradient>
<linearGradient id="paint1_linear_1_29658" x1="2.42157" y1="11.4569" x2="17.3667" y2="17.2901" gradientUnits="userSpaceOnUse">
<stop stop-color="white"/>
<stop offset="1" stop-color="white" stop-opacity="0"/>
</linearGradient>
<linearGradient id="paint2_linear_1_29658" x1="8.74698" y1="23.2713" x2="18.539" y2="11.6121" gradientUnits="userSpaceOnUse">
<stop stop-color="#F5BE41" stop-opacity="0.8"/>
<stop offset="0.56" stop-color="#F8D147" stop-opacity="0.56"/>
<stop offset="1" stop-color="#FFFD54" stop-opacity="0"/>
</linearGradient>
<linearGradient id="paint3_linear_1_29658" x1="1520.58" y1="1194.43" x2="1320.44" y2="1104.35" gradientUnits="userSpaceOnUse">
<stop stop-color="#FFFD54"/>
<stop offset="1" stop-color="#FFBC00"/>
</linearGradient>
<linearGradient id="paint4_linear_1_29658" x1="1330.77" y1="1251.22" x2="1424.62" y2="1115.32" gradientUnits="userSpaceOnUse">
<stop stop-color="white"/>
<stop offset="1" stop-color="white" stop-opacity="0"/>
</linearGradient>
<linearGradient id="paint5_linear_1_29658" x1="20.9029" y1="33.2124" x2="28.3203" y2="31.2513" gradientUnits="userSpaceOnUse">
<stop stop-color="#F5BE41" stop-opacity="0.8"/>
<stop offset="1" stop-color="#FFFD54" stop-opacity="0"/>
</linearGradient>
</defs>
</svg>
