<svg width="320" height="307" viewBox="0 0 320 307" fill="none" xmlns="http://www.w3.org/2000/svg">
<g opacity="0.8" clip-path="url(#clip0_1_28934)">
<path d="M26.0067 288.107C26.0067 288.107 26.0067 288.068 26.0067 288.013C25.9988 288.076 26.0067 288.107 26.0067 288.107Z" fill="#131212"/>
<path d="M44.1111 248.93C26.6763 258.059 26.6606 274.027 26.6606 274.027C26.6606 274.027 26.637 269.439 25.0713 267.243C25.2916 272.027 24.198 274.003 24.198 274.003C24.198 274.003 23.1044 272.027 23.3247 267.243C21.759 269.439 21.7354 274.027 21.7354 274.027C21.7354 274.027 21.7197 258.067 4.28491 248.93C16.4562 259.345 6.9914 263.188 6.9914 263.188C6.9914 263.188 14.568 267.031 11.7828 274.497C22.0187 279.603 22.3806 287.077 22.3885 288.011C22.4042 287.595 22.5615 285.901 24.198 284.732C25.8345 285.901 25.9919 287.587 26.0076 288.011C26.0155 287.077 26.3774 279.603 36.6132 274.497C33.8281 267.031 41.4046 263.188 41.4046 263.188C41.4046 263.188 31.9398 259.345 44.1111 248.93Z" fill="#131212"/>
<path d="M139.64 246.813C139.64 246.813 139.64 246.774 139.64 246.718C139.632 246.781 139.64 246.813 139.64 246.813Z" fill="#131212"/>
<path d="M157.745 207.635C140.31 216.764 140.294 232.732 140.294 232.732C140.294 232.732 140.271 228.144 138.705 225.948C138.925 230.725 137.832 232.709 137.832 232.709C137.832 232.709 136.738 230.732 136.958 225.948C135.393 228.144 135.369 232.732 135.369 232.732C135.369 232.732 135.353 216.772 117.918 207.635C130.09 218.051 120.625 221.894 120.625 221.894C120.625 221.894 128.202 225.737 125.416 233.203C135.652 238.309 136.014 245.783 136.022 246.716C136.038 246.3 136.195 244.606 137.832 243.438C139.468 244.606 139.625 246.293 139.641 246.716C139.649 245.783 140.011 238.309 150.247 233.203C147.462 225.737 155.038 221.894 155.038 221.894C155.038 221.894 145.573 218.043 157.745 207.635Z" fill="#131212"/>
<path d="M67.8467 242.803C67.8467 242.803 67.8546 242.772 67.8704 242.717C67.8546 242.772 67.8467 242.803 67.8467 242.803Z" fill="#131212"/>
<path d="M95.18 212.65C76.927 215.968 72.4109 230.32 72.4109 230.32C72.4109 230.32 73.6776 226.195 72.8909 223.772C71.7422 228.132 70.2001 229.599 70.2001 229.599C70.2001 229.599 69.7753 227.513 71.3252 223.277C69.2954 224.815 67.9814 228.932 67.9814 228.932C67.9814 228.932 72.4739 214.58 59.3742 201.482C67.3756 214.258 57.7849 215.058 57.7849 215.058C57.7849 215.058 63.5126 220.642 58.9021 226.571C66.6597 234.038 64.8816 240.853 64.6219 241.692C64.7557 241.316 65.3694 239.842 67.1711 239.253C68.3119 240.759 67.9736 242.328 67.8713 242.704C68.1388 241.865 70.5778 235.253 81.2149 233.528C80.8215 226.038 88.7128 224.705 88.7128 224.705C88.7128 224.705 81.3014 218.595 95.18 212.65Z" fill="#131212"/>
<path d="M64.5981 241.788C64.5981 241.788 64.606 241.756 64.6297 241.701C64.606 241.756 64.5981 241.788 64.5981 241.788Z" fill="#131212"/>
<path d="M186.753 240.392C169.318 249.521 169.302 265.489 169.302 265.489C169.302 265.489 169.279 260.901 167.713 258.705C167.933 263.481 166.84 265.465 166.84 265.465C166.84 265.465 165.746 263.489 165.967 258.705C164.401 260.901 164.377 265.489 164.377 265.489C164.377 265.489 164.362 249.529 146.927 240.392C159.098 250.807 149.633 254.65 149.633 254.65C149.633 254.65 157.21 258.493 154.425 265.959C164.661 271.065 165.022 278.539 165.03 279.472C165.046 279.057 165.203 277.363 166.84 276.194C168.476 277.363 168.634 279.049 168.649 279.472C168.657 278.539 169.019 271.065 179.255 265.959C176.47 258.493 184.046 254.65 184.046 254.65C184.046 254.65 174.582 250.799 186.753 240.392Z" fill="#131212"/>
<path d="M97.385 281.023C97.385 281.023 97.3929 281 97.4087 280.945C97.3929 280.992 97.385 281.023 97.385 281.023Z" fill="#131212"/>
<path d="M121.004 254.982C105.237 257.853 101.334 270.244 101.334 270.244C101.334 270.244 102.428 266.676 101.751 264.59C100.76 268.354 99.4304 269.625 99.4304 269.625C99.4304 269.625 99.0606 267.821 100.398 264.166C98.6437 265.492 97.5107 269.052 97.5107 269.052C97.5107 269.052 101.389 256.653 90.0758 245.335C96.9915 256.37 88.7068 257.068 88.7068 257.068C88.7068 257.068 93.6555 261.892 89.6745 267.013C96.3778 273.46 94.8436 279.35 94.6154 280.079C94.7255 279.758 95.2606 278.479 96.8184 277.97C97.8018 279.271 97.5186 280.62 97.4242 280.95C97.6523 280.228 99.7609 274.511 108.958 273.021C108.612 266.55 115.441 265.397 115.441 265.397C115.441 265.397 109.013 260.119 121.004 254.982Z" fill="#131212"/>
<path d="M94.5835 280.148C94.5835 280.148 94.5914 280.125 94.6072 280.069C94.5914 280.125 94.5835 280.148 94.5835 280.148Z" fill="#131212"/>
<path d="M118.885 144.42C118.885 144.42 118.885 144.389 118.885 144.334C118.877 144.397 118.885 144.42 118.885 144.42Z" fill="#131212"/>
<path d="M134.141 110.094C119.082 118.266 119.271 132.156 119.271 132.156C119.271 132.156 119.192 128.164 117.799 126.274C118.051 130.431 117.131 132.164 117.131 132.164C117.131 132.164 116.155 130.454 116.289 126.298C114.951 128.235 114.991 132.219 114.991 132.219C114.991 132.219 114.778 118.321 99.4834 110.596C110.207 119.506 102.025 122.972 102.025 122.972C102.025 122.972 108.673 126.219 106.344 132.76C115.321 137.074 115.73 143.575 115.746 144.391C115.754 144.022 115.864 142.556 117.272 141.521C118.712 142.517 118.869 143.983 118.885 144.352C118.877 143.536 119.098 137.034 127.941 132.454C125.423 125.992 131.969 122.549 131.969 122.549C131.969 122.549 123.677 119.31 134.141 110.094Z" fill="#131212"/>
<path d="M115.739 144.467C115.739 144.467 115.739 144.436 115.739 144.38C115.731 144.436 115.739 144.467 115.739 144.467Z" fill="#131212"/>
<path d="M8.1972 211.049C-8.0181 219.535 -8.02596 234.382 -8.02596 234.382C-8.02596 234.382 -8.04957 230.123 -9.50509 228.076C-9.30054 232.523 -10.3155 234.358 -10.3155 234.358C-10.3155 234.358 -11.3304 232.523 -11.1258 228.076C-12.5814 230.123 -12.605 234.382 -12.605 234.382C-12.605 234.382 -12.6128 219.543 -28.8281 211.049C-17.5144 220.735 -26.3105 224.304 -26.3105 224.304C-26.3105 224.304 -19.2689 227.88 -21.8495 234.821C-12.3375 239.574 -11.9991 246.515 -11.9913 247.385C-11.9755 246.993 -11.8339 245.424 -10.3155 244.342C-8.797 245.424 -8.64751 247.001 -8.63964 247.385C-8.63178 246.515 -8.29347 239.574 1.21856 234.821C-1.36991 227.88 5.67955 224.304 5.67955 224.304C5.67955 224.304 -3.11654 220.727 8.1972 211.049Z" fill="#131212"/>
<path d="M40.0361 130.746C40.0361 130.746 40.0202 130.73 39.9963 130.698C40.0282 130.73 40.0361 130.746 40.0361 130.746Z" fill="#131212"/>
<path d="M34.3952 105.05C29.2812 115.881 35.1583 123.654 35.1583 123.654C35.1583 123.654 33.4589 121.434 31.8854 120.94C33.7579 123.183 33.9546 124.548 33.9546 124.548C33.9546 124.548 32.6957 123.991 31.0356 121.583C31.0829 123.23 32.7665 125.465 32.7665 125.465C32.7665 125.465 26.8736 117.701 15.0249 119.654C24.7887 120.258 21.6023 125.599 21.6023 125.599C21.6023 125.599 26.7084 124.689 28.1089 129.347C34.9695 128.085 37.9041 131.583 38.2503 132.038C38.1008 131.826 37.558 130.947 37.9199 129.779C39.1472 129.747 39.8474 130.508 40.0048 130.712C39.6665 130.257 37.0859 126.485 40.1779 120.25C36.071 117.638 38.3369 112.987 38.3369 112.987C38.3369 112.987 32.3181 114.572 34.3952 105.05Z" fill="#131212"/>
<path d="M38.2813 132.069C38.2813 132.069 38.2653 132.053 38.2415 132.021C38.2653 132.053 38.2813 132.069 38.2813 132.069Z" fill="#131212"/>
<path d="M160.34 125.747C160.34 125.747 160.348 125.731 160.356 125.708C160.34 125.731 160.34 125.747 160.34 125.747Z" fill="#131212"/>
<path d="M172.89 113.143C164.857 114.218 162.591 120.39 162.591 120.39C162.591 120.39 163.228 118.617 162.937 117.543C162.347 119.425 161.647 120.029 161.647 120.029C161.647 120.029 161.505 119.112 162.268 117.292C161.348 117.919 160.695 119.692 160.695 119.692C160.695 119.692 162.953 113.52 157.501 107.536C160.726 113.276 156.525 113.425 156.525 113.425C156.525 113.425 158.909 115.982 156.777 118.476C160.01 121.896 159.09 124.829 158.964 125.198C159.027 125.041 159.326 124.405 160.128 124.186C160.593 124.868 160.419 125.543 160.364 125.707C160.498 125.347 161.702 122.508 166.375 121.974C166.36 118.696 169.829 118.272 169.829 118.272C169.829 118.272 166.706 115.457 172.89 113.143Z" fill="#131212"/>
<path d="M158.94 125.239C158.94 125.239 158.948 125.223 158.956 125.2C158.948 125.223 158.94 125.239 158.94 125.239Z" fill="#131212"/>
<path d="M122.49 82.4889C114.103 87.2024 114.331 94.9982 114.331 94.9982C114.331 94.9982 114.253 92.7552 113.458 91.7042C113.639 94.0336 113.128 95.0218 113.128 95.0218C113.128 95.0218 112.561 94.0728 112.601 91.7356C111.869 92.8336 111.924 95.0688 111.924 95.0688C111.924 95.0688 111.688 87.273 103.033 83.0614C109.131 87.971 104.56 89.9867 104.56 89.9867C104.56 89.9867 108.321 91.7591 107.07 95.4453C112.144 97.7903 112.427 101.437 112.443 101.892C112.443 101.688 112.498 100.857 113.277 100.269C114.095 100.818 114.198 101.641 114.206 101.845C114.198 101.39 114.261 97.7354 119.194 95.0923C117.722 91.4846 121.373 89.5004 121.373 89.5004C121.373 89.5004 116.692 87.7514 122.49 82.4889Z" fill="#131212"/>
<path d="M44.6397 212.547C44.6397 212.547 44.6397 212.515 44.6318 212.452C44.6318 212.507 44.6397 212.547 44.6397 212.547Z" fill="#131212"/>
<path d="M59.8639 174.845C43.8768 184.241 44.6006 199.26 44.6006 199.26C44.6006 199.26 44.3646 194.947 42.791 192.955C43.2238 197.441 42.2875 199.354 42.2875 199.354C42.2875 199.354 41.1703 197.543 41.1546 193.033C39.7856 195.174 39.9665 199.488 39.9665 199.488C39.9665 199.488 39.2191 184.469 22.3901 176.681C34.3254 185.92 25.6001 189.974 25.6001 189.974C25.6001 189.974 32.9092 193.245 30.6355 200.397C40.5016 204.735 41.186 211.746 41.2411 212.624C41.2332 212.232 41.304 210.632 42.791 209.456C44.3803 210.475 44.6085 212.06 44.6399 212.452C44.6006 211.574 44.6006 204.531 53.9946 199.252C51.0285 192.359 57.9835 188.39 57.9835 188.39C57.9835 188.39 48.8964 185.206 59.8639 174.845Z" fill="#131212"/>
<path d="M41.242 212.707C41.242 212.707 41.242 212.676 41.242 212.613C41.2341 212.668 41.242 212.707 41.242 212.707Z" fill="#131212"/>
<path d="M114.323 276.361C96.888 285.491 96.8723 301.459 96.8723 301.459C96.8723 301.459 96.8487 296.87 95.283 294.674C95.5033 299.459 94.4097 301.435 94.4097 301.435C94.4097 301.435 93.3161 299.459 93.5364 294.674C91.9707 296.87 91.9471 301.459 91.9471 301.459C91.9471 301.459 91.9314 285.498 74.4966 276.361C86.6679 286.777 77.203 290.62 77.203 290.62C77.203 290.62 84.7796 294.463 81.9945 301.929C92.2303 307.035 92.5922 314.509 92.6001 315.442C92.6158 315.027 92.7732 313.333 94.4097 312.164C96.0462 313.333 96.2035 315.019 96.2192 315.442C96.2271 314.509 96.589 307.035 106.825 301.929C104.04 294.463 111.616 290.62 111.616 290.62C111.616 290.62 102.151 286.777 114.323 276.361Z" fill="#131212"/>
<path d="M4.69472 296.097C-16.076 306.967 -16.0839 325.986 -16.0839 325.986C-16.0839 325.986 -16.1153 320.527 -17.98 317.908C-17.7125 323.602 -19.0185 325.954 -19.0185 325.954C-19.0185 325.954 -20.3245 323.602 -20.057 317.908C-21.9217 320.527 -21.9531 325.986 -21.9531 325.986C-21.9531 325.986 -21.9689 306.975 -42.7317 296.097C-28.2394 308.496 -39.5059 313.077 -39.5059 313.077C-39.5059 313.077 -30.4817 317.657 -33.794 326.551C-21.607 332.637 -21.1742 341.53 -21.1664 342.644C-21.1506 342.142 -20.9618 340.134 -19.0185 338.746C-17.0673 340.134 -16.8864 342.15 -16.8706 342.644C-16.8628 341.53 -16.43 332.637 -4.24298 326.551C-7.55528 317.657 1.46896 313.077 1.46896 313.077C1.46896 313.077 -9.79756 308.504 4.69472 296.097Z" fill="#131212"/>
<path d="M155.431 264.356C137.996 273.485 137.981 289.453 137.981 289.453C137.981 289.453 137.957 284.865 136.391 282.669C136.612 287.453 135.518 289.43 135.518 289.43C135.518 289.43 134.424 287.453 134.645 282.669C133.079 284.865 133.055 289.453 133.055 289.453C133.055 289.453 133.04 273.493 115.605 264.356C127.776 274.771 118.311 278.614 118.311 278.614C118.311 278.614 125.888 282.457 123.103 289.924C133.339 295.029 133.701 302.504 133.709 303.437C133.724 303.021 133.882 301.327 135.518 300.159C137.155 301.327 137.312 303.013 137.328 303.437C137.336 302.504 137.697 295.029 147.933 289.924C145.148 282.457 152.725 278.614 152.725 278.614C152.725 278.614 143.26 274.771 155.431 264.356Z" fill="#131212"/>
<path d="M136.745 288.509C121.961 289.842 117.327 300.956 117.327 300.956C117.327 300.956 118.641 297.756 118.185 295.772C116.957 299.168 115.62 300.226 115.62 300.226C115.62 300.226 115.431 298.532 116.973 295.27C115.242 296.352 113.897 299.536 113.897 299.536C113.897 299.536 118.515 288.423 109.019 277.043C114.471 287.796 106.777 287.748 106.777 287.748C106.777 287.748 110.939 292.603 106.84 297.003C112.481 303.505 110.577 308.814 110.309 309.465C110.443 309.175 111.041 308.046 112.512 307.708C113.315 308.987 112.929 310.21 112.819 310.508C113.094 309.857 115.51 304.767 124.117 304.156C124.345 298.156 130.734 297.662 130.734 297.662C130.734 297.662 125.258 292.25 136.745 288.509Z" fill="#131212"/>
<path d="M155.54 303.216C155.54 303.216 155.548 303.192 155.571 303.145C155.548 303.192 155.54 303.216 155.54 303.216Z" fill="#131212"/>
<path d="M179.498 281.154C164.715 282.487 160.081 293.6 160.081 293.6C160.081 293.6 161.394 290.4 160.938 288.416C159.711 291.812 158.373 292.871 158.373 292.871C158.373 292.871 158.184 291.177 159.727 287.914C157.996 288.996 156.65 292.181 156.65 292.181C156.65 292.181 161.269 281.067 151.772 269.687C157.225 280.44 149.53 280.393 149.53 280.393C149.53 280.393 153.692 285.247 149.593 289.647C155.234 296.149 153.33 301.459 153.063 302.11C153.196 301.819 153.794 300.69 155.266 300.353C156.068 301.631 155.683 302.855 155.572 303.153C155.848 302.502 158.263 297.412 166.87 296.8C167.099 290.8 173.487 290.306 173.487 290.306C173.487 290.306 168.003 284.902 179.498 281.154Z" fill="#131212"/>
<path d="M153.023 302.173C153.023 302.173 153.031 302.15 153.055 302.103C153.031 302.15 153.023 302.173 153.023 302.173Z" fill="#131212"/>
<path d="M25.0962 279.435C7.66145 288.564 7.64572 304.532 7.64572 304.532C7.64572 304.532 7.6221 299.944 6.05643 297.748C6.27673 302.532 5.18313 304.508 5.18313 304.508C5.18313 304.508 4.08951 302.532 4.30981 297.748C2.74414 299.944 2.72054 304.532 2.72054 304.532C2.72054 304.532 2.7048 288.572 -14.73 279.435C-2.55868 289.85 -12.0235 293.693 -12.0235 293.693C-12.0235 293.693 -4.44692 297.536 -7.23208 305.002C3.00377 310.108 3.36568 317.582 3.37355 318.516C3.38929 318.1 3.54666 316.406 5.18313 315.237C6.81961 316.406 6.97696 318.092 6.99269 318.516C7.00056 317.582 7.36248 310.108 17.5983 305.002C14.8132 297.536 22.3898 293.693 22.3898 293.693C22.3898 293.693 12.9249 289.85 25.0962 279.435Z" fill="#131212"/>
<path d="M6.40967 302.112C-8.37371 303.445 -13.0078 314.558 -13.0078 314.558C-13.0078 314.558 -11.6939 311.358 -12.1502 309.374C-13.3776 312.77 -14.7151 313.829 -14.7151 313.829C-14.7151 313.829 -14.9039 312.135 -13.3618 308.872C-15.0927 309.954 -16.4381 313.139 -16.4381 313.139C-16.4381 313.139 -11.8198 302.025 -21.3161 290.645C-15.8637 301.398 -23.5583 301.351 -23.5583 301.351C-23.5583 301.351 -19.3963 306.205 -23.4954 310.605C-17.8543 317.107 -19.7583 322.417 -20.0258 323.068C-19.892 322.777 -19.2941 321.648 -17.8228 321.311C-17.0203 322.589 -17.4058 323.813 -17.516 324.111C-17.2406 323.46 -14.8252 318.37 -6.21797 317.758C-5.98981 311.758 0.398745 311.264 0.398745 311.264C0.398745 311.264 -5.08502 305.86 6.40967 302.112Z" fill="#131212"/>
<path d="M49.1548 298.449C34.3714 299.782 29.7373 310.896 29.7373 310.896C29.7373 310.896 31.0512 307.696 30.5949 305.719C29.3676 309.115 28.03 310.174 28.03 310.174C28.03 310.174 27.8412 308.48 29.3833 305.218C27.6524 306.3 26.307 309.484 26.307 309.484C26.307 309.484 30.9254 298.371 21.4291 286.991C26.8814 297.743 19.1868 297.696 19.1868 297.696C19.1868 297.696 23.3488 302.551 19.2497 306.951C24.8909 313.452 22.9869 318.762 22.7193 319.413C22.8531 319.123 23.4511 317.993 24.9223 317.656C25.7248 318.935 25.3393 320.158 25.2291 320.456C25.5045 319.805 27.9199 314.715 36.5271 314.103C36.7553 308.104 43.1439 307.61 43.1439 307.61C43.1439 307.61 37.668 302.198 49.1548 298.449Z" fill="#131212"/>
<path d="M36.7866 298.779C36.7866 298.779 36.7945 298.756 36.818 298.709C36.7945 298.756 36.7866 298.779 36.7866 298.779Z" fill="#131212"/>
<path d="M60.7363 276.716C45.9529 278.049 41.3189 289.163 41.3189 289.163C41.3189 289.163 42.6328 285.963 42.1765 283.987C40.9491 287.382 39.6116 288.441 39.6116 288.441C39.6116 288.441 39.4228 286.747 40.9648 283.485C39.2339 284.567 37.8886 287.751 37.8886 287.751C37.8886 287.751 42.5069 276.638 33.0106 265.258C38.4629 276.01 30.7683 275.963 30.7683 275.963C30.7683 275.963 34.9303 280.818 30.8313 285.218C36.4724 291.72 34.5684 297.029 34.3009 297.68C34.4346 297.39 35.0326 296.261 36.5039 295.923C37.3064 297.202 36.9208 298.425 36.8107 298.723C37.0861 298.072 39.5014 292.982 48.1087 292.371C48.3369 286.371 54.7254 285.877 54.7254 285.877C54.7254 285.877 49.2495 280.465 60.7363 276.716Z" fill="#131212"/>
<path d="M34.27 297.731C34.27 297.731 34.2779 297.707 34.3014 297.66C34.2779 297.707 34.27 297.731 34.27 297.731Z" fill="#131212"/>
<path d="M357.716 248.93C340.282 258.059 340.266 274.027 340.266 274.027C340.266 274.027 340.242 269.439 338.677 267.243C338.897 272.027 337.803 274.003 337.803 274.003C337.803 274.003 336.71 272.027 336.93 267.243C335.364 269.439 335.341 274.027 335.341 274.027C335.341 274.027 335.325 258.067 317.89 248.93C330.061 259.345 320.597 263.188 320.597 263.188C320.597 263.188 328.173 267.031 325.388 274.497C335.624 279.603 335.986 287.077 335.994 288.011C336.009 287.595 336.167 285.901 337.803 284.732C339.44 285.901 339.597 287.587 339.613 288.011C339.621 287.077 339.983 279.603 350.218 274.497C347.433 267.031 355.01 263.188 355.01 263.188C355.01 263.188 345.545 259.345 357.716 248.93Z" fill="#131212"/>
<path d="M227.115 260.655C207.933 270.701 207.918 288.261 207.918 288.261C207.918 288.261 207.886 283.219 206.163 280.795C206.407 286.058 205.203 288.23 205.203 288.23C205.203 288.23 203.999 286.058 204.243 280.795C202.52 283.211 202.489 288.261 202.489 288.261C202.489 288.261 202.473 270.701 183.292 260.655C196.683 272.113 186.274 276.34 186.274 276.34C186.274 276.34 194.613 280.568 191.545 288.787C202.804 294.41 203.205 302.63 203.213 303.657C203.228 303.194 203.402 301.335 205.203 300.057C207.005 301.335 207.178 303.202 207.194 303.657C207.202 302.63 207.603 294.41 218.862 288.787C215.801 280.575 224.133 276.34 224.133 276.34C224.133 276.34 213.724 272.105 227.115 260.655Z" fill="#131212"/>
<path d="M203.22 303.763C203.22 303.763 203.22 303.724 203.22 303.653C203.212 303.724 203.22 303.763 203.22 303.763Z" fill="#131212"/>
<path d="M190.344 266.098C190.344 266.098 190.351 266.075 190.367 266.019C190.351 266.067 190.344 266.098 190.344 266.098Z" fill="#131212"/>
<path d="M213.954 240.044C198.187 242.914 194.284 255.306 194.284 255.306C194.284 255.306 195.386 251.737 194.701 249.651C193.71 253.416 192.38 254.686 192.38 254.686C192.38 254.686 192.011 252.882 193.348 249.228C191.594 250.553 190.461 254.114 190.461 254.114C190.461 254.114 194.339 241.714 183.026 230.397C189.941 241.432 181.657 242.13 181.657 242.13C181.657 242.13 186.606 246.953 182.624 252.075C189.328 258.521 187.794 264.411 187.565 265.141C187.676 264.819 188.211 263.541 189.768 263.031C190.752 264.333 190.469 265.682 190.374 266.011C190.602 265.29 192.711 259.572 201.908 258.082C201.562 251.612 208.391 250.459 208.391 250.459C208.391 250.459 201.963 245.189 213.954 240.044Z" fill="#131212"/>
<path d="M187.533 265.216C187.533 265.216 187.541 265.193 187.557 265.138C187.541 265.185 187.533 265.216 187.533 265.216Z" fill="#131212"/>
<path d="M263.511 251.455C246.076 260.584 246.061 276.552 246.061 276.552C246.061 276.552 246.037 271.964 244.472 269.768C244.692 274.544 243.598 276.529 243.598 276.529C243.598 276.529 242.505 274.552 242.725 269.768C241.159 271.964 241.136 276.552 241.136 276.552C241.136 276.552 241.12 260.592 223.685 251.455C235.856 261.87 226.392 265.713 226.392 265.713C226.392 265.713 233.968 269.556 231.183 277.023C241.419 282.128 241.781 289.603 241.789 290.536C241.804 290.12 241.962 288.426 243.598 287.258C245.235 288.426 245.392 290.112 245.408 290.536C245.416 289.603 245.778 282.128 256.013 277.023C253.228 269.556 260.805 265.713 260.805 265.713C260.805 265.713 251.34 261.87 263.511 251.455Z" fill="#131212"/>
<path d="M255.028 293.799C240.78 301.257 240.772 314.3 240.772 314.3C240.772 314.3 240.749 310.551 239.474 308.755C239.655 312.661 238.766 314.276 238.766 314.276C238.766 314.276 237.869 312.661 238.058 308.755C236.775 310.551 236.76 314.3 236.76 314.3C236.76 314.3 236.752 301.257 222.503 293.799C232.448 302.308 224.714 305.445 224.714 305.445C224.714 305.445 230.906 308.59 228.632 314.684C236.996 318.856 237.295 324.966 237.295 325.727C237.303 325.382 237.436 324.001 238.774 323.052C240.111 324.001 240.237 325.39 240.253 325.727C240.261 324.966 240.552 318.856 248.915 314.684C246.641 308.582 252.833 305.445 252.833 305.445C252.833 305.445 245.092 302.308 255.028 293.799Z" fill="#131212"/>
<path d="M248.883 210.301C231.999 219.14 231.991 234.598 231.991 234.598C231.991 234.598 231.968 230.159 230.449 228.034C230.662 232.661 229.608 234.575 229.608 234.575C229.608 234.575 228.545 232.661 228.766 228.034C227.247 230.159 227.224 234.598 227.224 234.598C227.224 234.598 227.208 219.14 210.332 210.301C222.118 220.387 212.952 224.104 212.952 224.104C212.952 224.104 220.292 227.83 217.594 235.053C227.499 240.002 227.853 247.233 227.861 248.135C227.877 247.727 228.026 246.096 229.608 244.966C231.189 246.096 231.346 247.735 231.354 248.135C231.362 247.233 231.716 239.994 241.622 235.053C238.923 227.822 246.263 224.104 246.263 224.104C246.263 224.104 237.098 220.387 248.883 210.301Z" fill="#131212"/>
<path d="M227.854 248.243C227.854 248.243 227.854 248.211 227.854 248.148C227.846 248.211 227.854 248.243 227.854 248.243Z" fill="#131212"/>
<path d="M304.972 247.475C304.972 247.475 304.972 247.443 304.972 247.38C304.964 247.443 304.972 247.475 304.972 247.475Z" fill="#131212"/>
<path d="M321.802 211.049C305.587 219.535 305.579 234.382 305.579 234.382C305.579 234.382 305.555 230.123 304.1 228.076C304.304 232.523 303.289 234.358 303.289 234.358C303.289 234.358 302.275 232.523 302.479 228.076C301.024 230.123 301 234.382 301 234.382C301 234.382 300.984 219.543 284.777 211.049C296.091 220.735 287.295 224.304 287.295 224.304C287.295 224.304 294.336 227.88 291.755 234.821C301.268 239.574 301.606 246.515 301.614 247.385C301.629 246.993 301.771 245.424 303.289 244.342C304.808 245.424 304.957 247.001 304.965 247.385C304.973 246.515 305.312 239.574 314.824 234.821C312.235 227.88 319.285 224.304 319.285 224.304C319.285 224.304 310.488 220.727 321.802 211.049Z" fill="#131212"/>
<path d="M281.475 180.932C281.475 180.932 281.459 180.9 281.435 180.845C281.459 180.9 281.475 180.932 281.475 180.932Z" fill="#131212"/>
<path d="M282.615 140.305C270.9 154.65 276.808 168.485 276.808 168.485C276.808 168.485 275.085 164.524 272.914 163.199C274.881 167.261 274.668 169.371 274.668 169.371C274.668 169.371 272.985 168.061 271.403 163.842C270.86 166.328 272.544 170.304 272.544 170.304C272.544 170.304 266.604 156.477 248.115 155.003C262.521 159.536 255.754 166.359 255.754 166.359C255.754 166.359 263.748 166.893 264.11 174.39C274.873 175.041 277.965 181.378 278.311 182.186C278.17 181.817 277.674 180.296 278.657 178.68C280.506 179.088 281.269 180.492 281.435 180.853C281.096 180.045 278.634 173.433 285.604 165.238C280.42 159.795 285.557 153.67 285.557 153.67C285.557 153.67 275.943 153.819 282.615 140.305Z" fill="#131212"/>
<path d="M278.343 182.268C278.343 182.268 278.335 182.236 278.303 182.181C278.327 182.236 278.343 182.268 278.343 182.268Z" fill="#131212"/>
<path d="M164.92 36.2474C164.92 36.2474 164.92 36.2389 164.928 36.2305C164.92 36.2389 164.92 36.2474 164.92 36.2474Z" fill="#131212"/>
<path d="M171.27 30.0393C166.502 30.6589 165.746 33.647 165.746 33.647C165.746 33.647 165.959 32.7843 165.676 32.2745C165.503 33.1843 165.141 33.4823 165.141 33.4823C165.141 33.4823 164.96 33.0431 165.243 32.1647C164.747 32.4784 164.527 33.3333 164.527 33.3333C164.527 33.3333 165.282 30.3452 161.38 27.5453C163.913 30.2589 161.38 30.3844 161.38 30.3844C161.38 30.3844 163.079 31.5765 162.033 32.8C164.33 34.3921 164.071 35.8195 164.031 35.992C164.055 35.9136 164.173 35.6077 164.637 35.4901C164.991 35.8116 164.944 36.1332 164.928 36.2195C164.975 36.0469 165.416 34.6666 168.201 34.3529C167.863 32.7843 169.932 32.5333 169.932 32.5333C169.932 32.5333 167.753 31.2314 171.27 30.0393Z" fill="#131212"/>
<path d="M164.017 36.0269C164.017 36.0269 164.017 36.0185 164.025 36.01C164.025 36.0185 164.017 36.0269 164.017 36.0269Z" fill="#131212"/>
<path d="M109.545 189.42C109.545 189.42 109.537 189.397 109.513 189.35C109.537 189.397 109.545 189.42 109.545 189.42Z" fill="#131212"/>
<path d="M110.333 154.482C100.325 166.874 105.478 178.74 105.478 178.74C105.478 178.74 103.976 175.344 102.103 174.207C103.818 177.689 103.637 179.509 103.637 179.509C103.637 179.509 102.182 178.395 100.805 174.764C100.349 176.905 101.812 180.316 101.812 180.316C101.812 180.316 96.6429 168.458 80.7266 167.274C93.1418 171.101 87.3512 176.999 87.3512 176.999C87.3512 176.999 94.2275 177.422 94.5737 183.861C103.834 184.371 106.517 189.806 106.824 190.496C106.698 190.183 106.265 188.873 107.107 187.485C108.696 187.822 109.365 189.03 109.507 189.336C109.208 188.638 107.068 182.967 113.016 175.885C108.531 171.234 112.921 165.94 112.921 165.94C112.921 165.94 104.66 166.137 110.333 154.482Z" fill="#131212"/>
<path d="M106.861 190.582C106.861 190.582 106.853 190.559 106.83 190.512C106.846 190.559 106.861 190.582 106.861 190.582Z" fill="#131212"/>
<path d="M244.628 67.2674C244.628 67.2674 244.62 67.2593 244.604 67.243C244.62 67.2593 244.628 67.2674 244.628 67.2674Z" fill="#131212"/>
<path d="M239.599 52.7122C237.357 59.355 241.306 63.4725 241.306 63.4725C241.306 63.4725 240.166 62.2961 239.221 62.1157C240.465 63.2922 240.669 64.0764 240.669 64.0764C240.669 64.0764 239.898 63.8333 238.773 62.5471C238.915 63.4961 240.04 64.6882 240.04 64.6882C240.04 64.6882 236.09 60.5707 229.332 62.5079C235.052 62.202 233.557 65.5195 233.557 65.5195C233.557 65.5195 236.46 64.649 237.593 67.2606C241.495 66.0607 243.439 67.9037 243.675 68.139C243.572 68.0292 243.195 67.5508 243.328 66.8528C244.037 66.7508 244.501 67.1508 244.603 67.2528C244.375 67.0097 242.62 64.9941 243.997 61.1589C241.432 59.9197 242.439 57.0649 242.439 57.0649C242.439 57.0649 239.041 58.3904 239.599 52.7122Z" fill="#131212"/>
<path d="M243.691 68.1627C243.691 68.1627 243.683 68.1546 243.667 68.1383C243.683 68.1464 243.691 68.1627 243.691 68.1627Z" fill="#131212"/>
<path d="M240.538 136.785C240.538 136.785 240.538 136.769 240.53 136.738C240.538 136.769 240.538 136.785 240.538 136.785Z" fill="#131212"/>
<path d="M247.729 116.956C239.617 122.124 240.27 129.896 240.27 129.896C240.27 129.896 240.066 127.661 239.216 126.657C239.523 128.979 239.074 129.983 239.074 129.983C239.074 129.983 238.461 129.065 238.366 126.728C237.698 127.865 237.871 130.1 237.871 130.1C237.871 130.1 237.202 122.328 228.335 118.595C234.692 123.167 230.247 125.426 230.247 125.426C230.247 125.426 234.094 126.987 233.048 130.735C238.24 132.806 238.728 136.429 238.775 136.884C238.767 136.68 238.767 135.849 239.523 135.214C240.365 135.716 240.514 136.531 240.538 136.735C240.498 136.28 240.373 132.626 245.14 129.716C243.472 126.194 247.005 124.006 247.005 124.006C247.005 124.006 242.237 122.524 247.729 116.956Z" fill="#131212"/>
<path d="M172.269 216.527C172.269 216.527 172.276 216.496 172.292 216.441C172.276 216.496 172.269 216.527 172.269 216.527Z" fill="#131212"/>
<path d="M199.602 186.368C181.349 189.685 176.833 204.038 176.833 204.038C176.833 204.038 178.1 199.912 177.313 197.497C176.164 201.857 174.622 203.324 174.622 203.324C174.622 203.324 174.197 201.238 175.747 197.003C173.717 198.54 172.403 202.657 172.403 202.657C172.403 202.657 176.896 188.305 163.796 175.199C171.798 187.975 162.207 188.775 162.207 188.775C162.207 188.775 167.934 194.36 163.324 200.289C171.082 207.755 169.303 214.571 169.044 215.41C169.178 215.033 169.791 213.559 171.593 212.971C172.734 214.476 172.395 216.045 172.293 216.421C172.561 215.582 175 208.971 185.637 207.245C185.243 199.755 193.135 198.422 193.135 198.422C193.135 198.422 185.715 192.32 199.602 186.368Z" fill="#131212"/>
<path d="M169.02 215.505C169.02 215.505 169.028 215.474 169.052 215.418C169.028 215.474 169.02 215.505 169.02 215.505Z" fill="#131212"/>
<path d="M137.691 209.24C137.691 209.24 137.691 209.208 137.683 209.145C137.691 209.2 137.691 209.24 137.691 209.24Z" fill="#131212"/>
<path d="M152.915 171.538C136.928 180.934 137.652 195.953 137.652 195.953C137.652 195.953 137.416 191.64 135.843 189.647C136.275 194.134 135.339 196.047 135.339 196.047C135.339 196.047 134.222 194.236 134.206 189.726C132.837 191.867 133.018 196.181 133.018 196.181C133.018 196.181 132.271 181.161 115.442 173.374C127.377 182.612 118.652 186.667 118.652 186.667C118.652 186.667 125.961 189.938 123.687 197.09C133.553 201.427 134.238 208.439 134.293 209.317C134.285 208.925 134.356 207.325 135.843 206.149C137.432 207.168 137.66 208.753 137.691 209.145C137.652 208.266 137.652 201.223 147.046 195.945C144.08 189.051 151.035 185.083 151.035 185.083C151.035 185.083 141.948 181.899 152.915 171.538Z" fill="#131212"/>
<path d="M134.294 209.4C134.294 209.4 134.294 209.368 134.294 209.305C134.286 209.361 134.294 209.4 134.294 209.4Z" fill="#131212"/>
<path d="M224.305 299.033C224.305 299.033 224.313 299.01 224.336 298.963C224.313 299.01 224.305 299.033 224.305 299.033Z" fill="#131212"/>
<path d="M248.263 276.971C233.48 278.305 228.845 289.418 228.845 289.418C228.845 289.418 230.159 286.218 229.703 284.234C228.476 287.63 227.138 288.688 227.138 288.688C227.138 288.688 226.949 286.994 228.491 283.732C226.761 284.814 225.415 287.998 225.415 287.998C225.415 287.998 230.033 276.885 220.537 265.505C225.989 276.258 218.295 276.21 218.295 276.21C218.295 276.21 222.457 281.065 218.358 285.465C223.999 291.967 222.095 297.276 221.828 297.927C221.961 297.637 222.559 296.508 224.03 296.171C224.833 297.449 224.447 298.672 224.337 298.97C224.613 298.319 227.028 293.229 235.635 292.618C235.863 286.618 242.252 286.124 242.252 286.124C242.252 286.124 236.768 280.72 248.263 276.971Z" fill="#131212"/>
<path d="M221.788 298.004C221.788 298.004 221.796 297.981 221.82 297.934C221.796 297.981 221.788 298.004 221.788 298.004Z" fill="#131212"/>
<path d="M263.62 292.533C263.62 292.533 263.628 292.509 263.652 292.462C263.628 292.509 263.62 292.533 263.62 292.533Z" fill="#131212"/>
<path d="M287.578 270.464C272.795 271.797 268.161 282.911 268.161 282.911C268.161 282.911 269.475 279.711 269.018 277.727C267.791 281.122 266.453 282.181 266.453 282.181C266.453 282.181 266.265 280.487 267.807 277.225C266.076 278.307 264.73 281.491 264.73 281.491C264.73 281.491 269.349 270.378 259.852 258.998C265.305 269.75 257.61 269.703 257.61 269.703C257.61 269.703 261.772 274.558 257.673 278.958C263.314 285.46 261.41 290.769 261.143 291.42C261.276 291.13 261.874 290.001 263.346 289.663C264.148 290.942 263.763 292.165 263.653 292.463C263.928 291.812 266.343 286.722 274.951 286.111C275.179 280.111 281.567 279.617 281.567 279.617C281.567 279.617 276.083 274.213 287.578 270.464Z" fill="#131212"/>
<path d="M261.104 291.497C261.104 291.497 261.111 291.474 261.135 291.427C261.111 291.474 261.104 291.497 261.104 291.497Z" fill="#131212"/>
<path d="M178.202 294.735C178.202 294.735 178.217 294.703 178.241 294.64C178.21 294.703 178.202 294.735 178.202 294.735Z" fill="#131212"/>
<path d="M210.08 265.38C190.402 267.16 184.242 281.944 184.242 281.944C184.242 281.944 185.989 277.685 185.383 275.05C183.746 279.568 181.968 280.979 181.968 280.979C181.968 280.979 181.717 278.728 183.77 274.384C181.473 275.819 179.679 280.062 179.679 280.062C179.679 280.062 185.823 265.27 173.188 250.126C180.45 264.439 170.198 264.368 170.198 264.368C170.198 264.368 175.737 270.831 170.277 276.681C177.791 285.332 175.249 292.399 174.887 293.261C175.06 292.877 175.855 291.371 177.822 290.916C178.892 292.626 178.381 294.249 178.231 294.642C178.593 293.779 181.811 286.995 193.266 286.187C193.565 278.203 202.07 277.544 202.07 277.544C202.07 277.544 194.785 270.36 210.08 265.38Z" fill="#131212"/>
<path d="M174.847 293.359C174.847 293.359 174.862 293.327 174.886 293.264C174.862 293.327 174.847 293.359 174.847 293.359Z" fill="#131212"/>
<path d="M312.353 299.838C294.918 308.967 294.902 324.935 294.902 324.935C294.902 324.935 294.879 320.347 293.313 318.151C293.533 322.927 292.44 324.912 292.44 324.912C292.44 324.912 291.346 322.935 291.566 318.151C290.001 320.347 289.977 324.935 289.977 324.935C289.977 324.935 289.961 308.975 272.527 299.838C284.698 310.253 275.233 314.096 275.233 314.096C275.233 314.096 282.81 317.939 280.025 325.406C290.26 330.511 290.622 337.986 290.63 338.919C290.646 338.503 290.803 336.809 292.44 335.641C294.076 336.809 294.234 338.496 294.249 338.919C294.257 337.986 294.619 330.511 304.855 325.406C302.07 317.939 309.646 314.096 309.646 314.096C309.646 314.096 300.182 310.253 312.353 299.838Z" fill="#131212"/>
<path d="M338.701 279.435C321.266 288.564 321.251 304.532 321.251 304.532C321.251 304.532 321.227 299.944 319.661 297.748C319.882 302.532 318.788 304.508 318.788 304.508C318.788 304.508 317.695 302.532 317.915 297.748C316.349 299.944 316.326 304.532 316.326 304.532C316.326 304.532 316.31 288.572 298.875 279.435C311.046 289.85 301.581 293.693 301.581 293.693C301.581 293.693 309.158 297.536 306.373 305.002C316.609 310.108 316.971 317.582 316.979 318.516C316.994 318.1 317.152 316.406 318.788 315.237C320.425 316.406 320.582 318.092 320.598 318.516C320.606 317.582 320.967 310.108 331.203 305.002C328.418 297.536 335.995 293.693 335.995 293.693C335.995 293.693 326.53 289.85 338.701 279.435Z" fill="#131212"/>
<path d="M320.018 302.112C305.235 303.445 300.601 314.558 300.601 314.558C300.601 314.558 301.915 311.358 301.458 309.374C300.231 312.77 298.893 313.829 298.893 313.829C298.893 313.829 298.704 312.135 300.247 308.872C298.516 309.954 297.17 313.139 297.17 313.139C297.17 313.139 301.789 302.025 292.292 290.645C297.745 301.398 290.05 301.351 290.05 301.351C290.05 301.351 294.212 306.205 290.113 310.605C295.754 317.107 293.85 322.417 293.583 323.068C293.716 322.777 294.314 321.648 295.786 321.311C296.588 322.589 296.203 323.813 296.092 324.111C296.368 323.46 298.783 318.37 307.39 317.758C307.619 311.758 314.007 311.264 314.007 311.264C314.007 311.264 308.531 305.86 320.018 302.112Z" fill="#131212"/>
<path d="M313.353 270.195C295.918 279.324 295.902 295.292 295.902 295.292C295.902 295.292 295.879 290.704 294.313 288.508C294.533 293.284 293.44 295.269 293.44 295.269C293.44 295.269 292.346 293.292 292.566 288.508C291.001 290.704 290.977 295.292 290.977 295.292C290.977 295.292 290.961 279.332 273.527 270.195C285.698 280.61 276.233 284.453 276.233 284.453C276.233 284.453 283.81 288.296 281.024 295.763C291.26 300.868 291.622 308.343 291.63 309.276C291.646 308.86 291.803 307.166 293.44 305.998C295.076 307.166 295.234 308.852 295.249 309.276C295.257 308.343 295.619 300.868 305.855 295.763C303.07 288.296 310.646 284.453 310.646 284.453C310.646 284.453 301.182 280.61 313.353 270.195Z" fill="#131212"/>
<path d="M9.94342 245.024C2.8389 244.899 -6.30334 248.687 -6.30334 248.687C-9.0885 253.479 -11.0318 257.534 -12.3693 259.251C-12.8099 258.365 -14.1238 255.871 -15.4692 255.087C-13.935 258.106 -14.706 258.279 -14.706 258.279C-14.706 258.279 -15.3512 258.741 -16.5943 255.589C-16.9011 257.118 -15.9098 259.753 -15.5321 260.671C-17.7036 260.53 -22.0387 259.275 -27.4831 258.169C-27.4831 258.169 -36.3972 262.467 -41.0234 267.839C-34.2887 264.678 -34.6349 273.117 -34.6349 273.117C-34.6349 273.117 -29.7018 266.216 -24.1315 276.678C-21.7948 266.749 -8.34107 272.419 -8.34107 272.419C-8.34107 272.419 -3.65194 258.632 5.34082 263.486C1.20242 252.389 9.65232 253.298 9.65232 253.298C9.65232 253.298 3.09854 247.942 9.94342 245.024Z" fill="#131212"/>
<path d="M102.373 269.899C95.4654 263.225 82.9165 258.527 82.9165 258.527C75.7175 260.692 70.0292 262.911 67.1103 263.374C67.5037 262.088 68.5107 258.417 67.9128 256.394C66.6225 260.794 65.702 260.253 65.702 260.253C65.702 260.253 64.6398 260.119 66.3314 255.853C64.6162 257.084 63.145 260.606 62.665 261.853C60.6509 259.704 57.5275 254.472 53.1766 248.355C53.1766 248.355 40.3838 244.379 30.8167 245.414C40.4074 248.504 32.2328 256.527 32.2328 256.527C32.2328 256.527 43.5151 254.261 39.3059 269.735C50.832 262.08 58.8649 280.095 58.8649 280.095C58.8649 280.095 76.3076 270.793 80.6899 283.891C86.9054 269.107 94.4112 277.797 94.4112 277.797C94.4112 277.797 92.8927 266.464 102.373 269.899Z" fill="#131212"/>
<path d="M66.5902 232.925C57.5031 228.666 39.1084 232.674 39.1084 232.674C34.0416 237.074 25.159 247.191 25.159 247.191C25.1118 245.795 24.8601 241.827 23.5776 240.031C23.7979 244.815 22.7043 244.587 22.7043 244.587C22.7043 244.587 21.6107 244.815 21.831 240.031C20.5564 241.827 20.3047 245.795 20.2496 247.191C17.5274 245.756 12.673 241.638 6.30018 237.074C6.30018 237.074 -12.0945 241.866 -21.1816 246.124C-10.6625 245.936 -9.82856 253.089 -9.82856 253.089C-9.82856 253.089 3.18458 244.846 4.29393 261.528C13.0664 250.085 22.7043 266.469 22.7043 266.469C22.7043 266.469 31.4532 248.32 40.2335 259.763C41.3428 243.074 52.5858 248.681 52.5858 248.681C52.5858 248.681 56.079 232.737 66.5902 232.925Z" fill="#131212"/>
<path d="M98.4385 236.333C91.334 236.207 82.1918 239.995 82.1918 239.995C79.4066 244.787 77.4633 248.842 76.1258 250.56C75.6852 249.673 74.3713 247.179 73.0259 246.395C74.5601 249.415 73.7891 249.587 73.7891 249.587C73.7891 249.587 73.1439 250.05 71.9008 246.897C71.594 248.426 72.5853 251.062 72.963 251.979C70.7915 251.838 66.4564 250.583 61.012 249.477C61.012 249.477 52.0979 253.775 47.4717 259.147C54.2064 255.987 53.8602 264.426 53.8602 264.426C53.8602 264.426 58.7933 257.524 64.3636 267.986C66.7003 258.057 80.154 263.728 80.154 263.728C80.154 263.728 84.8432 249.94 93.8359 254.795C89.6975 243.697 98.1474 244.607 98.1474 244.607C98.1474 244.607 91.5937 239.25 98.4385 236.333Z" fill="#131212"/>
<path d="M183.229 227.18C176.124 227.054 166.982 230.842 166.982 230.842C164.197 235.634 162.253 239.689 160.916 241.407C160.475 240.52 159.161 238.026 157.816 237.242C159.35 240.262 158.579 240.434 158.579 240.434C158.579 240.434 157.934 240.897 156.691 237.744C156.384 239.273 157.375 241.909 157.753 242.826C155.582 242.685 151.246 241.43 145.802 240.324C145.802 240.324 136.888 244.622 132.262 249.995C138.996 246.834 138.65 255.273 138.65 255.273C138.65 255.273 143.583 248.371 149.154 258.834C151.49 248.904 164.944 254.575 164.944 254.575C164.944 254.575 169.633 240.787 178.626 245.642C174.488 234.544 182.937 235.454 182.937 235.454C182.937 235.454 176.384 230.097 183.229 227.18Z" fill="#131212"/>
<path d="M152.112 255.661C146.597 247.301 134.89 239.685 134.89 239.685C127.062 240.258 120.768 241.23 117.691 241.042C118.384 239.826 120.248 236.305 120.099 234.117C117.786 238.305 116.968 237.544 116.968 237.544C116.968 237.544 115.913 237.168 118.612 233.207C116.582 234.07 114.285 237.324 113.514 238.493C111.948 235.85 109.957 229.811 106.921 222.603C106.921 222.603 94.7964 215.655 84.8202 214.557C93.8838 219.874 83.7266 226.188 83.7266 226.188C83.7266 226.188 95.7326 226.431 87.9279 241.238C101.405 236.054 105.489 256.218 105.489 256.218C105.489 256.218 125.362 250.696 126.849 265.025C136.542 251.371 142.207 261.927 142.207 261.927C142.207 261.927 143.246 250.03 152.112 255.661Z" fill="#131212"/>
<path d="M122.404 207.439C118.824 200.318 105.339 193.801 105.339 193.801C99.9967 194.067 89.4461 196.036 89.4461 196.036C90.107 195.134 91.9087 192.53 91.9953 190.781C89.7766 193.879 89.2022 193.205 89.2022 193.205C89.2022 193.205 88.4076 192.805 90.9095 189.926C89.2258 190.42 87.1094 192.781 86.3856 193.628C85.3943 191.393 84.3872 186.436 82.6563 180.46C82.6563 180.46 68.7856 174.437 60.9966 172.641C67.6684 177.684 64.6551 182.57 64.6551 182.57C64.6551 182.57 76.8657 183.793 69.3206 194.781C80.4612 191.926 78.392 206.906 78.392 206.906C78.392 206.906 92.8214 199.848 92.664 211.314C101.594 201.416 105.866 210.443 105.866 210.443C105.866 210.443 115.913 202.161 122.404 207.439Z" fill="#131212"/>
<path d="M81.5391 139.325C76.4173 138.462 67.8022 143.011 67.8022 143.011C65.8903 145.905 62.8691 152.187 62.8691 152.187C62.6488 151.497 61.9722 149.552 61.0832 148.839C61.8621 151.191 61.2877 151.231 61.2877 151.231C61.2877 151.231 60.7763 151.497 60.2177 149.082C59.8322 150.156 60.2571 152.164 60.4302 152.87C58.8724 152.533 55.8748 151.152 52.0589 149.756C52.0589 149.756 43.554 154.697 39.6201 158.085C44.8364 156.532 46.2526 159.983 46.2526 159.983C46.2526 159.983 51.5869 154.07 54.4743 162.234C57.2516 155.309 64.3482 162.148 64.3482 162.148C64.3482 162.148 66.1814 151.882 72.153 156.375C70.3749 147.897 76.7635 149.137 76.7635 149.137C76.7635 149.137 76.2757 140.698 81.5391 139.325Z" fill="#131212"/>
<path d="M28.4627 72.9075C25.7405 69.8958 18.2426 68.5155 18.2426 68.5155C15.662 69.3625 10.7447 71.7546 10.7447 71.7546C10.9492 71.2212 11.4764 69.6997 11.2797 68.837C10.6109 70.6566 10.2332 70.3978 10.2332 70.3978C10.2332 70.3978 9.79265 70.3115 10.6266 68.5625C9.86346 69.0331 9.14751 70.4762 8.91148 70.986C8.12471 70.0213 6.9603 67.7312 5.30021 65.0254C5.30021 65.0254 -2.32358 63.9353 -6.3833 64.1C-2.42586 65.6764 -3.24409 68.4763 -3.24409 68.4763C-3.24409 68.4763 2.9163 67.4332 0.697615 73.8408C5.78014 70.9389 6.79507 78.57 6.79507 78.57C6.79507 78.57 12.924 73.1663 14.3953 78.8131C17.44 72.7584 20.7523 76.6093 20.7523 76.6093C20.7523 76.6093 24.5682 71.1899 28.4627 72.9075Z" fill="#131212"/>
<path d="M22.3903 109.734C21.0056 108.84 17.9136 109.091 17.9136 109.091C16.9931 109.695 15.3173 111.154 15.3173 111.154C15.3409 110.926 15.3881 110.275 15.215 109.954C15.1442 110.738 14.9711 110.675 14.9711 110.675C14.9711 110.675 14.7901 110.691 14.9318 109.915C14.68 110.181 14.5541 110.824 14.5148 111.044C14.1056 110.746 13.3976 109.97 12.4613 109.091C12.4613 109.091 9.35357 109.468 7.78003 109.962C9.49518 110.166 9.47945 111.35 9.47945 111.35C9.47945 111.35 11.7847 110.291 11.5959 113.036C13.2795 111.366 14.4912 114.244 14.4912 114.244C14.4912 114.244 16.3165 111.475 17.4966 113.538C18.0474 110.84 19.7546 112.001 19.7546 112.001C19.7546 112.001 20.683 109.475 22.3903 109.734Z" fill="#131212"/>
<path d="M82.5461 135.173C81.4211 133.337 77.6524 131.879 77.6524 131.879C76.2205 132.067 73.4275 132.828 73.4275 132.828C73.5849 132.569 74.0097 131.832 73.994 131.361C73.4668 132.247 73.2938 132.075 73.2938 132.075C73.2938 132.075 73.0735 131.988 73.6793 131.157C73.2387 131.33 72.7194 132.012 72.5463 132.255C72.2316 131.675 71.8461 130.365 71.2482 128.789C71.2482 128.789 67.3773 127.471 65.2451 127.157C67.1491 128.365 66.4489 129.745 66.4489 129.745C66.4489 129.745 69.7612 129.808 67.9752 132.93C70.9099 131.918 70.6895 135.996 70.6895 135.996C70.6895 135.996 74.4188 133.777 74.6313 136.867C76.8185 134.004 78.1638 136.341 78.1638 136.341C78.1638 136.341 80.6894 133.902 82.5461 135.173Z" fill="#131212"/>
<path d="M2.86198 273.384C-6.2252 269.126 -24.6198 273.133 -24.6198 273.133C-29.6866 277.533 -38.5692 287.651 -38.5692 287.651C-38.6164 286.254 -38.8682 282.286 -40.1507 280.49C-39.9304 285.266 -41.024 285.047 -41.024 285.047C-41.024 285.047 -42.1176 285.274 -41.8973 280.49C-43.1718 282.286 -43.4236 286.254 -43.4787 287.651C-46.2009 286.215 -51.0553 282.098 -57.4281 277.533C-57.4281 277.533 -75.8227 282.325 -84.9099 286.584C-74.3908 286.396 -73.5568 293.548 -73.5568 293.548C-73.5568 293.548 -60.5437 285.306 -59.4343 301.987C-50.6619 290.545 -41.024 306.928 -41.024 306.928C-41.024 306.928 -32.2751 288.78 -23.4948 300.223C-22.3854 283.533 -11.1425 289.141 -11.1425 289.141C-11.1425 289.141 -7.65711 273.196 2.86198 273.384Z" fill="#131212"/>
<path d="M127.445 266.136C120.341 266.011 111.198 269.799 111.198 269.799C108.413 274.591 106.47 278.645 105.132 280.363C104.692 279.477 103.378 276.983 102.033 276.198C103.567 279.218 102.796 279.391 102.796 279.391C102.796 279.391 102.151 279.853 100.907 276.7C100.601 278.23 101.592 280.865 101.97 281.783C99.7981 281.641 95.463 280.387 90.0185 279.281C90.0185 279.281 81.1045 283.579 76.4783 288.951C83.213 285.79 82.8668 294.229 82.8668 294.229C82.8668 294.229 87.7999 287.327 93.3702 297.79C95.7069 287.861 109.161 293.531 109.161 293.531C109.161 293.531 113.85 279.743 122.843 284.598C118.704 273.501 127.154 274.41 127.154 274.41C127.154 274.41 120.6 269.054 127.445 266.136Z" fill="#131212"/>
<path d="M100.352 287.336C93.4437 280.662 80.8947 275.964 80.8947 275.964C73.6958 278.129 68.0075 280.348 65.0886 280.811C65.4819 279.525 66.489 275.854 65.8911 273.831C64.6008 278.231 63.6803 277.69 63.6803 277.69C63.6803 277.69 62.6181 277.556 64.3097 273.29C62.5945 274.521 61.1232 278.043 60.6433 279.29C58.6292 277.141 55.5057 271.909 51.1549 265.792C51.1549 265.792 38.362 261.816 28.7949 262.851C38.3856 265.941 30.2111 273.964 30.2111 273.964C30.2111 273.964 41.4934 271.698 37.2842 287.172C48.8103 279.517 56.8432 297.532 56.8432 297.532C56.8432 297.532 74.2859 288.23 78.6682 301.328C84.8837 286.544 92.3894 295.234 92.3894 295.234C92.3894 295.234 90.871 283.909 100.352 287.336Z" fill="#131212"/>
<path d="M181.119 283.246C175.604 274.886 163.897 267.27 163.897 267.27C156.069 267.843 149.774 268.815 146.698 268.627C147.391 267.412 149.255 263.89 149.106 261.702C146.793 265.89 145.974 265.129 145.974 265.129C145.974 265.129 144.92 264.753 147.619 260.792C145.589 261.655 143.291 264.91 142.52 266.078C140.955 263.435 138.964 257.396 135.927 250.189C135.927 250.189 123.803 243.24 113.827 242.142C122.891 247.459 112.733 253.773 112.733 253.773C112.733 253.773 124.739 254.016 116.935 268.823C130.412 263.639 134.495 283.803 134.495 283.803C134.495 283.803 154.369 278.282 155.856 292.611C165.549 278.956 171.214 289.513 171.214 289.513C171.214 289.513 172.252 277.615 181.119 283.246Z" fill="#131212"/>
<path d="M6.80315 125.174C3.67968 125.142 -0.332843 126.844 -0.332843 126.844C-1.54447 128.962 -2.37844 130.758 -2.96065 131.511C-3.15734 131.118 -3.74742 130.028 -4.33749 129.691C-3.653 131.016 -3.99131 131.095 -3.99131 131.095C-3.99131 131.095 -4.27455 131.299 -4.83316 129.918C-4.95904 130.593 -4.51844 131.746 -4.34536 132.154C-5.30521 132.099 -7.21706 131.565 -9.60884 131.095C-9.60884 131.095 -13.5112 133.016 -15.5332 135.401C-12.5828 133.989 -12.7008 137.699 -12.7008 137.699C-12.7008 137.699 -10.553 134.648 -8.06678 139.228C-7.07545 134.852 -1.13534 137.299 -1.13534 137.299C-1.13534 137.299 0.878777 131.213 4.85196 133.314C2.98732 128.444 6.70874 128.813 6.70874 128.813C6.70874 128.813 3.7977 126.483 6.80315 125.174Z" fill="#131212"/>
<path d="M25.262 168.413C20.5099 163.825 11.8869 160.594 11.8869 160.594C6.93816 162.084 3.02792 163.605 1.02166 163.927C1.28916 163.041 1.9894 160.515 1.57241 159.127C0.683361 162.154 0.0539284 161.778 0.0539284 161.778C0.0539284 161.778 -0.677752 161.684 0.486666 158.751C-0.693487 159.598 -1.70056 162.013 -2.031 162.876C-3.41572 161.401 -5.56359 157.802 -8.55331 153.598C-8.55331 153.598 -17.3494 150.861 -23.9268 151.574C-17.3336 153.7 -22.959 159.213 -22.959 159.213C-22.959 159.213 -15.2015 157.653 -18.0968 168.295C-10.1741 163.033 -4.65093 175.417 -4.65093 175.417C-4.65093 175.417 7.33943 169.025 10.3527 178.028C14.6249 167.864 19.7861 173.84 19.7861 173.84C19.7861 173.84 18.7476 166.052 25.262 168.413Z" fill="#131212"/>
<path d="M61.5618 227.097C55.1417 220.886 43.4739 216.525 43.4739 216.525C36.7785 218.541 31.4915 220.603 28.7771 221.027C29.139 219.835 30.0831 216.415 29.5245 214.533C28.3287 218.627 27.4711 218.125 27.4711 218.125C27.4711 218.125 26.4797 218 28.0611 214.031C26.464 215.176 25.1029 218.447 24.6544 219.615C22.7819 217.615 19.8787 212.753 15.8347 207.067C15.8347 207.067 3.93882 203.365 -4.95166 204.337C3.96243 207.216 -3.63776 214.666 -3.63776 214.666C-3.63776 214.666 6.84986 212.557 2.93963 226.948C13.6554 219.835 21.1297 236.579 21.1297 236.579C21.1297 236.579 37.345 227.936 41.4205 240.109C47.1954 226.36 54.174 234.446 54.174 234.446C54.174 234.446 52.7499 223.905 61.5618 227.097Z" fill="#131212"/>
<path d="M25.2621 184.363C16.82 180.402 -0.284302 184.136 -0.284302 184.136C-4.98918 188.23 -13.2581 197.633 -13.2581 197.633C-13.3053 196.331 -13.5414 192.645 -14.7294 190.975C-14.5248 195.421 -15.5397 195.21 -15.5397 195.21C-15.5397 195.21 -16.5547 195.421 -16.3501 190.975C-17.5381 192.645 -17.7742 196.331 -17.8214 197.633C-20.3469 196.292 -24.8708 192.472 -30.7952 188.23C-30.7952 188.23 -47.8995 192.684 -56.3416 196.645C-46.562 196.472 -45.791 203.123 -45.791 203.123C-45.791 203.123 -33.6905 195.453 -32.6598 210.974C-24.501 200.331 -15.5476 215.57 -15.5476 215.57C-15.5476 215.57 -7.41243 198.7 0.746365 209.342C1.77703 193.829 12.2332 199.037 12.2332 199.037C12.2332 199.037 15.4825 184.19 25.2621 184.363Z" fill="#131212"/>
<path d="M208.39 286.278C199.303 282.02 180.908 286.027 180.908 286.027C175.842 290.427 166.959 300.545 166.959 300.545C166.912 299.149 166.66 295.18 165.378 293.384C165.598 298.16 164.504 297.941 164.504 297.941C164.504 297.941 163.411 298.168 163.631 293.384C162.356 295.18 162.105 299.149 162.05 300.545C159.327 299.109 154.473 294.992 148.1 290.427C148.1 290.427 129.706 295.219 120.618 299.478C131.138 299.29 131.971 306.442 131.971 306.442C131.971 306.442 144.985 298.2 146.094 314.881C154.866 303.439 164.504 319.822 164.504 319.822C164.504 319.822 173.253 301.674 182.034 313.117C183.143 296.427 194.386 302.035 194.386 302.035C194.386 302.035 197.879 286.09 208.39 286.278Z" fill="#131212"/>
<path d="M198.152 119.449C193.031 118.587 184.415 123.136 184.415 123.136C182.504 126.03 179.482 132.312 179.482 132.312C179.262 131.622 178.585 129.676 177.696 128.963C178.475 131.316 177.901 131.355 177.901 131.355C177.901 131.355 177.39 131.622 176.831 129.206C176.445 130.28 176.87 132.288 177.043 132.994C175.486 132.657 172.488 131.276 168.672 129.88C168.672 129.88 160.167 134.821 156.233 138.21C161.45 136.657 162.866 140.107 162.866 140.107C162.866 140.107 168.2 134.194 171.088 142.358C173.865 135.433 180.962 142.272 180.962 142.272C180.962 142.272 182.795 132.006 188.766 136.5C186.988 128.022 193.377 129.261 193.377 129.261C193.377 129.261 192.881 120.814 198.152 119.449Z" fill="#131212"/>
<path d="M207.878 107.286C206.187 105.294 201.387 104.243 201.387 104.243C199.704 104.737 196.494 106.172 196.494 106.172C196.635 105.835 197.005 104.862 196.903 104.306C196.431 105.466 196.203 105.294 196.203 105.294C196.203 105.294 195.919 105.231 196.494 104.117C195.998 104.408 195.502 105.317 195.337 105.647C194.849 105.011 194.141 103.506 193.134 101.733C193.134 101.733 188.248 100.878 185.628 100.902C188.146 102 187.564 103.788 187.564 103.788C187.564 103.788 191.553 103.247 189.995 107.325C193.323 105.56 193.827 110.494 193.827 110.494C193.827 110.494 197.886 107.137 198.72 110.807C200.805 106.964 202.859 109.521 202.859 109.521C202.859 109.521 205.408 106.094 207.878 107.286Z" fill="#131212"/>
<path d="M165.132 305.462C158.492 300.576 143.016 300.858 143.016 300.858C138.225 303.596 129.429 310.333 129.429 310.333C129.618 309.195 130.05 305.956 129.311 304.302C128.721 308.192 127.871 307.839 127.871 307.839C127.871 307.839 126.95 307.846 127.902 304.027C126.581 305.266 125.739 308.427 125.471 309.548C123.512 307.956 120.255 303.862 115.857 299.157C115.857 299.157 100.255 300.074 92.2383 302.051C100.751 303.588 100.271 309.486 100.271 309.486C100.271 309.486 112.096 304.921 110.295 318.552C119.217 310.733 124.338 325.485 124.338 325.485C124.338 325.485 134.323 312.254 139.547 322.889C143.134 309.611 151.293 315.932 151.293 315.932C151.293 315.932 156.682 303.627 165.132 305.462Z" fill="#131212"/>
<path d="M78.0553 300.629C68.9682 296.37 50.5735 300.378 50.5735 300.378C45.5067 304.778 36.6241 314.895 36.6241 314.895C36.5769 313.499 36.3251 309.531 35.0427 307.735C35.263 312.519 34.1694 312.291 34.1694 312.291C34.1694 312.291 33.0758 312.519 33.2961 307.735C32.0215 309.531 31.7698 313.499 31.7147 314.895C28.9925 313.46 24.1381 309.342 17.7653 304.778C17.7653 304.778 -0.629376 309.57 -9.71655 313.829C0.802542 313.64 1.63651 320.793 1.63651 320.793C1.63651 320.793 14.6497 312.55 15.759 329.232C24.5315 317.789 34.1694 334.173 34.1694 334.173C34.1694 334.173 42.9183 316.025 51.6986 327.467C52.8079 310.778 64.0509 316.385 64.0509 316.385C64.0509 316.385 67.5362 300.441 78.0553 300.629Z" fill="#131212"/>
<path d="M12.8636 259.221C5.75906 259.096 -3.38319 262.884 -3.38319 262.884C-6.16835 267.676 -8.11166 271.731 -9.44916 273.448C-9.88976 272.562 -11.2037 270.068 -12.549 269.284C-11.0148 272.303 -11.7859 272.476 -11.7859 272.476C-11.7859 272.476 -12.431 272.938 -13.6741 269.786C-13.9809 271.315 -12.9896 273.95 -12.612 274.868C-14.7835 274.727 -19.1186 273.472 -24.563 272.366C-24.563 272.366 -33.4771 276.664 -38.1033 282.036C-31.3685 278.875 -31.7147 287.314 -31.7147 287.314C-31.7147 287.314 -26.7817 280.413 -21.2114 290.875C-18.8746 280.946 -5.42091 286.616 -5.42091 286.616C-5.42091 286.616 -0.731762 272.829 8.261 277.683C4.1226 266.586 12.5725 267.496 12.5725 267.496C12.5725 267.496 6.02656 262.139 12.8636 259.221Z" fill="#131212"/>
<path d="M56.747 268.621C47.6598 264.362 29.2652 268.37 29.2652 268.37C24.1984 272.77 15.3158 282.887 15.3158 282.887C15.2686 281.491 15.0168 277.523 13.7344 275.727C13.9546 280.511 12.861 280.283 12.861 280.283C12.861 280.283 11.7674 280.511 11.9877 275.727C10.7132 277.523 10.4614 281.491 10.4063 282.887C7.6841 281.452 2.82974 277.334 -3.54309 272.77C-3.54309 272.77 -21.9377 277.562 -31.0249 281.82C-20.5058 281.632 -19.6718 288.785 -19.6718 288.785C-19.6718 288.785 -6.65869 280.542 -5.54935 297.224C3.22312 285.781 12.861 302.165 12.861 302.165C12.861 302.165 21.6099 284.016 30.3902 295.459C31.4996 278.77 42.7425 284.377 42.7425 284.377C42.7425 284.377 46.2279 268.433 56.747 268.621Z" fill="#131212"/>
<path d="M86.9974 294.359C80.357 289.473 64.8813 289.755 64.8813 289.755C60.0899 292.492 51.2938 299.229 51.2938 299.229C51.4826 298.092 51.9154 294.853 51.1758 293.198C50.5857 297.088 49.736 296.735 49.736 296.735C49.736 296.735 48.8155 296.743 49.7675 292.923C48.4457 294.163 47.6039 297.323 47.3364 298.445C45.3773 296.853 42.1201 292.759 37.7221 288.053C37.7221 288.053 22.1204 288.971 14.1033 290.947C22.6161 292.484 22.1362 298.382 22.1362 298.382C22.1362 298.382 33.9613 293.817 32.1596 307.448C41.0815 299.629 46.2034 314.381 46.2034 314.381C46.2034 314.381 56.1875 301.151 61.4117 311.785C64.9993 298.507 73.1581 304.829 73.1581 304.829C73.1581 304.829 78.5475 292.523 86.9974 294.359Z" fill="#131212"/>
<path d="M240.914 254.979C233.809 254.854 224.667 258.642 224.667 258.642C221.882 263.434 219.938 267.488 218.601 269.206C218.16 268.32 216.846 265.826 215.501 265.041C217.035 268.061 216.264 268.233 216.264 268.233C216.264 268.233 215.619 268.696 214.376 265.543C214.069 267.073 215.06 269.708 215.438 270.625C213.267 270.484 208.931 269.229 203.487 268.124C203.487 268.124 194.573 272.421 189.947 277.794C196.682 274.633 196.335 283.072 196.335 283.072C196.335 283.072 201.268 276.17 206.839 286.633C209.175 276.704 222.629 282.374 222.629 282.374C222.629 282.374 227.318 268.586 236.311 273.441C232.173 262.343 240.623 263.253 240.623 263.253C240.623 263.253 234.069 257.897 240.914 254.979Z" fill="#131212"/>
<path d="M323.548 245.024C316.444 244.899 307.302 248.687 307.302 248.687C304.516 253.479 302.573 257.534 301.236 259.251C300.795 258.365 299.481 255.871 298.136 255.087C299.67 258.106 298.899 258.279 298.899 258.279C298.899 258.279 298.254 258.741 297.011 255.589C296.704 257.118 297.695 259.753 298.073 260.671C295.901 260.53 291.566 259.275 286.122 258.169C286.122 258.169 277.208 262.467 272.582 267.839C279.316 264.678 278.97 273.117 278.97 273.117C278.97 273.117 283.903 266.216 289.473 276.678C291.81 266.749 305.264 272.419 305.264 272.419C305.264 272.419 309.953 258.632 318.946 263.486C314.807 252.389 323.257 253.298 323.257 253.298C323.257 253.298 316.711 247.942 323.548 245.024Z" fill="#131212"/>
<path d="M292.439 273.519C286.924 265.158 275.217 257.543 275.217 257.543C267.388 258.116 261.094 259.088 258.018 258.9C258.71 257.684 260.575 254.163 260.426 251.975C258.112 256.163 257.294 255.402 257.294 255.402C257.294 255.402 256.24 255.025 258.939 251.065C256.909 251.928 254.611 255.182 253.84 256.351C252.275 253.708 250.284 247.669 247.247 240.461C247.247 240.461 235.123 233.513 225.147 232.415C234.21 237.732 224.053 244.045 224.053 244.045C224.053 244.045 236.059 244.289 228.255 259.096C241.732 253.912 245.815 274.076 245.815 274.076C245.815 274.076 265.689 268.554 267.176 282.883C276.869 269.229 282.534 279.785 282.534 279.785C282.534 279.785 283.572 267.88 292.439 273.519Z" fill="#131212"/>
<path d="M380.204 232.925C371.116 228.666 352.722 232.674 352.722 232.674C347.655 237.074 338.772 247.191 338.772 247.191C338.725 245.795 338.473 241.827 337.191 240.031C337.411 244.815 336.318 244.587 336.318 244.587C336.318 244.587 335.224 244.815 335.444 240.031C334.17 241.827 333.918 245.795 333.863 247.191C331.141 245.756 326.286 241.638 319.913 237.074C319.913 237.074 301.519 241.866 292.432 246.124C302.951 245.936 303.785 253.089 303.785 253.089C303.785 253.089 316.798 244.846 317.907 261.528C326.68 250.085 336.318 266.469 336.318 266.469C336.318 266.469 345.066 248.32 353.847 259.763C354.956 243.074 366.199 248.681 366.199 248.681C366.199 248.681 369.684 232.737 380.204 232.925Z" fill="#131212"/>
<path d="M197.651 215.659C190.688 214.263 181.01 216.349 181.01 216.349C177.407 220.561 174.763 224.208 173.135 225.651C172.867 224.694 172.018 222.012 170.838 220.992C171.805 224.239 171.011 224.271 171.011 224.271C171.011 224.271 170.295 224.608 169.642 221.29C169.067 222.741 169.571 225.51 169.768 226.482C167.651 225.949 163.615 223.949 158.462 221.878C158.462 221.878 148.918 224.506 143.395 228.961C150.594 227.063 148.729 235.298 148.729 235.298C148.729 235.298 154.827 229.4 158.414 240.678C162.506 231.337 174.716 239.321 174.716 239.321C174.716 239.321 181.821 226.6 189.791 232.984C187.722 221.329 195.872 223.737 195.872 223.737C195.872 223.737 190.389 217.306 197.651 215.659Z" fill="#131212"/>
<path d="M96.66 299.119C90.4839 299.009 82.5297 302.303 82.5297 302.303C80.1064 306.468 78.4149 309.997 77.2583 311.495C76.8728 310.719 75.732 308.554 74.5597 307.872C75.8972 310.499 75.2206 310.648 75.2206 310.648C75.2206 310.648 74.662 311.048 73.5762 308.311C73.3087 309.636 74.1742 311.934 74.5046 312.727C72.6164 312.601 68.8478 311.519 64.1114 310.554C64.1114 310.554 56.3618 314.287 52.3335 318.962C58.1949 316.217 57.8881 323.55 57.8881 323.55C57.8881 323.55 62.176 317.55 67.0225 326.64C69.0523 318.005 80.7594 322.938 80.7594 322.938C80.7594 322.938 84.8349 310.946 92.6633 315.166C89.0599 305.519 96.4083 306.303 96.4083 306.303C96.4083 306.303 90.7042 301.66 96.66 299.119Z" fill="#131212"/>
<path d="M252.59 175.221C249.356 168.79 237.169 162.9 237.169 162.9C232.346 163.143 222.803 164.924 222.803 164.924C223.401 164.108 225.029 161.755 225.108 160.179C223.102 162.979 222.582 162.367 222.582 162.367C222.582 162.367 221.866 162.006 224.124 159.402C222.598 159.849 220.686 161.983 220.033 162.751C219.136 160.736 218.224 156.257 216.658 150.846C216.658 150.846 204.117 145.403 197.083 143.779C203.11 148.336 200.396 152.752 200.396 152.752C200.396 152.752 211.434 153.857 204.613 163.786C214.683 161.206 212.811 174.743 212.811 174.743C212.811 174.743 225.855 168.367 225.706 178.727C233.778 169.786 237.633 177.943 237.633 177.943C237.633 177.943 246.728 170.453 252.59 175.221Z" fill="#131212"/>
<path d="M342.069 72.9075C339.347 69.8958 331.849 68.5155 331.849 68.5155C329.269 69.3625 324.351 71.7546 324.351 71.7546C324.556 71.2212 325.083 69.6997 324.886 68.837C324.218 70.6566 323.84 70.3978 323.84 70.3978C323.84 70.3978 323.399 70.3115 324.233 68.5625C323.47 69.0331 322.754 70.4762 322.518 70.986C321.731 70.0213 320.567 67.7312 318.907 65.0254C318.907 65.0254 311.283 63.9353 307.223 64.1C311.181 65.6764 310.363 68.4763 310.363 68.4763C310.363 68.4763 316.523 67.4332 314.304 73.8408C319.387 70.9389 320.402 78.57 320.402 78.57C320.402 78.57 326.531 73.1663 328.002 78.8131C331.047 72.7584 334.359 76.6093 334.359 76.6093C334.359 76.6093 338.175 71.1899 342.069 72.9075Z" fill="#131212"/>
<path d="M178.626 74.9529C177.297 75.1176 175.503 76.8744 175.503 76.8744C175.243 77.7293 174.96 79.5096 174.96 79.5096C174.858 79.3527 174.543 78.9214 174.268 78.8116C174.638 79.337 174.496 79.3919 174.496 79.3919C174.496 79.3919 174.386 79.4939 174.071 78.937C174.055 79.2272 174.307 79.6978 174.402 79.8625C173.992 79.8939 173.151 79.7762 172.104 79.7056C172.104 79.7056 170.365 81.5487 169.642 82.6781C170.814 81.9095 171.42 82.6624 171.42 82.6624C171.42 82.6624 172.301 80.8036 173.623 82.6153C173.796 80.7017 176.054 81.8703 176.054 81.8703C176.054 81.8703 175.747 79.1959 177.556 79.8703C176.494 77.9018 178.162 77.7371 178.162 77.7371C178.162 77.7371 177.423 75.6744 178.626 74.9529Z" fill="#131212"/>
<path d="M51.9649 71.4387C50.6352 71.6034 48.8414 73.3602 48.8414 73.3602C48.5818 74.2151 48.2985 75.9954 48.2985 75.9954C48.1963 75.8386 47.8816 75.4072 47.6062 75.2974C47.976 75.8229 47.8344 75.8778 47.8344 75.8778C47.8344 75.8778 47.7242 75.9797 47.4095 75.4229C47.3938 75.7131 47.6455 76.1836 47.7399 76.3483C47.3308 76.3797 46.489 76.2621 45.4426 76.1915C45.4426 76.1915 43.7038 78.0424 42.98 79.1639C44.1523 78.3953 44.7581 79.1482 44.7581 79.1482C44.7581 79.1482 45.6393 77.2895 46.9611 79.1012C47.1341 77.1875 49.3922 78.3561 49.3922 78.3561C49.3922 78.3561 49.0853 75.6817 50.8949 76.3562C49.8328 74.3876 51.5007 74.2229 51.5007 74.2229C51.5007 74.2229 50.7611 72.1603 51.9649 71.4387Z" fill="#131212"/>
<path d="M109.289 57.3685C108.282 56.0666 105.285 55.2745 105.285 55.2745C104.215 55.5412 102.145 56.349 102.145 56.349C102.248 56.1372 102.507 55.5412 102.452 55.1804C102.122 55.8941 101.98 55.7843 101.98 55.7843C101.98 55.7843 101.799 55.7372 102.2 55.0549C101.878 55.2196 101.54 55.7843 101.429 55.9882C101.138 55.5725 100.737 54.6079 100.155 53.4628C100.155 53.4628 97.1022 52.7883 95.45 52.7256C96.9999 53.4863 96.5829 54.6 96.5829 54.6C96.5829 54.6 99.1084 54.3726 98.0148 56.898C100.163 55.8784 100.336 58.9999 100.336 58.9999C100.336 58.9999 102.987 56.9999 103.404 59.3371C104.828 56.9764 106.048 58.6391 106.048 58.6391C106.048 58.6391 107.763 56.5529 109.289 57.3685Z" fill="#131212"/>
<path d="M271.906 113.702C266.894 115.075 261.001 122.815 261.001 122.815C260.49 126.243 260.411 133.207 260.411 133.207C259.923 132.674 258.483 131.192 257.374 130.917C259.073 132.721 258.57 133.003 258.57 133.003C258.57 133.003 258.216 133.458 256.69 131.505C256.792 132.642 258.035 134.289 258.483 134.854C256.926 135.199 253.629 135.207 249.577 135.552C249.577 135.552 243.952 143.607 241.812 148.328C245.887 144.728 248.633 147.262 248.633 147.262C248.633 147.262 250.97 139.654 257.036 145.85C256.627 138.399 265.95 141.623 265.95 141.623C265.95 141.623 263.275 131.544 270.592 133.105C265.399 126.164 271.717 124.604 271.717 124.604C271.717 124.604 267.696 117.153 271.906 113.702Z" fill="#131212"/>
<path d="M316.469 273.384C307.381 269.126 288.987 273.133 288.987 273.133C283.92 277.533 275.037 287.651 275.037 287.651C274.99 286.254 274.738 282.286 273.456 280.49C273.676 285.266 272.583 285.047 272.583 285.047C272.583 285.047 271.489 285.274 271.709 280.49C270.435 282.286 270.183 286.254 270.128 287.651C267.406 286.215 262.551 282.098 256.179 277.533C256.179 277.533 237.784 282.325 228.697 286.584C239.216 286.396 240.05 293.548 240.05 293.548C240.05 293.548 253.063 285.306 254.172 301.987C262.945 290.545 272.583 306.928 272.583 306.928C272.583 306.928 281.332 288.78 290.112 300.223C291.221 283.533 302.464 289.141 302.464 289.141C302.464 289.141 305.957 273.196 316.469 273.384Z" fill="#131212"/>
<path d="M229.238 240.874C221.567 239.156 208.176 245.336 208.176 245.336C205.053 249.563 199.978 258.802 199.978 258.802C199.703 257.744 198.837 254.748 197.547 253.595C198.53 257.21 197.657 257.226 197.657 257.226C197.657 257.226 196.855 257.587 196.217 253.885C195.549 255.477 196.029 258.551 196.225 259.634C193.896 258.991 189.483 256.669 183.834 254.253C183.834 254.253 170.577 261.03 164.353 265.829C172.363 263.908 174.219 269.241 174.219 269.241C174.219 269.241 182.772 260.732 186.461 273.312C191.229 263.077 201.386 273.978 201.386 273.978C201.386 273.978 204.99 258.614 213.652 265.884C211.662 252.928 221.213 255.312 221.213 255.312C221.213 255.312 221.158 242.513 229.238 240.874Z" fill="#131212"/>
<path d="M320.41 125.174C317.286 125.142 313.274 126.844 313.274 126.844C312.062 128.962 311.228 130.758 310.646 131.511C310.449 131.118 309.859 130.028 309.269 129.691C309.953 131.016 309.615 131.095 309.615 131.095C309.615 131.095 309.332 131.299 308.773 129.918C308.647 130.593 309.088 131.746 309.261 132.154C308.301 132.099 306.389 131.565 303.998 131.095C303.998 131.095 300.095 133.016 298.073 135.401C301.024 133.989 300.906 137.699 300.906 137.699C300.906 137.699 303.053 134.648 305.54 139.228C306.531 134.852 312.471 137.299 312.471 137.299C312.471 137.299 314.485 131.213 318.458 133.314C316.594 128.444 320.315 128.813 320.315 128.813C320.315 128.813 317.412 126.483 320.41 125.174Z" fill="#131212"/>
<path d="M338.867 168.413C334.115 163.825 325.492 160.594 325.492 160.594C320.543 162.084 316.633 163.605 314.627 163.927C314.894 163.041 315.594 160.515 315.177 159.127C314.288 162.154 313.659 161.778 313.659 161.778C313.659 161.778 312.927 161.684 314.092 158.751C312.912 159.598 311.904 162.013 311.574 162.876C310.189 161.401 308.041 157.802 305.052 153.598C305.052 153.598 296.256 150.861 289.678 151.574C296.271 153.7 290.646 159.213 290.646 159.213C290.646 159.213 298.404 157.653 295.508 168.295C303.431 163.033 308.954 175.417 308.954 175.417C308.954 175.417 320.944 169.025 323.958 178.028C328.23 167.864 333.391 173.84 333.391 173.84C333.391 173.84 332.353 166.052 338.867 168.413Z" fill="#131212"/>
<path d="M246.445 332.658C241.937 325.826 232.37 319.599 232.37 319.599C225.973 320.07 220.828 320.862 218.318 320.705C218.885 319.709 220.411 316.839 220.285 315.043C218.397 318.47 217.728 317.842 217.728 317.842C217.728 317.842 216.87 317.537 219.073 314.297C217.413 315.003 215.541 317.662 214.904 318.611C213.621 316.454 212 311.521 209.522 305.623C209.522 305.623 199.617 299.945 191.466 299.043C198.869 303.388 190.577 308.549 190.577 308.549C190.577 308.549 200.388 308.745 194.007 320.846C205.022 316.611 208.358 333.081 208.358 333.081C208.358 333.081 224.597 328.564 225.808 340.273C233.731 329.12 238.357 337.74 238.357 337.74C238.357 337.74 239.199 328.054 246.445 332.658Z" fill="#131212"/>
<path d="M234.376 185.924C226.603 185.297 214.314 193.21 214.314 193.21C211.835 197.791 208.137 207.563 208.137 207.563C207.72 206.559 206.454 203.743 205.03 202.779C206.501 206.198 205.643 206.331 205.643 206.331C205.643 206.331 204.912 206.794 203.763 203.257C203.322 204.912 204.227 207.869 204.573 208.896C202.205 208.59 197.54 206.92 191.655 205.328C191.655 205.328 179.578 213.813 174.133 219.382C181.733 216.386 184.298 221.366 184.298 221.366C184.298 221.366 191.513 211.829 196.879 223.672C200.136 212.959 211.623 222.268 211.623 222.268C211.623 222.268 213.031 206.684 222.543 212.629C218.782 200.183 228.499 201.21 228.499 201.21C228.499 201.21 226.674 188.646 234.376 185.924Z" fill="#131212"/>
<path d="M303.698 233.954C295.948 233.821 285.98 237.954 285.98 237.954C282.943 243.178 280.827 247.609 279.363 249.475C278.883 248.503 277.451 245.789 275.98 244.926C277.656 248.22 276.814 248.409 276.814 248.409C276.814 248.409 276.114 248.911 274.753 245.475C274.422 247.138 275.5 250.016 275.909 251.02C273.541 250.864 268.813 249.499 262.873 248.291C262.873 248.291 253.156 252.973 248.105 258.84C255.453 255.397 255.076 264.596 255.076 264.596C255.076 264.596 260.457 257.075 266.531 268.479C269.08 257.655 283.753 263.836 283.753 263.836C283.753 263.836 288.867 248.801 298.678 254.087C294.162 241.985 303.375 242.974 303.375 242.974C303.375 242.974 296.232 237.139 303.698 233.954Z" fill="#131212"/>
<path d="M375.167 227.097C368.747 220.886 357.079 216.525 357.079 216.525C350.384 218.541 345.096 220.603 342.382 221.027C342.744 219.835 343.688 216.415 343.13 214.533C341.934 218.627 341.076 218.125 341.076 218.125C341.076 218.125 340.085 218 341.666 214.031C340.069 215.176 338.708 218.447 338.259 219.615C336.387 217.615 333.484 212.753 329.44 207.067C329.44 207.067 317.544 203.365 308.653 204.337C317.567 207.216 309.967 214.666 309.967 214.666C309.967 214.666 320.455 212.557 316.545 226.948C327.26 219.835 334.735 236.579 334.735 236.579C334.735 236.579 350.95 227.936 355.025 240.109C360.8 226.36 367.779 234.446 367.779 234.446C367.779 234.446 366.355 223.905 375.167 227.097Z" fill="#131212"/>
<path d="M189.845 165.048C184.928 160.287 175.982 156.946 175.982 156.946C170.852 158.491 166.8 160.067 164.723 160.397C164.999 159.479 165.723 156.86 165.298 155.424C164.377 158.562 163.724 158.177 163.724 158.177C163.724 158.177 162.969 158.083 164.173 155.04C162.945 155.919 161.907 158.42 161.561 159.314C160.121 157.785 157.902 154.052 154.802 149.699C154.802 149.699 145.684 146.86 138.87 147.605C145.707 149.809 139.877 155.519 139.877 155.519C139.877 155.519 147.918 153.903 144.92 164.93C153.134 159.479 158.862 172.31 158.862 172.31C158.862 172.31 171.285 165.683 174.408 175.016C178.838 164.483 184.18 170.679 184.18 170.679C184.18 170.679 183.087 162.601 189.845 165.048Z" fill="#131212"/>
<path d="M94.5126 100.999C91.2711 99.6655 86.3853 99.7674 86.3853 99.7674C84.2374 101.469 82.6167 102.991 81.6883 103.54C81.6489 103.054 81.4916 101.673 81.0117 101.069C81.169 102.732 80.7835 102.677 80.7835 102.677C80.7835 102.677 80.4058 102.771 80.398 101.101C79.981 101.752 79.9653 103.14 79.9731 103.626C78.9975 103.171 77.2352 101.822 74.9299 100.332C74.9299 100.332 70.0598 100.709 66.96 102.348C70.6263 102.105 68.9426 105.916 68.9426 105.916C68.9426 105.916 72.4516 103.626 73.1282 109.438C75.9921 105.289 81.1611 110.308 81.1611 110.308C81.1611 110.308 85.8031 104.81 89.0682 108.653C89.1704 102.81 92.8918 104.74 92.8918 104.74C92.8918 104.74 90.8384 101.116 94.5126 100.999Z" fill="#131212"/>
<path d="M295.902 237.723C290.772 229.951 279.883 222.868 279.883 222.868C272.605 223.402 266.752 224.312 263.896 224.131C264.541 222.994 266.272 219.731 266.138 217.692C263.982 221.59 263.227 220.884 263.227 220.884C263.227 220.884 262.251 220.531 264.753 216.853C262.865 217.653 260.733 220.68 260.009 221.763C258.554 219.308 256.705 213.692 253.88 206.987C253.88 206.987 242.606 200.524 233.33 199.505C241.756 204.453 232.315 210.32 232.315 210.32C232.315 210.32 243.479 210.547 236.217 224.312C248.751 219.488 252.543 238.233 252.543 238.233C252.543 238.233 271.024 233.096 272.401 246.421C281.409 233.731 286.681 243.542 286.681 243.542C286.681 243.542 287.656 232.484 295.902 237.723Z" fill="#131212"/>
<path d="M300.008 331.582C294.879 323.81 283.99 316.728 283.99 316.728C276.712 317.261 270.858 318.171 268.003 317.991C268.648 316.854 270.379 313.591 270.245 311.552C268.089 315.45 267.334 314.744 267.334 314.744C267.334 314.744 266.358 314.391 268.86 310.713C266.972 311.513 264.84 314.54 264.116 315.622C262.66 313.167 260.811 307.552 257.987 300.846C257.987 300.846 246.713 294.384 237.437 293.364C245.863 298.313 236.422 304.18 236.422 304.18C236.422 304.18 247.586 304.407 240.324 318.171C252.857 313.348 256.649 332.092 256.649 332.092C256.649 332.092 275.131 326.955 276.507 340.28C285.516 327.59 290.787 337.402 290.787 337.402C290.787 337.402 291.763 326.343 300.008 331.582Z" fill="#131212"/>
<path d="M338.869 184.363C330.427 180.402 313.322 184.136 313.322 184.136C308.618 188.23 300.349 197.633 300.349 197.633C300.301 196.331 300.065 192.645 298.877 190.975C299.082 195.421 298.067 195.21 298.067 195.21C298.067 195.21 297.052 195.421 297.257 190.975C296.069 192.645 295.833 196.331 295.785 197.633C293.26 196.292 288.736 192.472 282.812 188.23C282.812 188.23 265.707 192.684 257.265 196.645C267.045 196.472 267.816 203.123 267.816 203.123C267.816 203.123 279.916 195.453 280.947 210.974C289.106 200.331 298.059 215.57 298.059 215.57C298.059 215.57 306.194 198.7 314.353 209.342C315.384 193.829 325.84 199.037 325.84 199.037C325.84 199.037 329.089 184.19 338.869 184.363Z" fill="#131212"/>
<path d="M297.317 298.935C291.565 296.237 279.921 298.778 279.921 298.778C276.719 301.562 271.086 307.97 271.086 307.97C271.054 307.083 270.897 304.574 270.087 303.437C270.228 306.464 269.536 306.323 269.536 306.323C269.536 306.323 268.844 306.464 268.985 303.437C268.175 304.574 268.017 307.083 267.986 307.97C266.263 307.06 263.187 304.456 259.151 301.562C259.151 301.562 247.506 304.597 241.755 307.295C248.411 307.178 248.938 311.703 248.938 311.703C248.938 311.703 257.176 306.48 257.876 317.044C263.431 309.797 269.528 320.173 269.528 320.173C269.528 320.173 275.067 308.683 280.621 315.93C281.322 305.366 288.442 308.911 288.442 308.911C288.442 308.911 290.661 298.817 297.317 298.935Z" fill="#131212"/>
<path d="M252.747 300.428C246.139 297.33 232.748 300.248 232.748 300.248C229.058 303.448 222.591 310.82 222.591 310.82C222.551 309.8 222.37 306.914 221.442 305.604C221.607 309.087 220.805 308.922 220.805 308.922C220.805 308.922 220.01 309.087 220.167 305.604C219.239 306.914 219.05 309.8 219.019 310.82C217.036 309.777 213.503 306.781 208.861 303.456C208.861 303.456 195.471 306.946 188.862 310.043C196.517 309.91 197.123 315.118 197.123 315.118C197.123 315.118 206.596 309.118 207.398 321.267C213.787 312.937 220.797 324.866 220.797 324.866C220.797 324.866 227.17 311.659 233.558 319.988C234.361 307.84 242.551 311.918 242.551 311.918C242.551 311.918 245.092 300.295 252.747 300.428Z" fill="#131212"/>
<path d="M273.211 294.045C266.57 289.159 251.095 289.441 251.095 289.441C246.303 292.178 237.507 298.915 237.507 298.915C237.696 297.778 238.129 294.539 237.389 292.884C236.799 296.774 235.949 296.421 235.949 296.421C235.949 296.421 235.029 296.429 235.981 292.609C234.659 293.849 233.817 297.009 233.55 298.131C231.591 296.539 228.333 292.445 223.935 287.739C223.935 287.739 208.334 288.657 200.317 290.633C208.829 292.17 208.35 298.068 208.35 298.068C208.35 298.068 220.175 293.503 218.373 307.134C227.295 299.315 232.417 314.067 232.417 314.067C232.417 314.067 242.401 300.837 247.625 311.471C251.213 298.194 259.371 304.515 259.371 304.515C259.371 304.515 264.761 292.209 273.211 294.045Z" fill="#131212"/>
<path d="M219.743 308.141C213.102 303.255 197.626 303.538 197.626 303.538C192.835 306.275 184.039 313.012 184.039 313.012C184.228 311.875 184.66 308.635 183.921 306.981C183.331 310.871 182.481 310.518 182.481 310.518C182.481 310.518 181.561 310.526 182.513 306.706C181.191 307.945 180.349 311.106 180.081 312.227C178.122 310.635 174.865 306.541 170.467 301.836C170.467 301.836 154.866 302.753 146.848 304.73C155.361 306.267 154.881 312.165 154.881 312.165C154.881 312.165 166.706 307.6 164.905 321.231C173.827 313.412 178.949 328.164 178.949 328.164C178.949 328.164 188.933 314.933 194.157 325.568C197.744 312.29 205.903 318.612 205.903 318.612C205.903 318.612 211.293 306.306 219.743 308.141Z" fill="#131212"/>
<path d="M213.975 302.874C204.888 298.615 186.493 302.623 186.493 302.623C181.427 307.023 172.544 317.14 172.544 317.14C172.497 315.744 172.245 311.775 170.963 309.979C171.183 314.764 170.089 314.536 170.089 314.536C170.089 314.536 168.996 314.764 169.216 309.979C167.941 311.775 167.69 315.744 167.635 317.14C164.912 315.705 160.058 311.587 153.685 307.023C153.685 307.023 135.291 311.815 126.203 316.073C136.722 315.885 137.556 323.038 137.556 323.038C137.556 323.038 150.57 314.795 151.679 331.477C160.451 320.034 170.089 336.418 170.089 336.418C170.089 336.418 178.838 318.269 187.619 329.712C188.728 313.022 199.971 318.63 199.971 318.63C199.971 318.63 203.456 302.686 213.975 302.874Z" fill="#131212"/>
<path d="M159.649 300.578C149.453 295.802 128.808 300.303 128.808 300.303C123.128 305.244 113.151 316.601 113.151 316.601C113.096 315.032 112.813 310.578 111.381 308.562C111.633 313.926 110.405 313.676 110.405 313.676C110.405 313.676 109.178 313.926 109.43 308.562C107.998 310.578 107.715 315.032 107.66 316.601C104.607 314.985 99.1547 310.374 92.003 305.244C92.003 305.244 71.3581 310.625 61.1616 315.401C72.9631 315.189 73.8994 323.22 73.8994 323.22C73.8994 323.22 88.5018 313.966 89.7449 332.694C99.5952 319.848 110.405 338.239 110.405 338.239C110.405 338.239 120.224 317.871 130.075 330.718C131.318 311.989 143.938 318.279 143.938 318.279C143.938 318.279 147.84 300.374 159.649 300.578Z" fill="#131212"/>
<path d="M349.584 332.658C345.075 325.826 335.508 319.599 335.508 319.599C329.112 320.07 323.966 320.862 321.457 320.705C322.023 319.709 323.549 316.839 323.423 315.043C321.535 318.47 320.866 317.842 320.866 317.842C320.866 317.842 320.009 317.537 322.212 314.297C320.552 315.003 318.679 317.662 318.042 318.611C316.767 316.454 315.139 311.521 312.66 305.623C312.66 305.623 302.755 299.945 294.604 299.043C302.008 303.388 293.715 308.549 293.715 308.549C293.715 308.549 303.526 308.745 297.145 320.846C308.16 316.611 311.496 333.081 311.496 333.081C311.496 333.081 327.735 328.564 328.947 340.273C336.869 329.12 341.496 337.74 341.496 337.74C341.496 337.74 342.337 328.054 349.584 332.658Z" fill="#131212"/>
<path d="M269.757 180.74C266.933 179.415 261.221 180.662 261.221 180.662C259.647 182.026 256.886 185.171 256.886 185.171C256.87 184.74 256.791 183.501 256.398 182.944C256.469 184.426 256.13 184.356 256.13 184.356C256.13 184.356 255.792 184.426 255.863 182.944C255.469 183.501 255.391 184.732 255.375 185.171C254.533 184.724 253.022 183.446 251.04 182.026C251.04 182.026 245.328 183.516 242.503 184.834C245.769 184.779 246.028 186.999 246.028 186.999C246.028 186.999 250.072 184.434 250.41 189.618C253.133 186.065 256.13 191.155 256.13 191.155C256.13 191.155 258.845 185.516 261.575 189.077C261.921 183.893 265.414 185.634 265.414 185.634C265.414 185.634 266.492 180.685 269.757 180.74Z" fill="#131212"/>
<path d="M275.587 98.5783C273.211 97.4803 268.411 98.5469 268.411 98.5469C267.097 99.6998 264.784 102.351 264.784 102.351C264.769 101.982 264.698 100.947 264.359 100.484C264.422 101.731 264.139 101.676 264.139 101.676C264.139 101.676 263.856 101.739 263.903 100.492C263.573 100.963 263.51 101.998 263.502 102.366C262.794 101.998 261.519 100.931 259.851 99.739C259.851 99.739 255.052 101.01 252.692 102.139C255.437 102.076 255.666 103.943 255.666 103.943C255.666 103.943 259.049 101.778 259.363 106.131C261.637 103.135 264.178 107.401 264.178 107.401C264.178 107.401 266.437 102.657 268.742 105.629C269.009 101.268 271.952 102.719 271.952 102.719C271.952 102.719 272.841 98.5469 275.587 98.5783Z" fill="#131212"/>
<path d="M392.383 299.907C383.296 295.649 364.902 299.656 364.902 299.656C359.835 304.056 350.952 314.174 350.952 314.174C350.905 312.778 350.653 308.809 349.371 307.013C349.591 311.789 348.497 311.57 348.497 311.57C348.497 311.57 347.404 311.797 347.624 307.013C346.35 308.809 346.098 312.778 346.043 314.174C343.321 312.738 338.466 308.621 332.093 304.056C332.093 304.056 313.699 308.848 304.612 313.107C315.131 312.919 315.965 320.071 315.965 320.071C315.965 320.071 328.978 311.829 330.087 328.51C338.86 317.068 348.497 333.451 348.497 333.451C348.497 333.451 357.246 315.303 366.027 326.746C367.136 310.056 378.379 315.664 378.379 315.664C378.379 315.664 381.864 299.727 392.383 299.907Z" fill="#131212"/>
<path d="M326.475 259.221C319.371 259.096 310.228 262.884 310.228 262.884C307.443 267.676 305.5 271.731 304.162 273.448C303.722 272.562 302.408 270.068 301.063 269.284C302.597 272.303 301.826 272.476 301.826 272.476C301.826 272.476 301.181 272.938 299.938 269.786C299.631 271.315 300.622 273.95 301 274.868C298.828 274.727 294.493 273.472 289.049 272.366C289.049 272.366 280.134 276.664 275.508 282.036C282.243 278.875 281.897 287.314 281.897 287.314C281.897 287.314 286.83 280.413 292.4 290.875C294.737 280.946 308.191 286.616 308.191 286.616C308.191 286.616 312.88 272.829 321.873 277.683C317.734 266.586 326.184 267.496 326.184 267.496C326.184 267.496 319.63 262.139 326.475 259.221Z" fill="#131212"/>
<path d="M370.353 268.621C361.266 264.362 342.872 268.37 342.872 268.37C337.805 272.77 328.922 282.887 328.922 282.887C328.875 281.491 328.623 277.523 327.341 275.727C327.561 280.511 326.467 280.283 326.467 280.283C326.467 280.283 325.374 280.511 325.594 275.727C324.32 277.523 324.068 281.491 324.013 282.887C321.291 281.452 316.436 277.334 310.063 272.77C310.063 272.77 291.669 277.562 282.582 281.82C293.101 281.632 293.935 288.785 293.935 288.785C293.935 288.785 306.948 280.542 308.057 297.224C316.83 285.781 326.467 302.165 326.467 302.165C326.467 302.165 335.216 284.016 343.997 295.459C345.106 278.77 356.349 284.377 356.349 284.377C356.349 284.377 359.842 268.433 370.353 268.621Z" fill="#131212"/>
</g>
<defs>
<clipPath id="clip0_1_28934">
<rect width="320" height="307" fill="white"/>
</clipPath>
</defs>
</svg>
