<svg width="376" height="359" viewBox="0 0 376 359" fill="none" xmlns="http://www.w3.org/2000/svg">
<g opacity="0.8" clip-path="url(#clip0_1_24482)">
<path d="M30.9768 336.907C30.9768 336.907 30.9768 336.861 30.9768 336.797C30.9675 336.871 30.9768 336.907 30.9768 336.907Z" fill="#131212"/>
<path d="M52.1928 291.094C31.7614 301.769 31.743 320.442 31.743 320.442C31.743 320.442 31.7154 315.077 29.8806 312.509C30.1387 318.103 28.8572 320.414 28.8572 320.414C28.8572 320.414 27.5756 318.103 27.8338 312.509C25.999 315.077 25.9713 320.442 25.9713 320.442C25.9713 320.442 25.9529 301.778 5.52148 291.094C19.7847 303.273 8.69315 307.767 8.69315 307.767C8.69315 307.767 17.5719 312.261 14.3081 320.992C26.3032 326.963 26.7274 335.703 26.7366 336.794C26.755 336.308 26.9394 334.327 28.8572 332.961C30.7749 334.327 30.9593 336.299 30.9778 336.794C30.987 335.703 31.4111 326.963 43.4062 320.992C40.1424 312.261 49.0212 307.767 49.0212 307.767C49.0212 307.767 37.9296 303.273 52.1928 291.094Z" fill="#131212"/>
<path d="M164.141 288.618C164.141 288.618 164.141 288.572 164.141 288.508C164.132 288.582 164.141 288.618 164.141 288.618Z" fill="#131212"/>
<path d="M185.357 242.805C164.926 253.48 164.907 272.153 164.907 272.153C164.907 272.153 164.879 266.788 163.045 264.22C163.303 269.805 162.021 272.125 162.021 272.125C162.021 272.125 160.74 269.814 160.998 264.22C159.163 266.788 159.135 272.153 159.135 272.153C159.135 272.153 159.117 253.489 138.686 242.805C152.949 254.984 141.857 259.478 141.857 259.478C141.857 259.478 150.736 263.972 147.472 272.703C159.467 278.674 159.891 287.414 159.901 288.505C159.919 288.019 160.104 286.038 162.021 284.672C163.939 286.038 164.123 288.01 164.142 288.505C164.151 287.414 164.575 278.674 176.57 272.703C173.306 263.972 182.185 259.478 182.185 259.478C182.185 259.478 171.094 254.975 185.357 242.805Z" fill="#131212"/>
<path d="M80.0078 283.929C80.0078 283.929 80.017 283.893 80.0355 283.828C80.017 283.893 80.0078 283.929 80.0078 283.929Z" fill="#131212"/>
<path d="M112.039 248.669C90.6489 252.549 85.3567 269.332 85.3567 269.332C85.3567 269.332 86.8411 264.508 85.9191 261.674C84.573 266.773 82.7659 268.488 82.7659 268.488C82.7659 268.488 82.268 266.049 84.0843 261.096C81.7056 262.894 80.1659 267.709 80.1659 267.709C80.1659 267.709 85.4304 250.925 70.0792 235.609C79.4559 250.549 68.2168 251.485 68.2168 251.485C68.2168 251.485 74.9289 258.015 69.526 264.948C78.6169 273.679 76.5332 281.649 76.2289 282.63C76.3857 282.19 77.1048 280.466 79.2162 279.778C80.5531 281.539 80.1566 283.373 80.0368 283.814C80.3502 282.832 83.2084 275.101 95.6738 273.083C95.2128 264.325 104.46 262.766 104.46 262.766C104.46 262.766 95.7752 255.621 112.039 248.669Z" fill="#131212"/>
<path d="M76.2012 282.742C76.2012 282.742 76.2104 282.705 76.2381 282.641C76.2104 282.705 76.2012 282.742 76.2012 282.742Z" fill="#131212"/>
<path d="M219.351 281.109C198.92 291.785 198.901 310.457 198.901 310.457C198.901 310.457 198.874 305.092 197.039 302.524C197.297 308.11 196.015 310.43 196.015 310.43C196.015 310.43 194.734 308.119 194.992 302.524C193.157 305.092 193.13 310.457 193.13 310.457C193.13 310.457 193.111 291.794 172.68 281.109C186.943 293.289 175.851 297.783 175.851 297.783C175.851 297.783 184.73 302.277 181.466 311.008C193.461 316.978 193.886 325.718 193.895 326.81C193.913 326.324 194.098 324.343 196.015 322.976C197.933 324.343 198.117 326.315 198.136 326.81C198.145 325.718 198.569 316.978 210.564 311.008C207.301 302.277 216.179 297.783 216.179 297.783C216.179 297.783 205.088 293.28 219.351 281.109Z" fill="#131212"/>
<path d="M114.623 328.623C114.623 328.623 114.632 328.596 114.651 328.531C114.632 328.587 114.623 328.623 114.623 328.623Z" fill="#131212"/>
<path d="M142.301 298.171C123.824 301.528 119.251 316.019 119.251 316.019C119.251 316.019 120.533 311.846 119.74 309.406C118.578 313.808 117.02 315.294 117.02 315.294C117.02 315.294 116.587 313.185 118.154 308.911C116.098 310.461 114.77 314.625 114.77 314.625C114.77 314.625 119.316 300.125 106.057 286.891C114.162 299.795 104.453 300.611 104.453 300.611C104.453 300.611 110.252 306.251 105.587 312.24C113.443 319.779 111.645 326.666 111.377 327.519C111.506 327.143 112.133 325.648 113.959 325.052C115.111 326.575 114.779 328.152 114.669 328.537C114.936 327.694 117.407 321.008 128.185 319.265C127.78 311.699 135.782 310.351 135.782 310.351C135.782 310.351 128.25 304.178 142.301 298.171Z" fill="#131212"/>
<path d="M111.34 327.6C111.34 327.6 111.349 327.572 111.368 327.508C111.349 327.572 111.34 327.6 111.34 327.6Z" fill="#131212"/>
<path d="M139.819 168.883C139.819 168.883 139.819 168.846 139.819 168.781C139.809 168.855 139.819 168.883 139.819 168.883Z" fill="#131212"/>
<path d="M157.696 128.742C140.049 138.299 140.27 154.541 140.27 154.541C140.27 154.541 140.178 149.873 138.546 147.663C138.841 152.523 137.762 154.55 137.762 154.55C137.762 154.55 136.619 152.551 136.776 147.69C135.208 149.955 135.255 154.614 135.255 154.614C135.255 154.614 135.006 138.363 117.082 129.329C129.649 139.748 120.06 143.801 120.06 143.801C120.06 143.801 127.851 147.598 125.122 155.247C135.642 160.291 136.121 167.894 136.14 168.848C136.149 168.417 136.278 166.702 137.928 165.491C139.616 166.656 139.8 168.371 139.818 168.802C139.809 167.848 140.067 160.246 150.431 154.889C147.48 147.332 155.151 143.306 155.151 143.306C155.151 143.306 145.433 139.518 157.696 128.742Z" fill="#131212"/>
<path d="M136.131 168.937C136.131 168.937 136.131 168.9 136.131 168.836C136.122 168.9 136.131 168.937 136.131 168.937Z" fill="#131212"/>
<path d="M10.1061 246.797C-8.89621 256.72 -8.90543 274.082 -8.90543 274.082C-8.90543 274.082 -8.93309 269.102 -10.6388 266.708C-10.3991 271.908 -11.5884 274.054 -11.5884 274.054C-11.5884 274.054 -12.7778 271.908 -12.5381 266.708C-14.2438 269.102 -14.2714 274.082 -14.2714 274.082C-14.2714 274.082 -14.2807 256.729 -33.283 246.797C-20.0247 258.124 -30.3326 262.296 -30.3326 262.296C-30.3326 262.296 -22.0807 266.479 -25.1049 274.595C-13.9579 280.153 -13.5615 288.269 -13.5523 289.287C-13.5338 288.829 -13.3679 286.995 -11.5884 285.729C-9.80898 286.995 -9.6338 288.838 -9.62458 289.287C-9.61536 288.269 -9.2189 280.153 1.92801 274.595C-1.10535 266.479 7.15573 262.296 7.15573 262.296C7.15573 262.296 -3.15219 258.114 10.1061 246.797Z" fill="#131212"/>
<path d="M47.417 152.891C47.417 152.891 47.3986 152.873 47.3708 152.836C47.4078 152.873 47.417 152.891 47.417 152.891Z" fill="#131212"/>
<path d="M40.8069 122.844C34.814 135.509 41.7013 144.598 41.7013 144.598C41.7013 144.598 39.7098 142.003 37.8658 141.425C40.0601 144.048 40.2906 145.644 40.2906 145.644C40.2906 145.644 38.8154 144.992 36.87 142.177C36.9253 144.103 38.8984 146.717 38.8984 146.717C38.8984 146.717 31.9927 137.637 18.1074 139.921C29.5494 140.627 25.8153 146.872 25.8153 146.872C25.8153 146.872 31.799 145.809 33.4402 151.256C41.48 149.78 44.919 153.87 45.3247 154.402C45.1495 154.154 44.5133 153.127 44.9375 151.761C46.3758 151.724 47.1963 152.614 47.3807 152.852C46.9843 152.32 43.9601 147.909 47.5836 140.618C42.7708 137.564 45.4261 132.125 45.4261 132.125C45.4261 132.125 38.3729 133.978 40.8069 122.844Z" fill="#131212"/>
<path d="M45.3607 154.438C45.3607 154.438 45.3422 154.42 45.3145 154.383C45.3422 154.42 45.3607 154.438 45.3607 154.438Z" fill="#131212"/>
<path d="M188.398 147.046C188.398 147.046 188.408 147.028 188.417 147C188.398 147.028 188.398 147.046 188.398 147.046Z" fill="#131212"/>
<path d="M203.105 132.307C193.692 133.564 191.036 140.782 191.036 140.782C191.036 140.782 191.783 138.709 191.442 137.453C190.75 139.654 189.93 140.36 189.93 140.36C189.93 140.36 189.764 139.287 190.658 137.159C189.58 137.893 188.814 139.965 188.814 139.965C188.814 139.965 191.46 132.748 185.071 125.75C188.851 132.463 183.928 132.638 183.928 132.638C183.928 132.638 186.721 135.627 184.223 138.544C188.012 142.543 186.933 145.973 186.786 146.404C186.86 146.22 187.21 145.477 188.15 145.221C188.694 146.019 188.492 146.807 188.427 147C188.584 146.578 189.994 143.258 195.471 142.634C195.453 138.801 199.519 138.305 199.519 138.305C199.519 138.305 195.858 135.013 203.105 132.307Z" fill="#131212"/>
<path d="M186.758 146.453C186.758 146.453 186.767 146.434 186.776 146.406C186.767 146.434 186.758 146.453 186.758 146.453Z" fill="#131212"/>
<path d="M144.043 96.4609C134.215 101.973 134.482 111.089 134.482 111.089C134.482 111.089 134.39 108.466 133.459 107.237C133.671 109.961 133.071 111.117 133.071 111.117C133.071 111.117 132.408 110.007 132.454 107.274C131.596 108.558 131.661 111.172 131.661 111.172C131.661 111.172 131.384 102.055 121.242 97.1304C128.388 102.872 123.031 105.229 123.031 105.229C123.031 105.229 127.438 107.301 125.972 111.612C131.919 114.354 132.251 118.619 132.269 119.151C132.269 118.912 132.334 117.94 133.247 117.252C134.205 117.894 134.325 118.857 134.335 119.096C134.325 118.564 134.399 114.29 140.18 111.199C138.456 106.98 142.734 104.66 142.734 104.66C142.734 104.66 137.248 102.615 144.043 96.4609Z" fill="#131212"/>
<path d="M52.812 248.548C52.812 248.548 52.812 248.511 52.8027 248.438C52.8027 248.502 52.812 248.548 52.812 248.548Z" fill="#131212"/>
<path d="M70.6529 204.461C51.9179 215.448 52.7662 233.011 52.7662 233.011C52.7662 233.011 52.4896 227.967 50.6456 225.637C51.1527 230.883 50.0555 233.121 50.0555 233.121C50.0555 233.121 48.7463 231.003 48.7278 225.729C47.1236 228.233 47.3356 233.277 47.3356 233.277C47.3356 233.277 46.4597 215.714 26.7383 206.607C40.7249 217.411 30.5 222.152 30.5 222.152C30.5 222.152 39.0654 225.977 36.4008 234.341C47.9626 239.413 48.7647 247.612 48.8293 248.639C48.82 248.18 48.903 246.309 50.6456 244.934C52.508 246.126 52.7754 247.979 52.8123 248.437C52.7662 247.41 52.7662 239.174 63.7748 233.002C60.2989 224.94 68.4493 220.3 68.4493 220.3C68.4493 220.3 57.8003 216.576 70.6529 204.461Z" fill="#131212"/>
<path d="M48.8303 248.736C48.8303 248.736 48.8303 248.699 48.8303 248.625C48.8211 248.69 48.8303 248.736 48.8303 248.736Z" fill="#131212"/>
<path d="M134.472 323.172C114.041 333.847 114.022 352.52 114.022 352.52C114.022 352.52 113.995 347.155 112.16 344.587C112.418 350.181 111.136 352.492 111.136 352.492C111.136 352.492 109.855 350.181 110.113 344.587C108.278 347.155 108.251 352.52 108.251 352.52C108.251 352.52 108.232 333.856 87.8008 323.172C102.064 335.351 90.9724 339.845 90.9724 339.845C90.9724 339.845 99.8512 344.339 96.5874 353.07C108.583 359.041 109.007 367.781 109.016 368.872C109.034 368.386 109.219 366.405 111.136 365.039C113.054 366.405 113.239 368.377 113.257 368.872C113.266 367.781 113.69 359.041 125.686 353.07C122.422 344.339 131.3 339.845 131.3 339.845C131.3 339.845 120.209 335.351 134.472 323.172Z" fill="#131212"/>
<path d="M6.00165 346.25C-18.339 358.961 -18.3482 381.202 -18.3482 381.202C-18.3482 381.202 -18.3851 374.819 -20.5702 371.755C-20.2568 378.414 -21.7873 381.165 -21.7873 381.165C-21.7873 381.165 -23.3178 378.414 -23.0043 371.755C-25.1894 374.819 -25.2263 381.202 -25.2263 381.202C-25.2263 381.202 -25.2447 358.971 -49.5762 346.25C-32.593 360.75 -45.796 366.106 -45.796 366.106C-45.796 366.106 -35.2207 371.462 -39.1023 381.862C-24.8206 388.979 -24.3135 399.379 -24.3043 400.682C-24.2859 400.095 -24.0646 397.747 -21.7873 396.123C-19.5007 397.747 -19.2887 400.104 -19.2702 400.682C-19.261 399.379 -18.7539 388.979 -4.47222 381.862C-8.35382 371.462 2.22147 366.106 2.22147 366.106C2.22147 366.106 -10.9815 360.759 6.00165 346.25Z" fill="#131212"/>
<path d="M182.646 309.133C162.215 319.808 162.196 338.481 162.196 338.481C162.196 338.481 162.168 333.116 160.334 330.548C160.592 336.142 159.31 338.453 159.31 338.453C159.31 338.453 158.029 336.142 158.287 330.548C156.452 333.116 156.424 338.481 156.424 338.481C156.424 338.481 156.406 319.817 135.975 309.133C150.238 321.312 139.146 325.806 139.146 325.806C139.146 325.806 148.025 330.3 144.761 339.031C156.756 345.002 157.18 353.742 157.19 354.833C157.208 354.347 157.393 352.366 159.31 351C161.228 352.366 161.412 354.338 161.431 354.833C161.44 353.742 161.864 345.002 173.859 339.031C170.595 330.3 179.474 325.806 179.474 325.806C179.474 325.806 168.383 321.312 182.646 309.133Z" fill="#131212"/>
<path d="M160.748 337.377C143.423 338.936 137.993 351.932 137.993 351.932C137.993 351.932 139.533 348.19 138.998 345.87C137.56 349.841 135.992 351.079 135.992 351.079C135.992 351.079 135.771 349.098 137.578 345.283C135.55 346.548 133.973 350.272 133.973 350.272C133.973 350.272 139.385 337.276 128.257 323.969C134.646 336.543 125.629 336.488 125.629 336.488C125.629 336.488 130.506 342.165 125.703 347.31C132.313 354.913 130.082 361.122 129.769 361.883C129.925 361.543 130.626 360.223 132.35 359.828C133.291 361.323 132.839 362.754 132.71 363.103C133.033 362.341 135.863 356.389 145.95 355.674C146.217 348.658 153.704 348.08 153.704 348.08C153.704 348.08 147.287 341.752 160.748 337.377Z" fill="#131212"/>
<path d="M182.773 354.574C182.773 354.574 182.783 354.547 182.81 354.492C182.783 354.547 182.773 354.574 182.773 354.574Z" fill="#131212"/>
<path d="M210.849 328.776C193.525 330.335 188.094 343.33 188.094 343.33C188.094 343.33 189.634 339.589 189.099 337.268C187.661 341.239 186.094 342.477 186.094 342.477C186.094 342.477 185.872 340.496 187.68 336.681C185.651 337.947 184.075 341.67 184.075 341.67C184.075 341.67 189.487 328.675 178.358 315.367C184.748 327.941 175.73 327.886 175.73 327.886C175.73 327.886 180.608 333.563 175.804 338.708C182.415 346.311 180.184 352.52 179.87 353.281C180.027 352.942 180.728 351.621 182.452 351.227C183.392 352.722 182.94 354.153 182.811 354.501C183.134 353.74 185.965 347.788 196.051 347.072C196.319 340.056 203.805 339.478 203.805 339.478C203.805 339.478 197.379 333.159 210.849 328.776Z" fill="#131212"/>
<path d="M179.824 353.356C179.824 353.356 179.833 353.328 179.861 353.273C179.833 353.328 179.824 353.356 179.824 353.356Z" fill="#131212"/>
<path d="M29.9096 326.766C9.47824 337.441 9.45981 356.114 9.45981 356.114C9.45981 356.114 9.43213 350.749 7.59736 348.181C7.85552 353.775 6.57397 356.086 6.57397 356.086C6.57397 356.086 5.29238 353.775 5.55054 348.181C3.71577 350.749 3.68812 356.114 3.68812 356.114C3.68812 356.114 3.66967 337.45 -16.7617 326.766C-2.49847 338.945 -13.5901 343.439 -13.5901 343.439C-13.5901 343.439 -4.71126 347.933 -7.97512 356.664C4.02003 362.634 4.44414 371.375 4.45336 372.466C4.4718 371.98 4.65622 369.999 6.57397 368.632C8.49171 369.999 8.6761 371.971 8.69454 372.466C8.70376 371.375 9.12789 362.634 21.123 356.664C17.8592 347.933 26.738 343.439 26.738 343.439C26.738 343.439 15.6464 338.945 29.9096 326.766Z" fill="#131212"/>
<path d="M8.01135 353.283C-9.31292 354.843 -14.7435 367.838 -14.7435 367.838C-14.7435 367.838 -13.2037 364.096 -13.7385 361.776C-15.1768 365.747 -16.7442 366.985 -16.7442 366.985C-16.7442 366.985 -16.9655 365.004 -15.1584 361.189C-17.1868 362.455 -18.7634 366.178 -18.7634 366.178C-18.7634 366.178 -13.3513 353.183 -24.4797 339.875C-18.0903 352.449 -27.1074 352.394 -27.1074 352.394C-27.1074 352.394 -22.2301 358.071 -27.0337 363.216C-20.423 370.819 -22.6542 377.028 -22.9677 377.789C-22.8109 377.45 -22.1102 376.129 -20.3861 375.735C-19.4456 377.23 -19.8974 378.66 -20.0265 379.009C-19.7038 378.248 -16.8733 372.295 -6.78666 371.58C-6.51928 364.564 0.967299 363.986 0.967299 363.986C0.967299 363.986 -5.45899 357.667 8.01135 353.283Z" fill="#131212"/>
<path d="M58.1031 349.001C40.7789 350.56 35.3483 363.556 35.3483 363.556C35.3483 363.556 36.888 359.814 36.3533 357.503C34.915 361.474 33.3476 362.712 33.3476 362.712C33.3476 362.712 33.1263 360.731 34.9334 356.916C32.905 358.181 31.3284 361.905 31.3284 361.905C31.3284 361.905 36.7405 348.909 25.6121 335.602C32.0015 348.175 22.9844 348.12 22.9844 348.12C22.9844 348.12 27.8617 353.797 23.0582 358.942C29.6688 366.545 27.4376 372.754 27.1241 373.516C27.2809 373.176 27.9816 371.856 29.7057 371.461C30.6462 372.956 30.1944 374.387 30.0653 374.735C30.388 373.974 33.2185 368.022 43.3051 367.307C43.5725 360.291 51.0591 359.713 51.0591 359.713C51.0591 359.713 44.642 353.385 58.1031 349.001Z" fill="#131212"/>
<path d="M43.6094 349.387C43.6094 349.387 43.6186 349.36 43.6461 349.305C43.6186 349.36 43.6094 349.387 43.6094 349.387Z" fill="#131212"/>
<path d="M71.6754 323.587C54.3511 325.146 48.9206 338.142 48.9206 338.142C48.9206 338.142 50.4603 334.4 49.9256 332.089C48.4872 336.06 46.9198 337.298 46.9198 337.298C46.9198 337.298 46.6986 335.317 48.5057 331.502C46.4773 332.767 44.9007 336.491 44.9007 336.491C44.9007 336.491 50.3128 323.495 39.1843 310.188C45.5737 322.761 36.5566 322.706 36.5566 322.706C36.5566 322.706 41.434 328.383 36.6304 333.528C43.2411 341.131 41.0099 347.34 40.6964 348.102C40.8531 347.762 41.5539 346.442 43.278 346.047C44.2184 347.542 43.7666 348.973 43.6375 349.321C43.9602 348.56 46.7908 342.608 56.8774 341.893C57.1448 334.877 64.6314 334.299 64.6314 334.299C64.6314 334.299 58.2143 327.971 71.6754 323.587Z" fill="#131212"/>
<path d="M40.6602 348.161C40.6602 348.161 40.6693 348.133 40.6968 348.078C40.6693 348.133 40.6602 348.161 40.6602 348.161Z" fill="#131212"/>
<path d="M419.699 291.094C399.267 301.769 399.249 320.442 399.249 320.442C399.249 320.442 399.221 315.077 397.386 312.509C397.645 318.103 396.363 320.414 396.363 320.414C396.363 320.414 395.081 318.103 395.34 312.509C393.505 315.077 393.477 320.442 393.477 320.442C393.477 320.442 393.459 301.778 373.027 291.094C387.291 303.273 376.199 307.767 376.199 307.767C376.199 307.767 385.078 312.261 381.814 320.992C393.809 326.963 394.233 335.703 394.242 336.794C394.261 336.308 394.445 334.327 396.363 332.961C398.281 334.327 398.465 336.299 398.484 336.794C398.493 335.703 398.917 326.963 410.912 320.992C407.648 312.261 416.527 307.767 416.527 307.767C416.527 307.767 405.435 303.273 419.699 291.094Z" fill="#131212"/>
<path d="M266.65 304.805C244.172 316.553 244.153 337.088 244.153 337.088C244.153 337.088 244.116 331.19 242.097 328.357C242.383 334.51 240.972 337.051 240.972 337.051C240.972 337.051 239.562 334.51 239.848 328.357C237.828 331.181 237.792 337.088 237.792 337.088C237.792 337.088 237.773 316.553 215.295 304.805C230.987 318.204 218.789 323.147 218.789 323.147C218.789 323.147 228.562 328.091 224.967 337.702C238.16 344.278 238.631 353.889 238.64 355.091C238.658 354.55 238.861 352.376 240.972 350.881C243.084 352.376 243.287 354.559 243.305 355.091C243.314 353.889 243.785 344.278 256.978 337.702C253.392 328.1 263.156 323.147 263.156 323.147C263.156 323.147 250.958 318.195 266.65 304.805Z" fill="#131212"/>
<path d="M238.649 355.215C238.649 355.215 238.649 355.169 238.649 355.086C238.639 355.169 238.649 355.215 238.649 355.215Z" fill="#131212"/>
<path d="M223.559 311.17C223.559 311.17 223.568 311.143 223.586 311.078C223.568 311.133 223.559 311.17 223.559 311.17Z" fill="#131212"/>
<path d="M251.227 280.703C232.75 284.059 228.177 298.55 228.177 298.55C228.177 298.55 229.468 294.377 228.666 291.937C227.504 296.34 225.946 297.825 225.946 297.825C225.946 297.825 225.512 295.716 227.08 291.442C225.024 292.992 223.696 297.156 223.696 297.156C223.696 297.156 228.241 282.656 214.983 269.422C223.087 282.326 213.379 283.142 213.379 283.142C213.379 283.142 219.178 288.782 214.513 294.771C222.368 302.31 220.57 309.198 220.303 310.051C220.432 309.675 221.059 308.18 222.885 307.584C224.037 309.106 223.705 310.683 223.595 311.069C223.862 310.225 226.333 303.539 237.111 301.796C236.705 294.23 244.708 292.882 244.708 292.882C244.708 292.882 237.176 286.719 251.227 280.703Z" fill="#131212"/>
<path d="M220.266 310.139C220.266 310.139 220.275 310.111 220.293 310.047C220.275 310.102 220.266 310.139 220.266 310.139Z" fill="#131212"/>
<path d="M309.302 294.047C288.871 304.722 288.852 323.395 288.852 323.395C288.852 323.395 288.825 318.03 286.99 315.462C287.248 321.047 285.967 323.367 285.967 323.367C285.967 323.367 284.685 321.056 284.943 315.462C283.108 318.03 283.081 323.395 283.081 323.395C283.081 323.395 283.062 304.731 262.631 294.047C276.894 306.226 265.803 310.72 265.803 310.72C265.803 310.72 274.681 315.214 271.417 323.945C283.413 329.916 283.837 338.656 283.846 339.747C283.864 339.261 284.049 337.28 285.967 335.914C287.884 337.28 288.069 339.252 288.087 339.747C288.096 338.656 288.52 329.916 300.516 323.945C297.252 315.214 306.131 310.72 306.131 310.72C306.131 310.72 295.039 306.226 309.302 294.047Z" fill="#131212"/>
<path d="M299.361 343.562C282.664 352.284 282.655 367.536 282.655 367.536C282.655 367.536 282.627 363.152 281.134 361.052C281.346 365.619 280.304 367.509 280.304 367.509C280.304 367.509 279.253 365.619 279.474 361.052C277.971 363.152 277.953 367.536 277.953 367.536C277.953 367.536 277.943 352.284 261.246 343.562C272.9 353.513 263.837 357.182 263.837 357.182C263.837 357.182 271.093 360.86 268.428 367.986C278.229 372.865 278.58 380.009 278.58 380.899C278.589 380.495 278.746 378.881 280.313 377.771C281.88 378.881 282.028 380.504 282.046 380.899C282.055 380.009 282.397 372.865 292.197 367.986C289.533 360.85 296.789 357.182 296.789 357.182C296.789 357.182 287.717 353.513 299.361 343.562Z" fill="#131212"/>
<path d="M292.16 245.922C272.374 256.258 272.365 274.334 272.365 274.334C272.365 274.334 272.337 269.144 270.558 266.658C270.807 272.069 269.571 274.307 269.571 274.307C269.571 274.307 268.327 272.069 268.585 266.658C266.805 269.144 266.778 274.334 266.778 274.334C266.778 274.334 266.759 256.258 246.982 245.922C260.794 257.716 250.053 262.063 250.053 262.063C250.053 262.063 258.655 266.42 255.492 274.866C267.1 280.653 267.515 289.109 267.524 290.164C267.543 289.687 267.718 287.78 269.571 286.459C271.424 287.78 271.609 289.696 271.618 290.164C271.627 289.109 272.042 280.644 283.65 274.866C280.488 266.41 289.09 262.063 289.09 262.063C289.09 262.063 278.349 257.716 292.16 245.922Z" fill="#131212"/>
<path d="M267.516 290.29C267.516 290.29 267.516 290.253 267.516 290.18C267.507 290.253 267.516 290.29 267.516 290.29Z" fill="#131212"/>
<path d="M357.889 289.392C357.889 289.392 357.889 289.355 357.889 289.281C357.88 289.355 357.889 289.392 357.889 289.392Z" fill="#131212"/>
<path d="M377.612 246.797C358.61 256.72 358.6 274.082 358.6 274.082C358.6 274.082 358.573 269.102 356.867 266.708C357.107 271.908 355.917 274.054 355.917 274.054C355.917 274.054 354.728 271.908 354.968 266.708C353.262 269.102 353.234 274.082 353.234 274.082C353.234 274.082 353.216 256.729 334.223 246.797C347.481 258.124 337.173 262.296 337.173 262.296C337.173 262.296 345.425 266.479 342.401 274.595C353.548 280.153 353.944 288.269 353.954 289.287C353.972 288.829 354.138 286.995 355.917 285.729C357.697 286.995 357.872 288.838 357.881 289.287C357.89 288.269 358.287 280.153 369.434 274.595C366.401 266.479 374.662 262.296 374.662 262.296C374.662 262.296 364.354 258.114 377.612 246.797Z" fill="#131212"/>
<path d="M330.353 211.578C330.353 211.578 330.334 211.541 330.307 211.477C330.334 211.541 330.353 211.578 330.353 211.578Z" fill="#131212"/>
<path d="M331.689 164.07C317.961 180.845 324.885 197.023 324.885 197.023C324.885 197.023 322.866 192.391 320.321 190.841C322.626 195.592 322.377 198.059 322.377 198.059C322.377 198.059 320.404 196.527 318.551 191.593C317.915 194.501 319.888 199.15 319.888 199.15C319.888 199.15 312.927 182.981 291.26 181.257C308.141 186.558 300.212 194.537 300.212 194.537C300.212 194.537 309.58 195.161 310.004 203.929C322.617 204.69 326.24 212.1 326.646 213.045C326.48 212.614 325.899 210.835 327.052 208.945C329.218 209.422 330.113 211.064 330.306 211.486C329.91 210.541 327.024 202.81 335.193 193.226C329.117 186.861 335.137 179.698 335.137 179.698C335.137 179.698 323.871 179.872 331.689 164.07Z" fill="#131212"/>
<path d="M326.683 213.14C326.683 213.14 326.674 213.104 326.637 213.039C326.664 213.104 326.683 213.14 326.683 213.14Z" fill="#131212"/>
<path d="M193.766 42.3861C193.766 42.3861 193.766 42.3766 193.775 42.3672C193.766 42.3766 193.766 42.3861 193.766 42.3861Z" fill="#131212"/>
<path d="M201.207 35.1274C195.619 35.8519 194.734 39.3462 194.734 39.3462C194.734 39.3462 194.983 38.3373 194.651 37.7412C194.448 38.8051 194.024 39.1536 194.024 39.1536C194.024 39.1536 193.812 38.64 194.144 37.6128C193.563 37.9797 193.305 38.9793 193.305 38.9793C193.305 38.9793 194.19 35.4851 189.617 32.2109C192.586 35.3842 189.617 35.5309 189.617 35.5309C189.617 35.5309 191.609 36.925 190.382 38.3557C193.075 40.2175 192.77 41.8866 192.724 42.0884C192.752 41.9967 192.89 41.639 193.434 41.5014C193.849 41.8775 193.794 42.2535 193.775 42.3544C193.831 42.1526 194.347 40.5385 197.611 40.1716C197.214 38.3373 199.639 38.0439 199.639 38.0439C199.639 38.0439 197.085 36.5214 201.207 35.1274Z" fill="#131212"/>
<path d="M192.707 42.1283C192.707 42.1283 192.707 42.1188 192.716 42.1094C192.716 42.1188 192.707 42.1283 192.707 42.1283Z" fill="#131212"/>
<path d="M128.873 221.504C128.873 221.504 128.863 221.477 128.836 221.422C128.863 221.477 128.873 221.504 128.873 221.504Z" fill="#131212"/>
<path d="M129.796 180.648C118.068 195.139 124.107 209.015 124.107 209.015C124.107 209.015 122.347 205.044 120.152 203.714C122.162 207.786 121.95 209.914 121.95 209.914C121.95 209.914 120.244 208.612 118.631 204.365C118.096 206.869 119.811 210.859 119.811 210.859C119.811 210.859 113.754 196.992 95.1016 195.607C109.651 200.082 102.865 206.979 102.865 206.979C102.865 206.979 110.923 207.474 111.329 215.004C122.181 215.6 125.325 221.956 125.684 222.763C125.537 222.396 125.029 220.864 126.016 219.241C127.878 219.636 128.662 221.048 128.828 221.406C128.478 220.589 125.97 213.958 132.94 205.677C127.685 200.238 132.83 194.048 132.83 194.048C132.83 194.048 123.149 194.277 129.796 180.648Z" fill="#131212"/>
<path d="M125.728 222.864C125.728 222.864 125.719 222.836 125.691 222.781C125.71 222.836 125.728 222.864 125.728 222.864Z" fill="#131212"/>
<path d="M287.173 78.6612C287.173 78.6612 287.163 78.6518 287.145 78.6328C287.163 78.6518 287.173 78.6612 287.173 78.6612Z" fill="#131212"/>
<path d="M281.28 61.6406C278.652 69.4087 283.281 74.2236 283.281 74.2236C283.281 74.2236 281.944 72.8479 280.838 72.637C282.294 74.0127 282.534 74.9298 282.534 74.9298C282.534 74.9298 281.63 74.6455 280.312 73.1414C280.478 74.2511 281.796 75.6452 281.796 75.6452C281.796 75.6452 277.168 70.8302 269.248 73.0955C275.951 72.7379 274.199 76.6173 274.199 76.6173C274.199 76.6173 277.601 75.5993 278.929 78.6533C283.502 77.2501 285.779 79.4054 286.056 79.6805C285.936 79.5521 285.494 78.9927 285.65 78.1764C286.48 78.0572 287.024 78.5249 287.144 78.6442C286.877 78.3599 284.821 76.0028 286.434 71.5181C283.428 70.069 284.609 66.7307 284.609 66.7307C284.609 66.7307 280.626 68.2806 281.28 61.6406Z" fill="#131212"/>
<path d="M286.075 79.7081C286.075 79.7081 286.066 79.6986 286.047 79.6797C286.066 79.6892 286.075 79.7081 286.075 79.7081Z" fill="#131212"/>
<path d="M282.38 159.954C282.38 159.954 282.38 159.935 282.371 159.898C282.38 159.935 282.38 159.954 282.38 159.954Z" fill="#131212"/>
<path d="M290.807 136.766C281.301 142.809 282.067 151.898 282.067 151.898C282.067 151.898 281.827 149.284 280.831 148.11C281.191 150.825 280.665 151.999 280.665 151.999C280.665 151.999 279.946 150.926 279.836 148.193C279.052 149.523 279.255 152.137 279.255 152.137C279.255 152.137 278.471 143.048 268.08 138.682C275.53 144.029 270.321 146.671 270.321 146.671C270.321 146.671 274.829 148.496 273.603 152.88C279.688 155.301 280.26 159.538 280.315 160.07C280.306 159.831 280.306 158.859 281.191 158.116C282.177 158.703 282.353 159.657 282.38 159.896C282.334 159.364 282.187 155.09 287.774 151.687C285.819 147.569 289.959 145.011 289.959 145.011C289.959 145.011 284.372 143.277 290.807 136.766Z" fill="#131212"/>
<path d="M202.377 253.203C202.377 253.203 202.386 253.166 202.405 253.102C202.386 253.166 202.377 253.203 202.377 253.203Z" fill="#131212"/>
<path d="M234.408 217.935C213.018 221.814 207.726 238.598 207.726 238.598C207.726 238.598 209.21 233.774 208.288 230.949C206.942 236.048 205.135 237.763 205.135 237.763C205.135 237.763 204.637 235.324 206.453 230.371C204.075 232.169 202.535 236.984 202.535 236.984C202.535 236.984 207.8 220.2 192.448 204.875C201.825 219.815 190.586 220.75 190.586 220.75C190.586 220.75 197.298 227.28 191.895 234.214C200.986 242.945 198.902 250.915 198.598 251.896C198.755 251.456 199.474 249.732 201.585 249.044C202.922 250.805 202.526 252.639 202.406 253.079C202.719 252.098 205.578 244.366 218.043 242.349C217.582 233.59 226.83 232.031 226.83 232.031C226.83 232.031 218.135 224.896 234.408 217.935Z" fill="#131212"/>
<path d="M198.57 252.008C198.57 252.008 198.58 251.971 198.607 251.906C198.58 251.971 198.57 252.008 198.57 252.008Z" fill="#131212"/>
<path d="M161.857 244.681C161.857 244.681 161.857 244.644 161.848 244.57C161.857 244.635 161.857 244.681 161.857 244.681Z" fill="#131212"/>
<path d="M179.698 200.594C160.963 211.581 161.811 229.144 161.811 229.144C161.811 229.144 161.535 224.1 159.691 221.77C160.198 227.016 159.1 229.254 159.1 229.254C159.1 229.254 157.791 227.135 157.773 221.862C156.168 224.366 156.381 229.41 156.381 229.41C156.381 229.41 155.505 211.847 135.783 202.74C149.77 213.544 139.545 218.285 139.545 218.285C139.545 218.285 148.11 222.11 145.446 230.474C157.008 235.545 157.81 243.745 157.874 244.772C157.865 244.313 157.948 242.442 159.691 241.067C161.553 242.259 161.82 244.111 161.857 244.57C161.811 243.543 161.811 235.307 172.82 229.135C169.344 221.073 177.494 216.433 177.494 216.433C177.494 216.433 166.845 212.709 179.698 200.594Z" fill="#131212"/>
<path d="M157.875 244.868C157.875 244.868 157.875 244.832 157.875 244.758C157.866 244.822 157.875 244.868 157.875 244.868Z" fill="#131212"/>
<path d="M263.357 349.684C263.357 349.684 263.367 349.656 263.394 349.602C263.367 349.656 263.357 349.684 263.357 349.684Z" fill="#131212"/>
<path d="M291.433 323.885C274.109 325.444 268.678 338.44 268.678 338.44C268.678 338.44 270.218 334.698 269.683 332.378C268.245 336.349 266.678 337.587 266.678 337.587C266.678 337.587 266.456 335.606 268.264 331.791C266.235 333.056 264.658 336.78 264.658 336.78C264.658 336.78 270.071 323.784 258.942 310.477C265.332 323.05 256.314 322.995 256.314 322.995C256.314 322.995 261.192 328.672 256.388 333.817C262.999 341.42 260.768 347.629 260.454 348.391C260.611 348.051 261.312 346.731 263.036 346.336C263.976 347.831 263.524 349.262 263.395 349.61C263.718 348.849 266.549 342.897 276.635 342.182C276.903 335.166 284.389 334.588 284.389 334.588C284.389 334.588 277.963 328.269 291.433 323.885Z" fill="#131212"/>
<path d="M260.408 348.481C260.408 348.481 260.417 348.453 260.445 348.398C260.417 348.453 260.408 348.481 260.408 348.481Z" fill="#131212"/>
<path d="M309.43 342.082C309.43 342.082 309.439 342.055 309.466 342C309.439 342.055 309.43 342.082 309.43 342.082Z" fill="#131212"/>
<path d="M337.506 316.276C320.181 317.835 314.751 330.83 314.751 330.83C314.751 330.83 316.29 327.089 315.756 324.768C314.317 328.739 312.75 329.977 312.75 329.977C312.75 329.977 312.529 327.996 314.336 324.181C312.307 325.447 310.731 329.17 310.731 329.17C310.731 329.17 316.143 316.175 305.014 302.867C311.404 315.441 302.387 315.386 302.387 315.386C302.387 315.386 307.264 321.063 302.46 326.208C309.071 333.811 306.84 340.02 306.527 340.781C306.683 340.442 307.384 339.121 309.108 338.727C310.049 340.222 309.597 341.653 309.468 342.001C309.79 341.24 312.621 335.288 322.708 334.572C322.975 327.556 330.461 326.978 330.461 326.978C330.461 326.978 324.035 320.659 337.506 316.276Z" fill="#131212"/>
<path d="M306.48 340.871C306.48 340.871 306.49 340.844 306.517 340.789C306.49 340.844 306.48 340.871 306.48 340.871Z" fill="#131212"/>
<path d="M209.33 344.657C209.33 344.657 209.349 344.621 209.376 344.547C209.339 344.621 209.33 344.657 209.33 344.657Z" fill="#131212"/>
<path d="M246.687 310.33C223.628 312.412 216.409 329.7 216.409 329.7C216.409 329.7 218.456 324.72 217.746 321.638C215.828 326.921 213.744 328.572 213.744 328.572C213.744 328.572 213.449 325.94 215.856 320.859C213.163 322.537 211.061 327.499 211.061 327.499C211.061 327.499 218.262 310.202 203.455 292.492C211.965 309.23 199.951 309.147 199.951 309.147C199.951 309.147 206.442 316.704 200.043 323.546C208.848 333.662 205.87 341.925 205.446 342.934C205.649 342.485 206.58 340.724 208.885 340.192C210.139 342.191 209.54 344.09 209.365 344.548C209.789 343.539 213.56 335.606 226.984 334.662C227.334 325.325 237.301 324.555 237.301 324.555C237.301 324.555 228.763 316.154 246.687 310.33Z" fill="#131212"/>
<path d="M205.398 343.048C205.398 343.048 205.417 343.011 205.445 342.938C205.417 343.011 205.398 343.048 205.398 343.048Z" fill="#131212"/>
<path d="M366.539 350.625C346.107 361.3 346.089 379.973 346.089 379.973C346.089 379.973 346.061 374.608 344.226 372.04C344.484 377.625 343.203 379.946 343.203 379.946C343.203 379.946 341.921 377.634 342.179 372.04C340.345 374.608 340.317 379.973 340.317 379.973C340.317 379.973 340.299 361.31 319.867 350.625C334.13 362.804 323.039 367.298 323.039 367.298C323.039 367.298 331.918 371.792 328.654 380.523C340.649 386.494 341.073 395.234 341.082 396.325C341.101 395.839 341.285 393.858 343.203 392.492C345.121 393.858 345.305 395.83 345.323 396.325C345.333 395.234 345.757 386.494 357.752 380.523C354.488 371.792 363.367 367.298 363.367 367.298C363.367 367.298 352.275 362.804 366.539 350.625Z" fill="#131212"/>
<path d="M397.415 326.766C376.984 337.441 376.966 356.114 376.966 356.114C376.966 356.114 376.938 350.749 375.103 348.181C375.361 353.775 374.08 356.086 374.08 356.086C374.08 356.086 372.798 353.775 373.056 348.181C371.222 350.749 371.194 356.114 371.194 356.114C371.194 356.114 371.176 337.45 350.744 326.766C365.007 338.945 353.916 343.439 353.916 343.439C353.916 343.439 362.795 347.933 359.531 356.664C371.526 362.634 371.95 371.375 371.959 372.466C371.978 371.98 372.162 369.999 374.08 368.632C375.998 369.999 376.182 371.971 376.2 372.466C376.21 371.375 376.634 362.634 388.629 356.664C385.365 347.933 394.244 343.439 394.244 343.439C394.244 343.439 383.152 338.945 397.415 326.766Z" fill="#131212"/>
<path d="M375.521 353.283C358.197 354.843 352.766 367.838 352.766 367.838C352.766 367.838 354.306 364.096 353.771 361.776C352.333 365.747 350.766 366.985 350.766 366.985C350.766 366.985 350.544 365.004 352.351 361.189C350.323 362.455 348.746 366.178 348.746 366.178C348.746 366.178 354.158 353.183 343.03 339.875C349.419 352.449 340.402 352.394 340.402 352.394C340.402 352.394 345.28 358.071 340.476 363.216C347.087 370.819 344.856 377.028 344.542 377.789C344.699 377.45 345.4 376.129 347.124 375.735C348.064 377.23 347.612 378.66 347.483 379.009C347.806 378.248 350.636 372.295 360.723 371.58C360.99 364.564 368.477 363.986 368.477 363.986C368.477 363.986 362.06 357.667 375.521 353.283Z" fill="#131212"/>
<path d="M367.71 315.961C347.279 326.636 347.261 345.309 347.261 345.309C347.261 345.309 347.233 339.944 345.398 337.376C345.656 342.961 344.375 345.281 344.375 345.281C344.375 345.281 343.093 342.97 343.351 337.376C341.517 339.944 341.489 345.309 341.489 345.309C341.489 345.309 341.47 326.645 321.039 315.961C335.302 328.14 324.211 332.634 324.211 332.634C324.211 332.634 333.089 337.128 329.826 345.859C341.821 351.83 342.245 360.57 342.254 361.661C342.273 361.175 342.457 359.194 344.375 357.828C346.292 359.194 346.477 361.166 346.495 361.661C346.505 360.57 346.929 351.83 358.924 345.859C355.66 337.128 364.539 332.634 364.539 332.634C364.539 332.634 353.447 328.14 367.71 315.961Z" fill="#131212"/>
<path d="M12.1523 286.527C3.82672 286.38 -6.88685 290.81 -6.88685 290.81C-10.1507 296.413 -12.428 301.155 -13.9954 303.163C-14.5117 302.127 -16.0515 299.211 -17.6281 298.293C-15.8302 301.824 -16.7338 302.026 -16.7338 302.026C-16.7338 302.026 -17.4898 302.567 -18.9465 298.88C-19.3061 300.669 -18.1444 303.75 -17.7018 304.823C-20.2465 304.658 -25.3267 303.191 -31.7069 301.898C-31.7069 301.898 -42.1531 306.924 -47.5745 313.206C-39.6822 309.51 -40.0879 319.378 -40.0879 319.378C-40.0879 319.378 -34.307 311.308 -27.7792 323.542C-25.0409 311.931 -9.27481 318.562 -9.27481 318.562C-9.27481 318.562 -3.77974 302.439 6.75865 308.116C1.90896 295.139 11.8112 296.202 11.8112 296.202C11.8112 296.202 4.13097 289.938 12.1523 286.527Z" fill="#131212"/>
<path d="M120.469 315.615C112.374 307.81 97.6678 302.317 97.6678 302.317C89.2315 304.848 82.5655 307.443 79.1449 307.985C79.6059 306.48 80.786 302.188 80.0853 299.822C78.5732 304.967 77.4945 304.334 77.4945 304.334C77.4945 304.334 76.2498 304.179 78.2321 299.189C76.2222 300.629 74.498 304.747 73.9356 306.205C71.5753 303.692 67.915 297.575 62.8164 290.422C62.8164 290.422 47.8247 285.772 36.6133 286.982C47.8524 290.596 38.2729 299.978 38.2729 299.978C38.2729 299.978 51.4943 297.328 46.5616 315.423C60.0688 306.471 69.4824 327.538 69.4824 327.538C69.4824 327.538 89.923 316.661 95.0585 331.977C102.342 314.689 111.138 324.851 111.138 324.851C111.138 324.851 109.359 311.598 120.469 315.615Z" fill="#131212"/>
<path d="M78.5354 272.378C67.8864 267.398 46.3302 272.085 46.3302 272.085C40.3925 277.23 29.9832 289.061 29.9832 289.061C29.9279 287.428 29.6329 282.787 28.13 280.687C28.3882 286.282 27.1066 286.016 27.1066 286.016C27.1066 286.016 25.825 286.282 26.0832 280.687C24.5895 282.787 24.2945 287.428 24.23 289.061C21.0399 287.382 15.3511 282.567 7.88299 277.23C7.88299 277.23 -13.6732 282.833 -24.3223 287.813C-11.9952 287.593 -11.0179 295.957 -11.0179 295.957C-11.0179 295.957 4.2319 286.318 5.53191 305.826C15.8121 292.445 27.1066 311.604 27.1066 311.604C27.1066 311.604 37.3591 290.381 47.6486 303.762C48.9486 284.246 62.1239 290.803 62.1239 290.803C62.1239 290.803 66.2176 272.158 78.5354 272.378Z" fill="#131212"/>
<path d="M115.858 276.363C107.532 276.216 96.8185 280.646 96.8185 280.646C93.5546 286.25 91.2773 290.991 89.7099 293C89.1936 291.963 87.6538 289.047 86.0772 288.13C87.8751 291.661 86.9715 291.862 86.9715 291.862C86.9715 291.862 86.2155 292.403 84.7588 288.717C84.3992 290.505 85.5609 293.587 86.0035 294.66C83.4588 294.495 78.3786 293.027 71.9984 291.734C71.9984 291.734 61.5522 296.76 56.1309 303.042C64.0231 299.346 63.6174 309.214 63.6174 309.214C63.6174 309.214 69.3984 301.144 75.9261 313.378C78.6644 301.767 94.4305 308.398 94.4305 308.398C94.4305 308.398 99.9256 292.275 110.464 297.952C105.614 284.975 115.517 286.039 115.517 286.039C115.517 286.039 107.836 279.775 115.858 276.363Z" fill="#131212"/>
<path d="M215.221 265.66C206.895 265.513 196.182 269.943 196.182 269.943C192.918 275.546 190.641 280.288 189.073 282.296C188.557 281.26 187.017 278.344 185.441 277.427C187.238 280.957 186.335 281.159 186.335 281.159C186.335 281.159 185.579 281.7 184.122 278.014C183.763 279.802 184.924 282.883 185.367 283.956C182.822 283.791 177.742 282.324 171.362 281.031C171.362 281.031 160.915 286.057 155.494 292.339C163.386 288.643 162.981 298.511 162.981 298.511C162.981 298.511 168.762 290.441 175.289 302.675C178.028 291.064 193.794 297.695 193.794 297.695C193.794 297.695 199.289 281.572 209.827 287.249C204.978 274.272 214.88 275.335 214.88 275.335C214.88 275.335 207.2 269.072 215.221 265.66Z" fill="#131212"/>
<path d="M178.757 298.965C172.294 289.188 158.574 280.283 158.574 280.283C149.401 280.953 142.025 282.09 138.42 281.87C139.231 280.448 141.416 276.33 141.241 273.772C138.53 278.669 137.571 277.779 137.571 277.779C137.571 277.779 136.336 277.339 139.498 272.708C137.12 273.717 134.427 277.523 133.524 278.889C131.689 275.798 129.356 268.737 125.798 260.308C125.798 260.308 111.59 252.182 99.8988 250.898C110.52 257.117 98.6172 264.499 98.6172 264.499C98.6172 264.499 112.687 264.784 103.541 282.099C119.334 276.037 124.12 299.616 124.12 299.616C124.12 299.616 147.409 293.16 149.152 309.916C160.511 293.948 167.149 306.293 167.149 306.293C167.149 306.293 168.366 292.38 178.757 298.965Z" fill="#131212"/>
<path d="M143.942 242.576C139.747 234.248 123.944 226.627 123.944 226.627C117.684 226.939 105.32 229.241 105.32 229.241C106.094 228.186 108.206 225.141 108.307 223.096C105.707 226.719 105.034 225.93 105.034 225.93C105.034 225.93 104.103 225.462 107.035 222.096C105.062 222.674 102.581 225.435 101.733 226.425C100.572 223.811 99.3914 218.015 97.363 211.027C97.363 211.027 81.1082 203.983 71.9805 201.883C79.799 207.78 76.2677 213.494 76.2677 213.494C76.2677 213.494 90.5771 214.924 81.7352 227.773C94.7906 224.435 92.3657 241.952 92.3657 241.952C92.3657 241.952 109.275 233.698 109.091 247.106C119.555 235.532 124.562 246.088 124.562 246.088C124.562 246.088 136.336 236.403 143.942 242.576Z" fill="#131212"/>
<path d="M96.0535 162.924C90.0514 161.915 79.9555 167.235 79.9555 167.235C77.7151 170.619 74.1746 177.965 74.1746 177.965C73.9165 177.158 73.1235 174.884 72.0817 174.049C72.9945 176.8 72.3214 176.846 72.3214 176.846C72.3214 176.846 71.7221 177.158 71.0675 174.333C70.6157 175.59 71.1136 177.938 71.3164 178.763C69.4909 178.369 65.9781 176.754 61.5064 175.122C61.5064 175.122 51.5397 180.9 46.9297 184.862C53.0425 183.046 54.7021 187.081 54.7021 187.081C54.7021 187.081 60.9532 180.166 64.3369 189.713C67.5916 181.615 75.908 189.613 75.908 189.613C75.908 189.613 78.0562 177.607 85.0542 182.863C82.9705 172.948 90.457 174.397 90.457 174.397C90.457 174.397 89.8854 164.529 96.0535 162.924Z" fill="#131212"/>
<path d="M33.8547 85.2566C30.6646 81.7349 21.878 80.1207 21.878 80.1207C18.8538 81.1112 13.0914 83.9085 13.0914 83.9085C13.3311 83.2848 13.9488 81.5056 13.7183 80.4968C12.9346 82.6245 12.492 82.3218 12.492 82.3218C12.492 82.3218 11.9757 82.221 12.953 80.1758C12.0587 80.726 11.2197 82.4136 10.9431 83.0097C10.0211 81.8816 8.65656 79.2036 6.71115 76.0395C6.71115 76.0395 -2.22298 74.7647 -6.98047 74.9573C-2.34284 76.8007 -3.30171 80.0749 -3.30171 80.0749C-3.30171 80.0749 3.9175 78.8551 1.31748 86.348C7.27356 82.9547 8.46293 91.8783 8.46293 91.8783C8.46293 91.8783 15.6453 85.5593 17.3694 92.1626C20.9375 85.0824 24.8191 89.5855 24.8191 89.5855C24.8191 89.5855 29.2908 83.2481 33.8547 85.2566Z" fill="#131212"/>
<path d="M26.7386 128.321C25.1159 127.276 21.4925 127.569 21.4925 127.569C20.4137 128.275 18.4499 129.981 18.4499 129.981C18.4776 129.715 18.5329 128.954 18.33 128.578C18.2471 129.495 18.0442 129.422 18.0442 129.422C18.0442 129.422 17.8322 129.44 17.9981 128.532C17.7031 128.844 17.5556 129.596 17.5095 129.853C17.03 129.504 16.2002 128.596 15.1031 127.569C15.1031 127.569 11.4612 128.009 9.61719 128.587C11.6271 128.826 11.6087 130.211 11.6087 130.211C11.6087 130.211 14.3101 128.972 14.0889 132.182C16.0619 130.229 17.4818 133.595 17.4818 133.595C17.4818 133.595 19.6208 130.357 21.0038 132.769C21.6492 129.614 23.6499 130.972 23.6499 130.972C23.6499 130.972 24.7379 128.019 26.7386 128.321Z" fill="#131212"/>
<path d="M97.2336 158.068C95.9152 155.922 91.4988 154.216 91.4988 154.216C89.8208 154.437 86.5477 155.326 86.5477 155.326C86.7321 155.023 87.23 154.161 87.2116 153.611C86.5938 154.647 86.391 154.446 86.391 154.446C86.391 154.446 86.1328 154.345 86.8428 153.373C86.3264 153.574 85.7179 154.372 85.5151 154.657C85.1463 153.978 84.6945 152.446 83.9938 150.603C83.9938 150.603 79.4576 149.062 76.959 148.695C79.1902 150.108 78.3696 151.722 78.3696 151.722C78.3696 151.722 82.2512 151.795 80.1583 155.445C83.5973 154.262 83.3392 159.031 83.3392 159.031C83.3392 159.031 87.7094 156.436 87.9584 160.049C90.5215 156.702 92.0981 159.435 92.0981 159.435C92.0981 159.435 95.0577 156.583 97.2336 158.068Z" fill="#131212"/>
<path d="M3.85378 319.691C-6.79527 314.711 -28.3515 319.397 -28.3515 319.397C-34.2891 324.542 -44.6984 336.373 -44.6984 336.373C-44.7538 334.741 -45.0488 330.1 -46.5517 328C-46.2935 333.585 -47.5751 333.328 -47.5751 333.328C-47.5751 333.328 -48.8566 333.594 -48.5985 328C-50.0921 330.1 -50.3871 334.741 -50.4517 336.373C-53.6418 334.695 -59.3305 329.88 -66.7986 324.542C-66.7986 324.542 -88.3549 330.146 -99.0039 335.126C-86.6768 334.906 -85.6995 343.27 -85.6995 343.27C-85.6995 343.27 -70.4497 333.631 -69.1497 353.138C-58.8695 339.757 -47.5751 358.916 -47.5751 358.916C-47.5751 358.916 -37.3225 337.694 -27.033 351.075C-25.733 331.558 -12.5577 338.116 -12.5577 338.116C-12.5577 338.116 -8.47329 319.47 3.85378 319.691Z" fill="#131212"/>
<path d="M149.85 311.215C141.524 311.068 130.811 315.498 130.811 315.498C127.547 321.101 125.269 325.843 123.702 327.851C123.186 326.815 121.646 323.898 120.069 322.981C121.867 326.512 120.964 326.714 120.964 326.714C120.964 326.714 120.208 327.255 118.751 323.568C118.391 325.357 119.553 328.438 119.996 329.511C117.451 329.346 112.371 327.879 105.991 326.586C105.991 326.586 95.5444 331.611 90.123 337.894C98.0153 334.198 97.6096 344.066 97.6096 344.066C97.6096 344.066 103.391 335.995 109.918 348.23C112.657 336.619 128.423 343.25 128.423 343.25C128.423 343.25 133.918 327.127 144.456 332.804C139.606 319.826 149.509 320.89 149.509 320.89C149.509 320.89 141.828 314.626 149.85 311.215Z" fill="#131212"/>
<path d="M118.1 336.006C110.004 328.201 95.2986 322.707 95.2986 322.707C86.8624 325.239 80.1963 327.834 76.7757 328.375C77.2367 326.871 78.4169 322.579 77.7162 320.213C76.2041 325.358 75.1254 324.725 75.1254 324.725C75.1254 324.725 73.8807 324.569 75.863 319.58C73.853 321.02 72.1289 325.138 71.5665 326.596C69.2062 324.083 65.5459 317.966 60.4472 310.812C60.4472 310.812 45.4556 306.162 34.2441 307.373C45.4833 310.986 35.9037 320.369 35.9037 320.369C35.9037 320.369 49.1251 317.718 44.1925 335.813C57.6997 326.862 67.1133 347.928 67.1133 347.928C67.1133 347.928 87.5539 337.051 92.6894 352.367C99.9731 335.079 108.769 345.241 108.769 345.241C108.769 345.241 106.99 331.998 118.1 336.006Z" fill="#131212"/>
<path d="M212.749 331.223C206.286 321.446 192.567 312.541 192.567 312.541C183.393 313.211 176.017 314.348 172.412 314.128C173.223 312.706 175.408 308.588 175.233 306.029C172.523 310.927 171.564 310.037 171.564 310.037C171.564 310.037 170.328 309.597 173.491 304.966C171.112 305.974 168.42 309.78 167.516 311.147C165.681 308.056 163.349 300.994 159.79 292.566C159.79 292.566 145.582 284.44 133.891 283.156C144.512 289.374 132.609 296.757 132.609 296.757C132.609 296.757 146.679 297.042 137.533 314.357C153.327 308.295 158.112 331.874 158.112 331.874C158.112 331.874 181.401 325.417 183.144 342.173C194.503 326.206 201.141 338.551 201.141 338.551C201.141 338.551 202.358 324.638 212.749 331.223Z" fill="#131212"/>
<path d="M8.47229 146.376C4.81197 146.339 0.109797 148.329 0.109797 148.329C-1.31007 150.805 -2.28738 152.905 -2.96966 153.786C-3.20016 153.327 -3.89165 152.053 -4.58315 151.658C-3.78102 153.208 -4.17747 153.3 -4.17747 153.3C-4.17747 153.3 -4.5094 153.538 -5.16401 151.924C-5.31153 152.713 -4.7952 154.061 -4.59237 154.538C-5.7172 154.474 -7.95765 153.85 -10.7605 153.3C-10.7605 153.3 -15.3336 155.547 -17.7031 158.335C-14.2456 156.684 -14.384 161.022 -14.384 161.022C-14.384 161.022 -11.8669 157.454 -8.95341 162.81C-7.7917 157.693 -0.830627 160.554 -0.830627 160.554C-0.830627 160.554 1.52966 153.437 6.18574 155.895C4.00061 150.2 8.36166 150.631 8.36166 150.631C8.36166 150.631 4.95027 147.907 8.47229 146.376Z" fill="#131212"/>
<path d="M30.104 196.939C24.5352 191.574 14.4301 187.795 14.4301 187.795C8.63076 189.538 4.04845 191.317 1.69737 191.693C2.01085 190.657 2.83143 187.703 2.34278 186.08C1.30092 189.62 0.563305 189.18 0.563305 189.18C0.563305 189.18 -0.294132 189.07 1.07042 185.64C-0.312572 186.63 -1.49274 189.455 -1.87997 190.464C-3.50268 188.74 -6.01972 184.53 -9.5233 179.614C-9.5233 179.614 -19.8312 176.414 -27.5391 177.248C-19.8128 179.734 -26.405 186.181 -26.405 186.181C-26.405 186.181 -17.3142 184.356 -20.7071 196.801C-11.4226 190.647 -4.9502 205.129 -4.9502 205.129C-4.9502 205.129 9.101 197.654 12.6322 208.183C17.6387 196.297 23.6869 203.285 23.6869 203.285C23.6869 203.285 22.4699 194.178 30.104 196.939Z" fill="#131212"/>
<path d="M72.6427 265.563C65.1192 258.3 51.446 253.2 51.446 253.2C43.5998 255.557 37.404 257.969 34.2232 258.465C34.6473 257.071 35.7537 253.072 35.0991 250.871C33.6976 255.658 32.6926 255.071 32.6926 255.071C32.6926 255.071 31.5309 254.925 33.3841 250.284C31.5125 251.623 29.9174 255.447 29.3919 256.814C27.1976 254.475 23.7954 248.789 19.0563 242.14C19.0563 242.14 5.1158 237.811 -5.30273 238.948C5.14346 242.314 -3.76301 251.027 -3.76301 251.027C-3.76301 251.027 8.52718 248.56 3.94487 265.389C16.5024 257.071 25.2614 276.651 25.2614 276.651C25.2614 276.651 44.2637 266.545 49.0396 280.778C55.807 264.701 63.9851 274.157 63.9851 274.157C63.9851 274.157 62.3163 261.831 72.6427 265.563Z" fill="#131212"/>
<path d="M30.1039 215.591C20.2109 210.959 0.166702 215.325 0.166702 215.325C-5.34682 220.112 -15.037 231.108 -15.037 231.108C-15.0923 229.586 -15.3689 225.276 -16.7611 223.322C-16.5214 228.522 -17.7108 228.275 -17.7108 228.275C-17.7108 228.275 -18.9001 228.522 -18.6604 223.322C-20.0526 225.276 -20.3292 229.586 -20.3845 231.108C-23.3441 229.54 -28.6456 225.074 -35.5882 220.112C-35.5882 220.112 -55.6324 225.321 -65.5254 229.953C-54.065 229.751 -53.1614 237.528 -53.1614 237.528C-53.1614 237.528 -38.9812 228.559 -37.7734 246.709C-28.2123 234.263 -17.72 252.083 -17.72 252.083C-17.72 252.083 -8.18657 232.356 1.37451 244.801C2.58232 226.66 14.8356 232.75 14.8356 232.75C14.8356 232.75 18.6435 215.389 30.1039 215.591Z" fill="#131212"/>
<path d="M244.707 334.769C234.058 329.789 212.502 334.475 212.502 334.475C206.564 339.62 196.155 351.451 196.155 351.451C196.1 349.819 195.805 345.178 194.302 343.078C194.56 348.663 193.278 348.406 193.278 348.406C193.278 348.406 191.997 348.672 192.255 343.078C190.761 345.178 190.466 349.819 190.402 351.451C187.212 349.773 181.523 344.958 174.055 339.62C174.055 339.62 152.499 345.224 141.85 350.204C154.177 349.984 155.154 358.348 155.154 358.348C155.154 358.348 170.404 348.709 171.704 368.216C181.984 354.835 193.278 373.994 193.278 373.994C193.278 373.994 203.531 352.772 213.82 366.153C215.12 346.636 228.296 353.194 228.296 353.194C228.296 353.194 232.389 334.549 244.707 334.769Z" fill="#131212"/>
<path d="M232.71 139.682C226.708 138.673 216.612 143.992 216.612 143.992C214.371 147.377 210.831 154.723 210.831 154.723C210.573 153.916 209.78 151.641 208.738 150.807C209.651 153.558 208.978 153.604 208.978 153.604C208.978 153.604 208.378 153.916 207.724 151.091C207.272 152.347 207.77 154.695 207.973 155.521C206.147 155.126 202.634 153.512 198.163 151.88C198.163 151.88 188.196 157.658 183.586 161.62C189.699 159.804 191.358 163.839 191.358 163.839C191.358 163.839 197.609 156.924 200.993 166.471C204.248 158.373 212.564 166.37 212.564 166.37C212.564 166.37 214.712 154.365 221.71 159.62C219.627 149.706 227.113 151.155 227.113 151.155C227.113 151.155 226.532 141.278 232.71 139.682Z" fill="#131212"/>
<path d="M244.107 125.458C242.125 123.129 236.501 121.9 236.501 121.9C234.528 122.477 230.766 124.156 230.766 124.156C230.932 123.761 231.365 122.624 231.245 121.973C230.692 123.33 230.425 123.129 230.425 123.129C230.425 123.129 230.093 123.055 230.766 121.753C230.185 122.092 229.604 123.156 229.411 123.541C228.839 122.798 228.009 121.038 226.829 118.965C226.829 118.965 221.103 117.965 218.033 117.993C220.984 119.277 220.301 121.368 220.301 121.368C220.301 121.368 224.976 120.735 223.15 125.504C227.05 123.44 227.64 129.209 227.64 129.209C227.64 129.209 232.398 125.284 233.375 129.576C235.818 125.082 238.225 128.072 238.225 128.072C238.225 128.072 241.212 124.064 244.107 125.458Z" fill="#131212"/>
<path d="M194.015 357.202C186.233 351.488 168.097 351.818 168.097 351.818C162.482 355.019 152.174 362.897 152.174 362.897C152.396 361.567 152.903 357.78 152.036 355.844C151.345 360.393 150.349 359.981 150.349 359.981C150.349 359.981 149.27 359.99 150.386 355.523C148.837 356.973 147.85 360.669 147.537 361.98C145.241 360.118 141.424 355.331 136.27 349.828C136.27 349.828 117.987 350.901 108.592 353.212C118.568 355.01 118.005 361.907 118.005 361.907C118.005 361.907 131.863 356.569 129.752 372.509C140.207 363.365 146.209 380.616 146.209 380.616C146.209 380.616 157.909 365.144 164.031 377.58C168.236 362.053 177.797 369.445 177.797 369.445C177.797 369.445 184.112 355.056 194.015 357.202Z" fill="#131212"/>
<path d="M91.971 351.55C81.3219 346.57 59.7657 351.256 59.7657 351.256C53.8281 356.401 43.4187 368.232 43.4187 368.232C43.3634 366.6 43.0684 361.959 41.5655 359.859C41.8237 365.454 40.5421 365.188 40.5421 365.188C40.5421 365.188 39.2605 365.454 39.5187 359.859C38.0251 361.959 37.73 366.6 37.6655 368.232C34.4754 366.554 28.7867 361.739 21.3185 356.401C21.3185 356.401 -0.237685 362.005 -10.8867 366.985C1.44034 366.765 2.41765 375.129 2.41765 375.129C2.41765 375.129 17.6674 365.49 18.9675 384.998C29.2477 371.617 40.5421 390.775 40.5421 390.775C40.5421 390.775 50.7947 369.553 61.0842 382.934C62.3842 363.418 75.5595 369.975 75.5595 369.975C75.5595 369.975 79.6439 351.33 91.971 351.55Z" fill="#131212"/>
<path d="M15.5744 303.129C7.24883 302.982 -3.46474 307.412 -3.46474 307.412C-6.7286 313.015 -9.00592 317.757 -10.5733 319.765C-11.0896 318.729 -12.6294 315.812 -14.206 314.895C-12.4081 318.426 -13.3116 318.628 -13.3116 318.628C-13.3116 318.628 -14.0677 319.169 -15.5244 315.482C-15.884 317.271 -14.7223 320.352 -14.2797 321.425C-16.8244 321.26 -21.9046 319.793 -28.2848 318.5C-28.2848 318.5 -38.731 323.525 -44.1523 329.808C-36.2601 326.112 -36.6658 335.98 -36.6658 335.98C-36.6658 335.98 -30.8848 327.909 -24.3571 340.144C-21.6188 328.533 -5.85271 335.164 -5.85271 335.164C-5.85271 335.164 -0.357605 319.041 10.1808 324.718C5.3311 311.74 15.2333 312.804 15.2333 312.804C15.2333 312.804 7.5623 306.54 15.5744 303.129Z" fill="#131212"/>
<path d="M67.0002 314.12C56.3512 309.14 34.795 313.827 34.795 313.827C28.8573 318.972 18.448 330.803 18.448 330.803C18.3927 329.17 18.0977 324.53 16.5948 322.429C16.853 328.024 15.5714 327.758 15.5714 327.758C15.5714 327.758 14.2898 328.024 14.548 322.429C13.0544 324.53 12.7593 329.17 12.6948 330.803C9.50468 329.124 3.81598 324.309 -3.65217 318.972C-3.65217 318.972 -25.2084 324.575 -35.8574 329.555C-23.5304 329.335 -22.5531 337.7 -22.5531 337.7C-22.5531 337.7 -7.30327 328.061 -6.00326 347.568C4.27698 334.187 15.5714 353.346 15.5714 353.346C15.5714 353.346 25.824 332.123 36.1134 345.504C37.4134 325.988 50.5888 332.545 50.5888 332.545C50.5888 332.545 54.6732 313.9 67.0002 314.12Z" fill="#131212"/>
<path d="M102.45 344.217C94.6685 338.504 76.5329 338.834 76.5329 338.834C70.9179 342.035 60.61 349.913 60.61 349.913C60.8313 348.583 61.3384 344.795 60.4717 342.86C59.7802 347.409 58.7845 346.996 58.7845 346.996C58.7845 346.996 57.7057 347.006 58.8213 342.539C57.2724 343.988 56.2858 347.684 55.9724 348.996C53.6766 347.134 49.8595 342.347 44.7056 336.844C44.7056 336.844 26.4225 337.917 17.0273 340.228C27.0033 342.026 26.4409 348.922 26.4409 348.922C26.4409 348.922 40.2985 343.585 38.1871 359.524C48.6425 350.381 54.6447 367.632 54.6447 367.632C54.6447 367.632 66.3448 352.16 72.4669 364.596C76.6712 349.069 86.2322 356.461 86.2322 356.461C86.2322 356.461 92.5479 342.071 102.45 344.217Z" fill="#131212"/>
<path d="M282.821 298.168C274.495 298.021 263.781 302.451 263.781 302.451C260.517 308.054 258.24 312.796 256.673 314.804C256.156 313.768 254.617 310.851 253.04 309.934C254.838 313.465 253.934 313.667 253.934 313.667C253.934 313.667 253.178 314.208 251.722 310.521C251.362 312.31 252.524 315.391 252.966 316.464C250.422 316.299 245.341 314.832 238.961 313.539C238.961 313.539 228.515 318.565 223.094 324.847C230.986 321.151 230.58 331.019 230.58 331.019C230.58 331.019 236.361 322.948 242.889 335.183C245.627 323.572 261.393 330.203 261.393 330.203C261.393 330.203 266.889 314.08 277.427 319.757C272.577 306.779 282.479 307.843 282.479 307.843C282.479 307.843 274.799 301.579 282.821 298.168Z" fill="#131212"/>
<path d="M379.658 286.527C371.333 286.38 360.619 290.81 360.619 290.81C357.355 296.413 355.078 301.155 353.51 303.163C352.994 302.127 351.454 299.211 349.878 298.293C351.676 301.824 350.772 302.026 350.772 302.026C350.772 302.026 350.016 302.567 348.559 298.88C348.2 300.669 349.361 303.75 349.804 304.823C347.259 304.658 342.179 303.191 335.799 301.898C335.799 301.898 325.353 306.924 319.931 313.206C327.824 309.51 327.418 319.378 327.418 319.378C327.418 319.378 333.199 311.308 339.727 323.542C342.465 311.931 358.231 318.562 358.231 318.562C358.231 318.562 363.726 302.439 374.265 308.116C369.415 295.139 379.317 296.202 379.317 296.202C379.317 296.202 371.646 289.938 379.658 286.527Z" fill="#131212"/>
<path d="M343.202 319.848C336.739 310.071 323.02 301.166 323.02 301.166C313.846 301.836 306.47 302.973 302.865 302.753C303.676 301.331 305.861 297.213 305.686 294.654C302.976 299.552 302.017 298.662 302.017 298.662C302.017 298.662 300.781 298.222 303.944 293.591C301.565 294.599 298.873 298.405 297.969 299.772C296.134 296.681 293.802 289.619 290.243 281.191C290.243 281.191 276.035 273.065 264.344 271.781C274.965 277.999 263.062 285.382 263.062 285.382C263.062 285.382 277.132 285.667 267.986 302.982C283.78 296.92 288.565 320.499 288.565 320.499C288.565 320.499 311.854 314.042 313.597 330.798C324.956 314.831 331.594 327.176 331.594 327.176C331.594 327.176 332.811 313.254 343.202 319.848Z" fill="#131212"/>
<path d="M446.051 272.378C435.402 267.398 413.846 272.085 413.846 272.085C407.908 277.23 397.499 289.061 397.499 289.061C397.444 287.428 397.148 282.787 395.646 280.687C395.904 286.282 394.622 286.016 394.622 286.016C394.622 286.016 393.341 286.282 393.599 280.687C392.105 282.787 391.81 287.428 391.746 289.061C388.556 287.382 382.867 282.567 375.399 277.23C375.399 277.23 353.842 282.833 343.193 287.813C355.52 287.593 356.498 295.957 356.498 295.957C356.498 295.957 371.748 286.318 373.048 305.826C383.328 292.445 394.622 311.604 394.622 311.604C394.622 311.604 404.875 290.381 415.164 303.762C416.464 284.246 429.64 290.803 429.64 290.803C429.64 290.803 433.724 272.158 446.051 272.378Z" fill="#131212"/>
<path d="M232.122 252.188C223.962 250.555 212.622 252.995 212.622 252.995C208.399 257.92 205.301 262.184 203.392 263.872C203.079 262.753 202.083 259.616 200.7 258.424C201.834 262.221 200.903 262.258 200.903 262.258C200.903 262.258 200.064 262.652 199.299 258.773C198.626 260.469 199.216 263.707 199.446 264.844C196.966 264.22 192.236 261.882 186.197 259.46C186.197 259.46 175.013 262.533 168.541 267.742C176.977 265.523 174.792 275.152 174.792 275.152C174.792 275.152 181.938 268.256 186.142 281.444C190.936 270.521 205.246 279.857 205.246 279.857C205.246 279.857 213.571 264.982 222.911 272.447C220.486 258.818 230.038 261.634 230.038 261.634C230.038 261.634 223.612 254.114 232.122 252.188Z" fill="#131212"/>
<path d="M113.773 349.784C106.536 349.656 97.2143 353.508 97.2143 353.508C94.3745 358.378 92.3922 362.505 91.0369 364.257C90.5851 363.349 89.2482 360.817 87.8745 360.02C89.4419 363.092 88.6489 363.266 88.6489 363.266C88.6489 363.266 87.9943 363.734 86.722 360.533C86.4085 362.083 87.4227 364.77 87.8099 365.697C85.5971 365.55 81.1808 364.284 75.6304 363.156C75.6304 363.156 66.5487 367.522 61.8281 372.988C68.697 369.778 68.3374 378.353 68.3374 378.353C68.3374 378.353 73.3623 371.337 79.0418 381.966C81.4205 371.869 95.1398 377.638 95.1398 377.638C95.1398 377.638 99.9157 363.615 109.09 368.549C104.867 357.268 113.478 358.185 113.478 358.185C113.478 358.185 106.794 352.756 113.773 349.784Z" fill="#131212"/>
<path d="M296.504 204.9C292.714 197.38 278.433 190.492 278.433 190.492C272.781 190.777 261.597 192.859 261.597 192.859C262.298 191.905 264.206 189.153 264.298 187.31C261.947 190.584 261.339 189.869 261.339 189.869C261.339 189.869 260.5 189.447 263.146 186.402C261.357 186.925 259.117 189.419 258.352 190.318C257.301 187.961 256.231 182.724 254.396 176.396C254.396 176.396 239.7 170.031 231.457 168.133C238.52 173.461 235.339 178.625 235.339 178.625C235.339 178.625 248.274 179.918 240.28 191.529C252.082 188.511 249.888 204.341 249.888 204.341C249.888 204.341 265.174 196.885 264.999 209C274.459 198.545 278.977 208.083 278.977 208.083C278.977 208.083 289.635 199.324 296.504 204.9Z" fill="#131212"/>
<path d="M401.363 85.2566C398.172 81.7349 389.386 80.1207 389.386 80.1207C386.362 81.1112 380.599 83.9085 380.599 83.9085C380.839 83.2848 381.457 81.5056 381.226 80.4968C380.442 82.6245 380 82.3218 380 82.3218C380 82.3218 379.484 82.221 380.461 80.1758C379.567 80.726 378.728 82.4136 378.451 83.0097C377.529 81.8816 376.164 79.2036 374.219 76.0395C374.219 76.0395 365.285 74.7647 360.527 74.9573C365.165 76.8007 364.206 80.0749 364.206 80.0749C364.206 80.0749 371.425 78.8551 368.825 86.348C374.781 82.9547 375.971 91.8783 375.971 91.8783C375.971 91.8783 383.153 85.5593 384.877 92.1626C388.445 85.0824 392.327 89.5855 392.327 89.5855C392.327 89.5855 396.799 83.2481 401.363 85.2566Z" fill="#131212"/>
<path d="M209.828 87.6484C208.27 87.841 206.168 89.8954 206.168 89.8954C205.863 90.8951 205.531 92.977 205.531 92.977C205.412 92.7935 205.043 92.2891 204.72 92.1607C205.153 92.7752 204.988 92.8394 204.988 92.8394C204.988 92.8394 204.858 92.9586 204.49 92.3074C204.471 92.6468 204.766 93.1971 204.877 93.3897C204.397 93.4263 203.411 93.2888 202.185 93.2062C202.185 93.2062 200.147 95.3615 199.299 96.6821C200.673 95.7834 201.383 96.6638 201.383 96.6638C201.383 96.6638 202.415 94.4902 203.964 96.6088C204.167 94.371 206.813 95.7375 206.813 95.7375C206.813 95.7375 206.454 92.6101 208.574 93.3988C207.329 91.0968 209.284 90.9042 209.284 90.9042C209.284 90.9042 208.417 88.4922 209.828 87.6484Z" fill="#131212"/>
<path d="M61.3964 83.5391C59.8382 83.7317 57.7361 85.786 57.7361 85.786C57.4318 86.7857 57.0999 88.8676 57.0999 88.8676C56.98 88.6842 56.6112 88.1797 56.2885 88.0513C56.7219 88.6658 56.5559 88.73 56.5559 88.73C56.5559 88.73 56.4268 88.8492 56.058 88.1981C56.0396 88.5374 56.3346 89.0877 56.4453 89.2803C55.9658 89.317 54.9793 89.1794 53.753 89.0969C53.753 89.0969 51.7154 91.2613 50.8672 92.5728C52.241 91.674 52.9509 92.5544 52.9509 92.5544C52.9509 92.5544 53.9836 90.3808 55.5325 92.4994C55.7353 90.2616 58.3815 91.6281 58.3815 91.6281C58.3815 91.6281 58.0219 88.5007 60.1425 89.2895C58.8978 86.9875 60.8524 86.7949 60.8524 86.7949C60.8524 86.7949 59.9857 84.3828 61.3964 83.5391Z" fill="#131212"/>
<path d="M128.573 67.0856C127.393 65.5632 123.88 64.6369 123.88 64.6369C122.626 64.9487 120.202 65.8934 120.202 65.8934C120.322 65.6457 120.626 64.9487 120.561 64.5269C120.174 65.3614 120.008 65.233 120.008 65.233C120.008 65.233 119.796 65.178 120.266 64.3801C119.888 64.5727 119.492 65.233 119.363 65.4715C119.021 64.9854 118.551 63.8574 117.869 62.5183C117.869 62.5183 114.292 61.7296 112.355 61.6562C114.172 62.5459 113.683 63.8482 113.683 63.8482C113.683 63.8482 116.643 63.5822 115.361 66.5354C117.878 65.3431 118.081 68.9933 118.081 68.9933C118.081 68.9933 121.188 66.6546 121.677 69.3876C123.346 66.6271 124.775 68.5714 124.775 68.5714C124.775 68.5714 126.785 66.1318 128.573 67.0856Z" fill="#131212"/>
<path d="M319.139 132.961C313.266 134.566 306.36 143.618 306.36 143.618C305.761 147.626 305.669 155.77 305.669 155.77C305.097 155.146 303.41 153.413 302.11 153.092C304.102 155.201 303.512 155.531 303.512 155.531C303.512 155.531 303.097 156.063 301.308 153.78C301.428 155.11 302.885 157.036 303.41 157.696C301.585 158.099 297.721 158.109 292.973 158.512C292.973 158.512 286.381 167.931 283.873 173.452C288.649 169.242 291.867 172.205 291.867 172.205C291.867 172.205 294.605 163.309 301.714 170.554C301.234 161.841 312.16 165.611 312.16 165.611C312.16 165.611 309.025 153.826 317.6 155.651C311.514 147.534 318.918 145.709 318.918 145.709C318.918 145.709 314.207 136.996 319.139 132.961Z" fill="#131212"/>
<path d="M371.362 319.691C360.713 314.711 339.156 319.397 339.156 319.397C333.219 324.542 322.809 336.373 322.809 336.373C322.754 334.741 322.459 330.1 320.956 328C321.214 333.585 319.933 333.328 319.933 333.328C319.933 333.328 318.651 333.594 318.909 328C317.416 330.1 317.121 334.741 317.056 336.373C313.866 334.695 308.177 329.88 300.709 324.542C300.709 324.542 279.153 330.146 268.504 335.126C280.831 334.906 281.808 343.27 281.808 343.27C281.808 343.27 297.058 333.631 298.358 353.138C308.638 339.757 319.933 358.916 319.933 358.916C319.933 358.916 330.185 337.694 340.475 351.075C341.775 331.558 354.95 338.116 354.95 338.116C354.95 338.116 359.044 319.47 371.362 319.691Z" fill="#131212"/>
<path d="M269.138 281.673C260.149 279.664 244.457 286.891 244.457 286.891C240.796 291.835 234.849 302.638 234.849 302.638C234.527 301.4 233.513 297.897 232 296.549C233.153 300.777 232.13 300.795 232.13 300.795C232.13 300.795 231.189 301.217 230.442 296.888C229.659 298.75 230.221 302.345 230.452 303.611C227.722 302.859 222.55 300.144 215.93 297.319C215.93 297.319 200.395 305.243 193.102 310.856C202.487 308.609 204.663 314.845 204.663 314.845C204.663 314.845 214.685 304.895 219.01 319.605C224.597 307.637 236.5 320.385 236.5 320.385C236.5 320.385 240.723 302.418 250.874 310.92C248.541 295.769 259.734 298.557 259.734 298.557C259.734 298.557 259.67 283.59 269.138 281.673Z" fill="#131212"/>
<path d="M375.98 146.376C372.32 146.339 367.618 148.329 367.618 148.329C366.198 150.805 365.22 152.905 364.538 153.786C364.308 153.327 363.616 152.053 362.925 151.658C363.727 153.208 363.33 153.3 363.33 153.3C363.33 153.3 362.998 153.538 362.344 151.924C362.196 152.713 362.713 154.061 362.915 154.538C361.791 154.474 359.55 153.85 356.747 153.3C356.747 153.3 352.174 155.547 349.805 158.335C353.262 156.684 353.124 161.022 353.124 161.022C353.124 161.022 355.641 157.454 358.554 162.81C359.716 157.693 366.677 160.554 366.677 160.554C366.677 160.554 369.037 153.437 373.694 155.895C371.508 150.2 375.869 150.631 375.869 150.631C375.869 150.631 372.467 147.907 375.98 146.376Z" fill="#131212"/>
<path d="M397.61 196.939C392.041 191.574 381.936 187.795 381.936 187.795C376.137 189.538 371.554 191.317 369.203 191.693C369.517 190.657 370.337 187.703 369.849 186.08C368.807 189.62 368.069 189.18 368.069 189.18C368.069 189.18 367.212 189.07 368.576 185.64C367.193 186.63 366.013 189.455 365.626 190.464C364.003 188.74 361.486 184.53 357.983 179.614C357.983 179.614 347.675 176.414 339.967 177.248C347.693 179.734 341.101 186.181 341.101 186.181C341.101 186.181 350.192 184.356 346.799 196.801C356.083 190.647 362.556 205.129 362.556 205.129C362.556 205.129 376.607 197.654 380.138 208.183C385.145 196.297 391.193 203.285 391.193 203.285C391.193 203.285 389.976 194.178 397.61 196.939Z" fill="#131212"/>
<path d="M289.303 389.003C284.02 381.015 272.808 373.733 272.808 373.733C265.313 374.284 259.283 375.21 256.342 375.026C257.005 373.862 258.794 370.505 258.647 368.405C256.434 372.413 255.65 371.679 255.65 371.679C255.65 371.679 254.645 371.321 257.227 367.533C255.281 368.359 253.087 371.468 252.34 372.578C250.837 370.056 248.938 364.287 246.034 357.39C246.034 357.39 234.426 350.75 224.874 349.695C233.55 354.776 223.832 360.811 223.832 360.811C223.832 360.811 235.329 361.04 227.852 375.191C240.76 370.239 244.669 389.499 244.669 389.499C244.669 389.499 263.699 384.216 265.119 397.909C274.403 384.867 279.825 394.946 279.825 394.946C279.825 394.946 280.811 383.62 289.303 389.003Z" fill="#131212"/>
<path d="M275.16 217.416C266.05 216.683 251.649 225.937 251.649 225.937C248.744 231.293 244.411 242.72 244.411 242.72C243.922 241.546 242.438 238.254 240.769 237.125C242.493 241.124 241.488 241.28 241.488 241.28C241.488 241.28 240.631 241.821 239.285 237.685C238.768 239.62 239.829 243.078 240.234 244.279C237.459 243.921 231.992 241.968 225.095 240.106C225.095 240.106 210.943 250.029 204.562 256.541C213.469 253.038 216.475 258.861 216.475 258.861C216.475 258.861 224.929 247.709 231.217 261.558C235.034 249.03 248.496 259.916 248.496 259.916C248.496 259.916 250.146 241.693 261.293 248.645C256.886 234.09 268.272 235.291 268.272 235.291C268.272 235.291 266.133 220.599 275.16 217.416Z" fill="#131212"/>
<path d="M356.396 273.582C347.314 273.426 335.633 278.259 335.633 278.259C332.074 284.367 329.594 289.549 327.879 291.732C327.316 290.595 325.638 287.421 323.914 286.412C325.878 290.264 324.892 290.484 324.892 290.484C324.892 290.484 324.071 291.071 322.476 287.054C322.089 288.999 323.352 292.365 323.831 293.539C321.056 293.355 315.515 291.759 308.554 290.347C308.554 290.347 297.167 295.822 291.248 302.682C299.859 298.656 299.417 309.414 299.417 309.414C299.417 309.414 305.723 300.619 312.841 313.954C315.828 301.297 333.024 308.524 333.024 308.524C333.024 308.524 339.017 290.943 350.514 297.124C345.222 282.973 356.018 284.129 356.018 284.129C356.018 284.129 347.646 277.305 356.396 273.582Z" fill="#131212"/>
<path d="M440.149 265.563C432.625 258.3 418.952 253.2 418.952 253.2C411.106 255.557 404.91 257.969 401.729 258.465C402.153 257.071 403.26 253.072 402.605 250.871C401.203 255.658 400.199 255.071 400.199 255.071C400.199 255.071 399.037 254.925 400.89 250.284C399.018 251.623 397.423 255.447 396.898 256.814C394.703 254.475 391.301 248.789 386.562 242.14C386.562 242.14 372.622 237.811 362.203 238.948C372.649 242.314 363.743 251.027 363.743 251.027C363.743 251.027 376.033 248.56 371.451 265.389C384.008 257.071 392.767 276.651 392.767 276.651C392.767 276.651 411.77 266.545 416.545 280.778C423.313 264.701 431.491 274.157 431.491 274.157C431.491 274.157 429.822 261.831 440.149 265.563Z" fill="#131212"/>
<path d="M222.974 193.004C217.212 187.437 206.729 183.53 206.729 183.53C200.717 185.336 195.969 187.18 193.535 187.565C193.858 186.492 194.706 183.429 194.208 181.75C193.129 185.419 192.364 184.97 192.364 184.97C192.364 184.97 191.479 184.859 192.89 181.301C191.451 182.328 190.234 185.254 189.829 186.299C188.141 184.511 185.541 180.145 181.909 175.055C181.909 175.055 171.223 171.735 163.238 172.607C171.25 175.184 164.418 181.86 164.418 181.86C164.418 181.86 173.841 179.971 170.328 192.866C179.954 186.492 186.666 201.496 186.666 201.496C186.666 201.496 201.224 193.746 204.885 204.66C210.076 192.343 216.336 199.589 216.336 199.589C216.336 199.589 215.054 190.142 222.974 193.004Z" fill="#131212"/>
<path d="M111.257 118.106C107.458 116.547 101.733 116.666 101.733 116.666C99.2157 118.656 97.3164 120.436 96.2285 121.078C96.1824 120.509 95.998 118.895 95.4356 118.189C95.62 120.133 95.1682 120.069 95.1682 120.069C95.1682 120.069 94.7256 120.179 94.7164 118.225C94.2278 118.986 94.2093 120.61 94.2185 121.178C93.0753 120.646 91.01 119.069 88.3086 117.326C88.3086 117.326 82.6014 117.767 78.9688 119.684C83.2652 119.399 81.2922 123.856 81.2922 123.856C81.2922 123.856 85.4043 121.178 86.1972 127.974C89.5532 123.123 95.6108 128.992 95.6108 128.992C95.6108 128.992 101.051 122.563 104.877 127.057C104.997 120.225 109.358 122.481 109.358 122.481C109.358 122.481 106.951 118.244 111.257 118.106Z" fill="#131212"/>
<path d="M347.26 277.988C341.248 268.9 328.488 260.618 328.488 260.618C319.959 261.242 313.1 262.306 309.753 262.095C310.509 260.765 312.537 256.95 312.381 254.565C309.854 259.123 308.969 258.298 308.969 258.298C308.969 258.298 307.826 257.885 310.758 253.584C308.545 254.519 306.047 258.059 305.198 259.325C303.493 256.454 301.326 249.888 298.016 242.046C298.016 242.046 284.804 234.489 273.933 233.297C283.808 239.084 272.744 245.944 272.744 245.944C272.744 245.944 285.827 246.21 277.317 262.306C292.005 256.665 296.449 278.585 296.449 278.585C296.449 278.585 318.106 272.577 319.72 288.159C330.277 273.32 336.454 284.794 336.454 284.794C336.454 284.794 337.597 271.862 347.26 277.988Z" fill="#131212"/>
<path d="M352.072 387.746C346.061 378.658 333.3 370.376 333.3 370.376C324.772 371 317.912 372.063 314.566 371.853C315.322 370.523 317.35 366.707 317.193 364.323C314.667 368.881 313.782 368.056 313.782 368.056C313.782 368.056 312.639 367.643 315.57 363.342C313.358 364.277 310.859 367.817 310.011 369.083C308.305 366.212 306.138 359.646 302.829 351.804C302.829 351.804 289.616 344.247 278.746 343.055C288.621 348.842 277.557 355.702 277.557 355.702C277.557 355.702 290.64 355.968 282.13 372.063C296.817 366.423 301.261 388.342 301.261 388.342C301.261 388.342 322.919 382.335 324.532 397.917C335.089 383.078 341.266 394.551 341.266 394.551C341.266 394.551 342.41 381.62 352.072 387.746Z" fill="#131212"/>
<path d="M397.612 215.591C387.719 210.959 367.675 215.325 367.675 215.325C362.161 220.112 352.471 231.108 352.471 231.108C352.416 229.586 352.139 225.276 350.747 223.322C350.986 228.522 349.797 228.275 349.797 228.275C349.797 228.275 348.608 228.522 348.847 223.322C347.455 225.276 347.179 229.586 347.123 231.108C344.164 229.54 338.862 225.074 331.92 220.112C331.92 220.112 311.875 225.321 301.982 229.953C313.443 229.751 314.346 237.528 314.346 237.528C314.346 237.528 328.527 228.559 329.734 246.709C339.296 234.263 349.788 252.083 349.788 252.083C349.788 252.083 359.321 232.356 368.882 244.801C370.09 226.66 382.343 232.75 382.343 232.75C382.343 232.75 386.151 215.389 397.612 215.591Z" fill="#131212"/>
<path d="M348.918 349.569C342.178 346.414 328.533 349.385 328.533 349.385C324.78 352.641 318.179 360.134 318.179 360.134C318.142 359.098 317.957 356.163 317.008 354.833C317.174 358.373 316.362 358.208 316.362 358.208C316.362 358.208 315.551 358.373 315.717 354.833C314.767 356.163 314.583 359.098 314.546 360.134C312.527 359.07 308.922 356.025 304.192 352.641C304.192 352.641 290.546 356.19 283.807 359.345C291.607 359.208 292.224 364.499 292.224 364.499C292.224 364.499 301.878 358.391 302.698 370.745C309.208 362.271 316.353 374.404 316.353 374.404C316.353 374.404 322.844 360.968 329.353 369.443C330.174 357.089 338.518 361.234 338.518 361.234C338.518 361.234 341.118 349.431 348.918 349.569Z" fill="#131212"/>
<path d="M296.688 351.315C288.943 347.692 273.251 351.104 273.251 351.104C268.927 354.846 261.348 363.467 261.348 363.467C261.302 362.275 261.09 358.9 260.002 357.368C260.196 361.44 259.255 361.248 259.255 361.248C259.255 361.248 258.324 361.44 258.508 357.368C257.42 358.9 257.199 362.275 257.162 363.467C254.839 362.247 250.699 358.744 245.259 354.855C245.259 354.855 229.567 358.936 221.822 362.559C230.793 362.403 231.503 368.493 231.503 368.493C231.503 368.493 242.604 361.477 243.544 375.683C251.031 365.943 259.246 379.893 259.246 379.893C259.246 379.893 266.714 364.448 274.201 374.188C275.141 359.982 284.739 364.751 284.739 364.751C284.739 364.751 287.717 351.159 296.688 351.315Z" fill="#131212"/>
<path d="M320.669 343.85C312.887 338.137 294.752 338.467 294.752 338.467C289.137 341.667 278.829 349.546 278.829 349.546C279.05 348.216 279.557 344.428 278.69 342.493C277.999 347.042 277.003 346.629 277.003 346.629C277.003 346.629 275.924 346.638 277.04 342.172C275.491 343.621 274.505 347.317 274.191 348.628C271.895 346.767 268.078 341.979 262.924 336.477C262.924 336.477 244.641 337.55 235.246 339.861C245.222 341.658 244.66 348.555 244.66 348.555C244.66 348.555 258.517 343.217 256.406 359.157C266.861 350.013 272.863 367.265 272.863 367.265C272.863 367.265 284.564 351.793 290.686 364.229C294.89 348.702 304.451 356.094 304.451 356.094C304.451 356.094 310.767 341.704 320.669 343.85Z" fill="#131212"/>
<path d="M258.011 360.335C250.229 354.621 232.093 354.951 232.093 354.951C226.478 358.152 216.171 366.03 216.171 366.03C216.392 364.7 216.899 360.912 216.032 358.977C215.341 363.526 214.345 363.114 214.345 363.114C214.345 363.114 213.266 363.123 214.382 358.656C212.833 360.105 211.846 363.801 211.533 365.113C209.237 363.251 205.42 358.464 200.266 352.961C200.266 352.961 181.983 354.034 172.588 356.345C182.564 358.143 182.001 365.039 182.001 365.039C182.001 365.039 195.859 359.702 193.748 375.641C204.203 366.498 210.205 383.749 210.205 383.749C210.205 383.749 221.905 368.277 228.027 380.713C232.232 365.186 241.793 372.578 241.793 372.578C241.793 372.578 248.108 358.189 258.011 360.335Z" fill="#131212"/>
<path d="M251.252 354.175C240.603 349.195 219.047 353.881 219.047 353.881C213.109 359.026 202.7 370.857 202.7 370.857C202.645 369.225 202.35 364.584 200.847 362.484C201.105 368.079 199.823 367.813 199.823 367.813C199.823 367.813 198.542 368.079 198.8 362.484C197.306 364.584 197.011 369.225 196.947 370.857C193.757 369.179 188.068 364.364 180.6 359.026C180.6 359.026 159.044 364.63 148.395 369.61C160.722 369.39 161.699 377.754 161.699 377.754C161.699 377.754 176.949 368.115 178.249 387.623C188.529 374.242 199.823 393.4 199.823 393.4C199.823 393.4 210.076 372.178 220.365 385.559C221.665 366.043 234.841 372.6 234.841 372.6C234.841 372.6 238.925 353.955 251.252 354.175Z" fill="#131212"/>
<path d="M187.589 351.49C175.64 345.905 151.447 351.169 151.447 351.169C144.79 356.947 133.099 370.227 133.099 370.227C133.035 368.393 132.703 363.184 131.025 360.827C131.32 367.1 129.881 366.806 129.881 366.806C129.881 366.806 128.443 367.1 128.738 360.827C127.06 363.184 126.728 368.393 126.664 370.227C123.086 368.338 116.697 362.945 108.316 356.947C108.316 356.947 84.1229 363.239 72.1738 368.824C86.0037 368.576 87.1009 377.968 87.1009 377.968C87.1009 377.968 104.213 367.146 105.67 389.047C117.213 374.024 129.881 395.531 129.881 395.531C129.881 395.531 141.388 371.713 152.931 386.735C154.388 364.834 169.177 372.19 169.177 372.19C169.177 372.19 173.75 351.252 187.589 351.49Z" fill="#131212"/>
<path d="M410.168 389.003C404.885 381.015 393.674 373.733 393.674 373.733C386.178 374.284 380.148 375.21 377.207 375.026C377.871 373.862 379.659 370.505 379.512 368.405C377.299 372.413 376.515 371.679 376.515 371.679C376.515 371.679 375.51 371.321 378.092 367.533C376.147 368.359 373.952 371.468 373.205 372.578C371.712 370.056 369.803 364.287 366.899 357.39C366.899 357.39 355.291 350.75 345.739 349.695C354.415 354.776 344.697 360.811 344.697 360.811C344.697 360.811 356.195 361.04 348.717 375.191C361.625 370.239 365.534 389.499 365.534 389.499C365.534 389.499 384.564 384.216 385.984 397.909C395.269 384.867 400.69 394.946 400.69 394.946C400.69 394.946 401.677 383.62 410.168 389.003Z" fill="#131212"/>
<path d="M316.621 211.354C313.311 209.804 306.618 211.262 306.618 211.262C304.774 212.858 301.538 216.536 301.538 216.536C301.519 216.031 301.427 214.582 300.966 213.931C301.049 215.665 300.653 215.582 300.653 215.582C300.653 215.582 300.256 215.665 300.339 213.931C299.878 214.582 299.786 216.022 299.767 216.536C298.781 216.013 297.011 214.518 294.687 212.858C294.687 212.858 287.994 214.601 284.684 216.141C288.51 216.077 288.814 218.673 288.814 218.673C288.814 218.673 293.553 215.674 293.95 221.736C297.14 217.581 300.653 223.534 300.653 223.534C300.653 223.534 303.833 216.939 307.033 221.103C307.438 215.041 311.532 217.077 311.532 217.077C311.532 217.077 312.795 211.29 316.621 211.354Z" fill="#131212"/>
<path d="M323.453 115.276C320.669 113.992 315.045 115.239 315.045 115.239C313.505 116.587 310.794 119.687 310.794 119.687C310.776 119.256 310.693 118.045 310.296 117.504C310.37 118.962 310.038 118.898 310.038 118.898C310.038 118.898 309.706 118.972 309.761 117.513C309.374 118.064 309.301 119.274 309.291 119.705C308.462 119.274 306.968 118.027 305.013 116.633C305.013 116.633 299.389 118.119 296.623 119.439C299.841 119.366 300.108 121.549 300.108 121.549C300.108 121.549 304.073 119.018 304.442 124.108C307.106 120.604 310.084 125.593 310.084 125.593C310.084 125.593 312.73 120.045 315.432 123.521C315.745 118.421 319.194 120.118 319.194 120.118C319.194 120.118 320.235 115.239 323.453 115.276Z" fill="#131212"/>
<path d="M460.324 350.706C449.675 345.726 428.119 350.413 428.119 350.413C422.182 355.558 411.772 367.389 411.772 367.389C411.717 365.756 411.422 361.116 409.919 359.015C410.177 364.601 408.896 364.344 408.896 364.344C408.896 364.344 407.614 364.61 407.872 359.015C406.379 361.116 406.084 365.756 406.019 367.389C402.829 365.71 397.14 360.895 389.672 355.558C389.672 355.558 368.116 361.161 357.467 366.141C369.794 365.921 370.771 374.285 370.771 374.285C370.771 374.285 386.021 364.646 387.321 384.154C397.601 370.773 408.896 389.932 408.896 389.932C408.896 389.932 419.148 368.709 429.438 382.09C430.738 362.574 443.913 369.131 443.913 369.131C443.913 369.131 447.997 350.495 460.324 350.706Z" fill="#131212"/>
<path d="M383.088 303.129C374.763 302.982 364.049 307.412 364.049 307.412C360.785 313.015 358.508 317.757 356.94 319.765C356.424 318.729 354.884 315.812 353.308 314.895C355.106 318.426 354.202 318.628 354.202 318.628C354.202 318.628 353.446 319.169 351.989 315.482C351.63 317.271 352.791 320.352 353.234 321.425C350.689 321.26 345.609 319.793 339.229 318.5C339.229 318.5 328.783 323.525 323.361 329.808C331.254 326.112 330.848 335.98 330.848 335.98C330.848 335.98 336.629 327.909 343.157 340.144C345.895 328.533 361.661 335.164 361.661 335.164C361.661 335.164 367.156 319.041 377.695 324.718C372.845 311.74 382.747 312.804 382.747 312.804C382.747 312.804 375.067 306.54 383.088 303.129Z" fill="#131212"/>
<path d="M434.508 314.12C423.859 309.14 402.303 313.827 402.303 313.827C396.365 318.972 385.956 330.803 385.956 330.803C385.901 329.17 385.605 324.53 384.103 322.429C384.361 328.024 383.079 327.758 383.079 327.758C383.079 327.758 381.798 328.024 382.056 322.429C380.562 324.53 380.267 329.17 380.203 330.803C377.012 329.124 371.324 324.309 363.856 318.972C363.856 318.972 342.299 324.575 331.65 329.555C343.977 329.335 344.955 337.7 344.955 337.7C344.955 337.7 360.205 328.061 361.505 347.568C371.785 334.187 383.079 353.346 383.079 353.346C383.079 353.346 393.332 332.123 403.621 345.504C404.921 325.988 418.097 332.545 418.097 332.545C418.097 332.545 422.19 313.9 434.508 314.12Z" fill="#131212"/>
</g>
<defs>
<clipPath id="clip0_1_24482">
<rect width="375" height="359" fill="white" transform="translate(0.5)"/>
</clipPath>
</defs>
</svg>
