<svg width="85" height="32" viewBox="0 0 85 32" fill="none" xmlns="http://www.w3.org/2000/svg">
<g id="logos:visa">
<path id="Vector" d="M43.9084 11.9694C43.8616 15.3127 47.1958 17.1783 49.7074 18.2876C52.2878 19.4256 53.1546 20.1555 53.1443 21.1733C53.1251 22.7309 51.086 23.4184 49.1779 23.4451C45.8489 23.4918 43.9132 22.6305 42.3744 21.979L41.1752 27.0651C42.7191 27.7099 45.5779 28.2722 48.5424 28.2969C55.5012 28.2969 60.0538 25.1835 60.0784 20.3564C60.1057 14.2301 50.7291 13.891 50.7932 11.1527C50.8153 10.3224 51.6894 9.43637 53.6049 9.21109C54.553 9.09728 57.1703 9.01019 60.1377 10.2487L61.3023 5.3278C59.7065 4.80116 57.6556 4.29688 55.1021 4.29688C48.5523 4.29688 43.9456 7.45263 43.9084 11.9694ZM72.4934 4.72074C71.2227 4.72074 70.1519 5.39253 69.674 6.42345L59.7338 27.9354H66.6874L68.0712 24.4693H76.5684L77.3711 27.9354H83.5L78.1517 4.72074H72.4934ZM73.4662 10.9919L75.473 19.7093H69.977L73.4662 10.9919ZM35.4775 4.72103L29.9963 27.9351H36.6226L42.1012 4.72045H35.4775V4.72103ZM25.6749 4.72045L18.778 20.5216L15.9881 7.08654C15.6607 5.58676 14.3679 4.72074 12.9323 4.72074H1.65791L1.5 5.39486C3.81458 5.85007 6.44434 6.58429 8.03758 7.36989C9.01261 7.84978 9.29064 8.26929 9.61095 9.40966L14.8951 27.9354H21.8975L32.6331 4.72074H25.6749" fill="url(#paint0_linear_1_28861)"/>
</g>
<defs>
<linearGradient id="paint0_linear_1_28861" x1="39.1987" y1="28.7783" x2="39.8284" y2="4.12647" gradientUnits="userSpaceOnUse">
<stop stop-color="#222357"/>
<stop offset="1" stop-color="#254AA5"/>
</linearGradient>
</defs>
</svg>
