<!-- Generated by IcoMoon.io -->
<svg version="1.1" xmlns="http://www.w3.org/2000/svg" width="55" height="32" viewBox="0 0 55 32">
<title>master-card</title>
<path fill="#f9b50b" d="M54.332 16c0 8.779-7.138 16-16 16-8.779 0-16-7.221-16-16s7.139-16 15.918-16c8.944 0 16.082 7.221 16.082 16z"></path>
<path fill="#c8191c" d="M32.918 16.082c0-1.149-0.164-2.297-0.328-3.364h-9.846c0.082-0.574 0.246-1.067 0.41-1.723h8.779c-0.164-0.574-0.41-1.149-0.656-1.723h-7.467c0.246-0.574 0.574-1.067 0.902-1.723h5.662c-0.328-0.574-0.738-1.149-1.231-1.723h-3.118c0.492-0.574 0.985-1.067 1.641-1.641-2.79-2.626-6.564-4.185-10.749-4.185-8.697 0.246-15.918 7.221-15.918 16s7.138 16 16 16c4.185 0 7.877-1.641 10.749-4.185 0.574-0.492 1.067-1.067 1.641-1.723h-3.282c-0.41-0.492-0.82-1.067-1.149-1.641h5.579c0.328-0.492 0.656-1.067 0.902-1.723h-7.467c-0.246-0.492-0.492-1.067-0.656-1.723h8.779c0.492-1.477 0.821-3.118 0.821-4.923z"></path>
<path fill="#fff" d="M22.661 20.099l0.246-1.477c-0.082 0-0.246 0.082-0.41 0.082-0.574 0-0.657-0.328-0.574-0.492l0.492-2.954h0.903l0.246-1.641h-0.82l0.164-0.985h-1.723c0 0-0.985 5.579-0.985 6.236 0 0.985 0.574 1.477 1.395 1.477 0.492 0 0.903-0.164 1.067-0.246z"></path>
<path fill="#fff" d="M23.236 17.394c0 2.38 1.641 2.954 2.954 2.954 1.231 0 1.805-0.246 1.805-0.246l0.328-1.641c0 0-0.903 0.41-1.805 0.41-1.887 0-1.559-1.395-1.559-1.395h3.446c0 0 0.246-1.067 0.246-1.559 0-1.067-0.574-2.461-2.462-2.461-1.641-0.082-2.954 1.805-2.954 3.939zM26.19 14.933c0.902 0 0.738 1.067 0.738 1.149h-1.887c0.082-0.082 0.246-1.149 1.149-1.149z"></path>
<path fill="#fff" d="M36.939 20.1l0.328-1.887c0 0-0.821 0.41-1.477 0.41-1.149 0-1.723-0.903-1.723-1.969 0-2.051 0.985-3.118 2.215-3.118 0.821 0 1.559 0.492 1.559 0.492l0.246-1.805c0 0-0.985-0.41-1.969-0.41-1.969 0-3.856 1.723-3.856 4.923 0 2.133 0.985 3.528 3.036 3.528 0.739 0.082 1.641-0.164 1.641-0.164z"></path>
<path fill="#fff" d="M13.389 13.375c-1.149 0-2.051 0.328-2.051 0.328l-0.246 1.477c0 0 0.739-0.328 1.887-0.328 0.574 0 1.067 0.082 1.067 0.574 0 0.328-0.082 0.41-0.082 0.41h-0.738c-1.477 0-3.036 0.574-3.036 2.544 0 1.559 0.985 1.887 1.641 1.887 1.149 0 1.723-0.738 1.805-0.738l-0.082 0.657h1.395l0.656-4.677c0-2.051-1.641-2.133-2.215-2.133zM13.718 17.149c0 0.246-0.164 1.641-1.149 1.641-0.492 0-0.656-0.41-0.656-0.656 0-0.41 0.246-0.985 1.559-0.985 0.164 0 0.246 0 0.246 0z"></path>
<path fill="#fff" d="M17.247 20.263c0.41 0 2.544 0.082 2.544-2.215 0-2.133-2.051-1.723-2.051-2.544 0-0.41 0.328-0.574 0.903-0.574 0.246 0 1.149 0.082 1.149 0.082l0.246-1.559c0 0-0.574-0.164-1.641-0.164-1.231 0-2.544 0.492-2.544 2.215 0 1.969 2.133 1.805 2.133 2.544 0 0.492-0.574 0.574-0.985 0.574-0.738 0-1.559-0.246-1.559-0.246l-0.246 1.559c0.164 0.164 0.656 0.328 2.051 0.328z"></path>
<path fill="#fff" d="M51.052 12.063l-0.328 2.297c0 0-0.657-0.821-1.641-0.821-1.559 0-2.872 1.887-2.872 4.103 0 1.395 0.656 2.79 2.133 2.79 0.985 0 1.641-0.656 1.641-0.656l-0.082 0.574h1.723l1.231-8.123-1.805-0.164zM50.231 16.493c0 0.902-0.41 2.133-1.395 2.133-0.574 0-0.903-0.492-0.903-1.395 0-1.395 0.574-2.215 1.395-2.215 0.574 0.082 0.903 0.492 0.903 1.477z"></path>
<path fill="#fff" d="M4.118 20.186l0.985-6.072 0.164 6.072h1.149l2.215-6.072-0.903 6.072h1.805l1.395-8.123h-2.79l-1.723 5.005-0.082-5.005h-2.462l-1.395 8.123h1.641z"></path>
<path fill="#fff" d="M30.375 20.185c0.492-2.79 0.574-5.087 1.805-4.677 0.164-1.067 0.41-1.559 0.574-1.969h-0.328c-0.738 0-1.395 0.985-1.395 0.985l0.164-0.903h-1.641l-1.067 6.564h1.887z"></path>
<path fill="#fff" d="M40.876 13.375c-1.149 0-2.051 0.328-2.051 0.328l-0.246 1.477c0 0 0.739-0.328 1.887-0.328 0.574 0 1.067 0.082 1.067 0.574 0 0.328-0.082 0.41-0.082 0.41h-0.738c-1.477 0-3.036 0.574-3.036 2.544 0 1.559 0.985 1.887 1.641 1.887 1.149 0 1.723-0.738 1.805-0.738l-0.082 0.657h1.559l0.656-4.677c0-2.051-1.805-2.133-2.38-2.133zM41.286 17.149c0 0.246-0.164 1.641-1.149 1.641-0.492 0-0.656-0.41-0.656-0.656 0-0.41 0.246-0.985 1.559-0.985 0.164 0 0.164 0 0.246 0z"></path>
<path fill="#fff" d="M44.569 20.185c0.492-2.79 0.574-5.087 1.805-4.677 0.164-1.067 0.41-1.559 0.574-1.969h-0.328c-0.739 0-1.395 0.985-1.395 0.985l0.164-0.903h-1.641l-1.067 6.564h1.887z"></path>
</svg>
