<!-- Generated by IcoMoon.io -->
<svg version="1.1" xmlns="http://www.w3.org/2000/svg" width="92" height="32" viewBox="0 0 92 32">
<title>Frame</title>
<path fill="#00489a" d="M0.739 29.11l0.919-0.089c0.060 0.311 0.166 0.533 0.347 0.681 0.166 0.148 0.407 0.207 0.693 0.207 0.301 0 0.542-0.059 0.693-0.193s0.241-0.281 0.241-0.444c0-0.104-0.030-0.207-0.105-0.281-0.060-0.074-0.181-0.148-0.347-0.207-0.105-0.045-0.362-0.104-0.768-0.207-0.512-0.119-0.874-0.281-1.070-0.459-0.286-0.252-0.437-0.563-0.437-0.933 0-0.237 0.075-0.459 0.211-0.667s0.332-0.355 0.588-0.474c0.256-0.104 0.558-0.163 0.919-0.163 0.588 0 1.040 0.133 1.341 0.385s0.452 0.593 0.467 1.022l-0.949 0.030c-0.045-0.237-0.136-0.415-0.256-0.519-0.136-0.104-0.331-0.163-0.603-0.163s-0.497 0.059-0.648 0.163c-0.105 0.074-0.151 0.163-0.151 0.282 0 0.104 0.045 0.207 0.136 0.281 0.121 0.104 0.407 0.207 0.874 0.311s0.799 0.222 1.025 0.341 0.392 0.267 0.527 0.474c0.121 0.207 0.181 0.445 0.181 0.741 0 0.267-0.075 0.519-0.226 0.756s-0.362 0.4-0.633 0.519c-0.271 0.118-0.618 0.163-1.025 0.163-0.603 0-1.055-0.133-1.371-0.415-0.316-0.222-0.512-0.622-0.573-1.141z"></path>
<path fill="#00489a" d="M5.576 25.989h0.904v0.815h-0.904v-0.815zM5.576 27.263h0.904v3.363h-0.904v-3.363z"></path>
<path fill="#00489a" d="M10.715 30.626h-0.904v-1.718c0-0.37-0.015-0.593-0.060-0.711-0.045-0.104-0.105-0.193-0.181-0.252-0.090-0.059-0.196-0.089-0.316-0.089-0.151 0-0.301 0.044-0.422 0.133s-0.211 0.193-0.256 0.341c-0.045 0.133-0.060 0.4-0.060 0.77v1.526h-0.904v-3.363h0.844v0.489c0.301-0.385 0.678-0.578 1.13-0.578 0.196 0 0.377 0.030 0.542 0.104s0.286 0.163 0.377 0.267c0.090 0.104 0.151 0.237 0.181 0.37s0.045 0.341 0.045 0.593v2.118z"></path>
<path fill="#00489a" d="M11.74 30.844l1.025 0.104c0.015 0.133 0.060 0.207 0.121 0.267 0.090 0.074 0.226 0.104 0.407 0.104 0.241 0 0.422-0.030 0.527-0.104 0.075-0.044 0.136-0.118 0.181-0.222 0.030-0.074 0.045-0.207 0.045-0.415v-0.489c-0.271 0.355-0.603 0.533-1.025 0.533-0.467 0-0.829-0.193-1.085-0.578-0.211-0.296-0.316-0.681-0.316-1.126 0-0.563 0.136-0.993 0.407-1.289s0.618-0.444 1.025-0.444c0.422 0 0.768 0.178 1.040 0.548v-0.459h0.844v3.022c0 0.4-0.030 0.696-0.105 0.889-0.060 0.193-0.166 0.356-0.286 0.459s-0.286 0.193-0.482 0.267c-0.196 0.059-0.452 0.089-0.768 0.089-0.588 0-0.994-0.104-1.236-0.296s-0.362-0.444-0.362-0.755c0.045-0.030 0.045-0.059 0.045-0.104zM12.554 28.874c0 0.356 0.075 0.622 0.211 0.785s0.316 0.252 0.512 0.252c0.211 0 0.407-0.089 0.557-0.252s0.226-0.415 0.226-0.756c0-0.355-0.075-0.607-0.211-0.77s-0.332-0.252-0.542-0.252-0.392 0.074-0.527 0.252c-0.151 0.148-0.226 0.4-0.226 0.741z"></path>
<path fill="#00489a" d="M16.953 25.989h-0.904v4.637h0.904v-4.637z"></path>
<path fill="#00489a" d="M20.073 29.574l0.904 0.148c-0.121 0.326-0.301 0.563-0.558 0.741s-0.558 0.252-0.934 0.252c-0.603 0-1.040-0.193-1.326-0.578-0.226-0.311-0.347-0.696-0.347-1.17 0-0.563 0.151-0.993 0.452-1.319 0.301-0.311 0.678-0.474 1.13-0.474 0.512 0 0.919 0.163 1.205 0.489 0.301 0.341 0.437 0.845 0.422 1.526h-2.275c0 0.267 0.075 0.474 0.226 0.622 0.136 0.148 0.316 0.222 0.527 0.222 0.151 0 0.256-0.030 0.362-0.119 0.090-0.059 0.166-0.178 0.211-0.341zM20.118 28.67c0-0.267-0.075-0.459-0.211-0.593s-0.286-0.207-0.467-0.207c-0.196 0-0.362 0.074-0.497 0.207-0.136 0.148-0.196 0.341-0.196 0.593h1.371z"></path>
<path fill="#00489a" d="M23.989 30.626v-4.637h3.496v0.785h-2.531v1.022h2.35v0.785h-2.35v1.274h2.622v0.77h-3.586z"></path>
<path fill="#00489a" d="M30.829 30.62v-0.504c-0.12 0.178-0.286 0.326-0.497 0.43s-0.422 0.163-0.648 0.163c-0.226 0-0.437-0.044-0.618-0.148s-0.316-0.237-0.392-0.415c-0.075-0.178-0.121-0.43-0.121-0.741v-2.133h0.904v1.541c0 0.474 0.015 0.755 0.045 0.874 0.030 0.104 0.090 0.193 0.181 0.252s0.196 0.089 0.331 0.089c0.151 0 0.286-0.044 0.422-0.119 0.121-0.089 0.211-0.193 0.256-0.311s0.060-0.43 0.060-0.904v-1.422h0.904v3.348h-0.829z"></path>
<path fill="#00489a" d="M33.665 30.622h-0.904v-3.363h0.844v0.474c0.151-0.222 0.271-0.37 0.392-0.444s0.241-0.104 0.392-0.104c0.211 0 0.407 0.059 0.603 0.163l-0.271 0.77c-0.151-0.104-0.301-0.148-0.422-0.148s-0.241 0.030-0.316 0.104c-0.090 0.074-0.166 0.193-0.211 0.37s-0.075 0.563-0.075 1.126v1.052z"></path>
<path fill="#00489a" d="M35.337 28.903c0-0.296 0.075-0.578 0.226-0.859s0.362-0.489 0.633-0.637c0.271-0.148 0.573-0.222 0.904-0.222 0.512 0 0.949 0.163 1.266 0.489 0.332 0.341 0.497 0.755 0.497 1.259 0 0.519-0.166 0.933-0.497 1.274s-0.753 0.504-1.266 0.504c-0.316 0-0.618-0.074-0.904-0.207s-0.497-0.341-0.648-0.607c-0.136-0.282-0.211-0.607-0.211-0.993zM36.271 28.948c0 0.341 0.075 0.593 0.241 0.77s0.362 0.267 0.603 0.267c0.241 0 0.437-0.089 0.588-0.267 0.166-0.178 0.241-0.43 0.241-0.77 0-0.326-0.075-0.578-0.241-0.756s-0.362-0.267-0.588-0.267c-0.241 0-0.437 0.089-0.603 0.267-0.166 0.163-0.241 0.415-0.241 0.756z"></path>
<path fill="#00489a" d="M41.831 30.626v-4.637h1.522c0.588 0 0.949 0.030 1.13 0.074 0.271 0.074 0.497 0.222 0.678 0.459s0.271 0.533 0.271 0.904c0 0.282-0.045 0.519-0.151 0.726-0.105 0.193-0.241 0.341-0.392 0.459-0.166 0.104-0.331 0.178-0.497 0.222-0.226 0.045-0.557 0.074-0.995 0.074h-0.618v1.718h-0.949zM42.781 26.774v1.319h0.527c0.377 0 0.618-0.030 0.753-0.074 0.12-0.059 0.226-0.133 0.301-0.237s0.105-0.222 0.105-0.356c0-0.178-0.045-0.311-0.151-0.415s-0.226-0.178-0.377-0.207c-0.121-0.030-0.347-0.030-0.693-0.030h-0.467z"></path>
<path fill="#00489a" d="M47.073 28.285l-0.814-0.148c0.090-0.326 0.256-0.563 0.467-0.726 0.226-0.163 0.557-0.237 1.010-0.237 0.407 0 0.708 0.045 0.904 0.133s0.331 0.207 0.422 0.355c0.075 0.148 0.12 0.415 0.12 0.8l-0.015 1.037c0 0.296 0.015 0.519 0.045 0.652s0.075 0.296 0.166 0.445h-0.904c-0.030-0.059-0.045-0.148-0.090-0.252-0.015-0.059-0.030-0.089-0.030-0.104-0.151 0.148-0.316 0.267-0.497 0.341s-0.362 0.119-0.557 0.119c-0.347 0-0.633-0.089-0.829-0.281s-0.301-0.43-0.301-0.711c0-0.193 0.045-0.356 0.136-0.504s0.226-0.267 0.392-0.341c0.166-0.074 0.407-0.148 0.723-0.207 0.422-0.074 0.708-0.148 0.874-0.222v-0.089c0-0.178-0.045-0.296-0.136-0.37s-0.256-0.104-0.497-0.104c-0.166 0-0.286 0.030-0.377 0.089-0.075 0.059-0.151 0.178-0.211 0.326zM48.293 29.011c-0.121 0.045-0.301 0.089-0.557 0.133s-0.407 0.104-0.497 0.163c-0.12 0.089-0.181 0.193-0.181 0.311s0.045 0.237 0.136 0.326c0.090 0.089 0.211 0.133 0.362 0.133 0.166 0 0.317-0.059 0.467-0.163 0.106-0.074 0.181-0.178 0.211-0.296 0.030-0.074 0.030-0.222 0.030-0.43v-0.178h0.030z"></path>
<path fill="#00489a" d="M49.831 27.261h0.964l0.814 2.385 0.799-2.385h0.934l-1.205 3.229-0.226 0.593c-0.075 0.193-0.151 0.341-0.226 0.444s-0.151 0.193-0.241 0.252-0.211 0.119-0.347 0.148c-0.136 0.030-0.286 0.059-0.467 0.059s-0.347-0.015-0.512-0.059l-0.090-0.696c0.136 0.030 0.271 0.045 0.392 0.045 0.211 0 0.362-0.059 0.467-0.178s0.181-0.281 0.226-0.474l-1.281-3.363z"></path>
<path fill="#00489a" d="M54.064 27.263h0.829v0.459c0.301-0.355 0.663-0.548 1.070-0.548 0.226 0 0.407 0.045 0.573 0.133s0.286 0.222 0.392 0.4c0.151-0.178 0.317-0.311 0.482-0.4 0.181-0.089 0.362-0.133 0.557-0.133 0.256 0 0.467 0.045 0.633 0.148s0.301 0.252 0.392 0.445c0.060 0.148 0.090 0.37 0.090 0.696v2.163h-0.904v-1.926c0-0.341-0.030-0.548-0.090-0.652-0.090-0.133-0.211-0.193-0.392-0.193-0.12 0-0.241 0.030-0.362 0.118-0.105 0.074-0.196 0.193-0.241 0.341s-0.075 0.385-0.075 0.696v1.615h-0.904v-1.837c0-0.326-0.015-0.548-0.045-0.637-0.030-0.104-0.075-0.163-0.151-0.207s-0.166-0.074-0.271-0.074c-0.136 0-0.256 0.030-0.377 0.104-0.105 0.074-0.196 0.178-0.241 0.326-0.045 0.133-0.075 0.37-0.075 0.696v1.63h-0.904v-3.363z"></path>
<path fill="#00489a" d="M62.184 29.574l0.904 0.148c-0.121 0.326-0.301 0.563-0.557 0.741s-0.557 0.252-0.934 0.252c-0.603 0-1.040-0.193-1.326-0.578-0.226-0.311-0.347-0.696-0.347-1.17 0-0.563 0.151-0.993 0.452-1.319 0.301-0.311 0.678-0.474 1.13-0.474 0.512 0 0.919 0.163 1.205 0.489 0.301 0.341 0.437 0.845 0.422 1.526h-2.275c0 0.267 0.075 0.474 0.226 0.622 0.136 0.148 0.316 0.222 0.527 0.222 0.151 0 0.271-0.030 0.362-0.119 0.090-0.059 0.166-0.178 0.211-0.341zM62.229 28.67c0-0.267-0.075-0.459-0.211-0.593s-0.286-0.207-0.467-0.207c-0.196 0-0.362 0.074-0.497 0.207-0.136 0.148-0.196 0.341-0.196 0.593h1.371z"></path>
<path fill="#00489a" d="M67.175 30.626h-0.904v-1.718c0-0.37-0.015-0.593-0.060-0.711-0.045-0.104-0.105-0.193-0.181-0.252s-0.196-0.089-0.316-0.089c-0.151 0-0.301 0.044-0.422 0.133s-0.211 0.193-0.256 0.341c-0.045 0.133-0.060 0.4-0.060 0.77v1.526h-0.904v-3.363h0.844v0.489c0.301-0.385 0.678-0.578 1.13-0.578 0.196 0 0.377 0.030 0.542 0.104s0.286 0.163 0.377 0.267c0.090 0.104 0.151 0.237 0.181 0.37s0.045 0.341 0.045 0.593v2.118z"></path>
<path fill="#00489a" d="M69.857 27.264v0.711h-0.618v1.363c0 0.281 0 0.445 0.015 0.489s0.030 0.074 0.075 0.119c0.045 0.030 0.090 0.044 0.151 0.044 0.075 0 0.196-0.030 0.362-0.089l0.075 0.682c-0.211 0.089-0.452 0.133-0.708 0.133-0.166 0-0.317-0.030-0.437-0.074-0.136-0.059-0.226-0.133-0.286-0.207-0.060-0.089-0.105-0.207-0.121-0.341-0.015-0.104-0.030-0.311-0.030-0.622v-1.467h-0.422v-0.711h0.407v-0.667l0.904-0.519v1.2h0.633z"></path>
<path fill="#00489a" d="M70.367 29.678l0.904-0.133c0.030 0.178 0.121 0.311 0.241 0.385 0.121 0.089 0.286 0.133 0.497 0.133 0.241 0 0.407-0.044 0.527-0.133 0.075-0.059 0.121-0.133 0.121-0.237 0-0.074-0.015-0.119-0.060-0.163s-0.151-0.074-0.301-0.119c-0.738-0.163-1.205-0.311-1.401-0.444-0.271-0.178-0.407-0.43-0.407-0.756 0-0.296 0.121-0.533 0.347-0.741 0.241-0.193 0.603-0.296 1.1-0.296 0.467 0 0.814 0.074 1.055 0.222 0.226 0.148 0.392 0.37 0.482 0.667l-0.859 0.163c-0.030-0.133-0.105-0.237-0.211-0.296-0.105-0.074-0.256-0.104-0.437-0.104-0.241 0-0.407 0.030-0.512 0.104-0.075 0.044-0.105 0.104-0.105 0.178 0 0.059 0.030 0.119 0.090 0.163 0.075 0.059 0.362 0.148 0.844 0.252s0.814 0.237 1.010 0.4c0.196 0.163 0.286 0.385 0.286 0.667 0 0.311-0.136 0.578-0.392 0.8-0.271 0.222-0.648 0.341-1.16 0.341-0.467 0-0.829-0.089-1.1-0.281-0.301-0.193-0.482-0.445-0.558-0.77z"></path>
<path fill="#00489a" d="M80.839 30.626h-1.025l-0.407-1.052h-1.898l-0.407 1.052h-1.010l1.823-4.637h1.010l1.914 4.637zM79.076 28.804l-0.663-1.719-0.633 1.719h1.296z"></path>
<path fill="#00489a" d="M82.39 30.622h-0.904v-3.363h0.844v0.474c0.151-0.222 0.271-0.37 0.392-0.444s0.241-0.104 0.392-0.104c0.211 0 0.407 0.059 0.603 0.163l-0.271 0.77c-0.151-0.104-0.301-0.148-0.422-0.148s-0.241 0.030-0.316 0.104c-0.090 0.074-0.166 0.193-0.211 0.37s-0.075 0.563-0.075 1.126v1.052z"></path>
<path fill="#00489a" d="M86.279 29.574l0.904 0.148c-0.121 0.326-0.301 0.563-0.558 0.741s-0.558 0.252-0.934 0.252c-0.603 0-1.040-0.193-1.326-0.578-0.226-0.311-0.347-0.696-0.347-1.17 0-0.563 0.151-0.993 0.452-1.319 0.301-0.311 0.678-0.474 1.13-0.474 0.512 0 0.919 0.163 1.205 0.489 0.301 0.341 0.437 0.845 0.422 1.526h-2.275c0 0.267 0.075 0.474 0.226 0.622 0.135 0.148 0.316 0.222 0.527 0.222 0.151 0 0.271-0.030 0.362-0.119 0.090-0.059 0.166-0.178 0.211-0.341zM86.324 28.67c0-0.267-0.075-0.459-0.211-0.593s-0.286-0.207-0.467-0.207c-0.196 0-0.362 0.074-0.497 0.207-0.136 0.148-0.196 0.341-0.196 0.593h1.371z"></path>
<path fill="#00489a" d="M88.825 28.285l-0.814-0.148c0.090-0.326 0.256-0.563 0.467-0.726 0.226-0.163 0.558-0.237 1.010-0.237 0.407 0 0.708 0.045 0.904 0.133s0.332 0.207 0.422 0.355c0.075 0.148 0.121 0.415 0.121 0.8l-0.015 1.037c0 0.296 0.015 0.519 0.045 0.652s0.075 0.296 0.166 0.445h-0.904c-0.030-0.059-0.045-0.148-0.090-0.252-0.015-0.059-0.030-0.089-0.030-0.104-0.151 0.148-0.317 0.267-0.497 0.341s-0.362 0.119-0.558 0.119c-0.347 0-0.633-0.089-0.829-0.281s-0.301-0.43-0.301-0.711c0-0.193 0.045-0.356 0.135-0.504s0.226-0.267 0.392-0.341c0.166-0.074 0.407-0.148 0.723-0.207 0.422-0.074 0.708-0.148 0.874-0.222v-0.089c0-0.178-0.045-0.296-0.136-0.37s-0.256-0.104-0.497-0.104c-0.166 0-0.286 0.030-0.377 0.089-0.075 0.059-0.151 0.178-0.211 0.326zM90.046 29.011c-0.121 0.045-0.301 0.089-0.558 0.133s-0.407 0.104-0.497 0.163c-0.121 0.089-0.181 0.193-0.181 0.311s0.045 0.237 0.136 0.326c0.090 0.089 0.211 0.133 0.362 0.133 0.166 0 0.316-0.059 0.467-0.163 0.105-0.074 0.181-0.178 0.211-0.296 0.030-0.074 0.030-0.222 0.030-0.43v-0.178h0.030z"></path>
<path fill="#00489a" d="M20.796 7.742h-6.178c0-0.993-0.121-1.659-0.362-2.015-0.362-0.504-1.386-0.756-3.044-0.756-1.612 0-2.682 0.148-3.209 0.43-0.527 0.296-0.784 0.933-0.784 1.896 0 0.889 0.226 1.467 0.693 1.748 0.331 0.193 0.768 0.311 1.311 0.356l1.251 0.089c2.667 0.178 4.339 0.296 5.002 0.37 2.109 0.207 3.646 0.756 4.596 1.659 0.753 0.696 1.19 1.615 1.341 2.741 0.075 0.667 0.121 1.437 0.121 2.281 0 1.955-0.196 3.393-0.573 4.296-0.693 1.659-2.23 2.711-4.641 3.156-1.010 0.178-2.546 0.281-4.626 0.281-3.466 0-5.876-0.207-7.232-0.607-1.673-0.504-2.772-1.511-3.315-3.037-0.301-0.845-0.452-2.252-0.452-4.237h6.178c0 0.222 0 0.385 0 0.504 0 1.052 0.316 1.733 0.919 2.030 0.422 0.207 0.949 0.311 1.552 0.326h2.275c1.16 0 1.899-0.059 2.215-0.178 0.572-0.222 0.934-0.578 1.115-1.067 0.090-0.296 0.136-0.696 0.136-1.17 0-1.067-0.392-1.719-1.19-1.956-0.301-0.089-1.672-0.222-4.144-0.385-1.974-0.133-3.345-0.267-4.113-0.4-2.019-0.37-3.375-1.141-4.053-2.296-0.588-0.993-0.889-2.489-0.889-4.489 0-1.526 0.166-2.741 0.482-3.659s0.844-1.615 1.552-2.089c1.040-0.726 2.381-1.17 3.993-1.289 1.356-0.119 2.848-0.178 4.505-0.178 2.592 0 4.445 0.148 5.545 0.444 2.697 0.711 4.038 2.696 4.038 5.97 0.045 0.296 0.030 0.696-0.015 1.23z"></path>
<path fill="#00489a" d="M47.992 24.292v-24.281h12.385c1.703 0 2.999 0.133 3.887 0.415 2.034 0.622 3.405 1.911 4.098 3.852 0.362 1.022 0.542 2.548 0.542 4.607 0 2.459-0.196 4.237-0.603 5.319-0.799 2.133-2.426 3.363-4.897 3.674-0.286 0.044-1.522 0.089-3.707 0.119l-1.1 0.030h-3.963v6.267h-6.645zM54.637 12.381h4.144c1.311-0.044 2.109-0.148 2.396-0.296 0.392-0.207 0.663-0.637 0.784-1.274 0.075-0.43 0.12-1.052 0.12-1.896 0-1.022-0.075-1.793-0.256-2.281-0.241-0.696-0.814-1.126-1.718-1.274-0.181-0.030-0.603-0.030-1.296-0.030h-4.204v7.052h0.030z"></path>
<path fill="#00489a" d="M83.099 20.089h-8.89l-1.19 4.193h-6.886l7.428-24.281h10.020l7.519 24.281h-6.735l-1.266-4.193zM81.773 15.363l-3.119-10.518-3.029 10.518h6.147z"></path>
<path fill="#fdc300" d="M38.815 3.417c2.742 0 5.183 1.244 6.795 3.185l1.431-3.022c-2.245-2.074-5.289-3.363-8.649-3.363-5.243 0-9.719 3.111-11.557 7.511h-2.787l-1.657 3.481h3.601c-0.030 0.326-0.045 0.652-0.045 0.978 0 0.4 0.030 0.785 0.060 1.185h-1.808l-1.657 3.482h4.37c1.883 4.296 6.313 7.304 11.466 7.304 2.592 0 5.002-0.77 7.006-2.074v-4.267c-1.612 1.807-3.963 2.933-6.584 2.933-3.059 0-5.756-1.555-7.338-3.911h9.161l1.642-3.481h-12.129c-0.060-0.415-0.105-0.844-0.105-1.274 0-0.296 0.015-0.593 0.045-0.874h13.229l1.657-3.481h-13.726c1.522-2.578 4.339-4.311 7.579-4.311z"></path>
<path fill="#00489a" d="M38.816 3.527c2.607 0 5.063 1.141 6.72 3.156l0.106 0.133 0.075-0.148 1.431-3.022 0.030-0.074-0.060-0.059c-2.351-2.193-5.454-3.393-8.724-3.393-2.562 0-5.017 0.741-7.112 2.133-2.049 1.348-3.616 3.244-4.535 5.452l0.105-0.059h-2.878l-0.030 0.059-1.657 3.481-0.075 0.148h3.767l-0.105-0.119c-0.030 0.356-0.045 0.681-0.045 0.978 0 0.385 0.015 0.785 0.060 1.2l0.105-0.119h-1.868l-0.030 0.059-1.657 3.481-0.075 0.148h4.535l-0.105-0.059c1.974 4.474 6.509 7.363 11.572 7.363 2.531 0 4.972-0.726 7.067-2.089l0.045-0.030v-4.607l-0.181 0.207c-1.642 1.837-4.008 2.904-6.494 2.904-2.923 0-5.635-1.437-7.247-3.852l-0.090 0.163h9.221l0.030-0.059 1.642-3.481 0.075-0.148h-12.28l0.105 0.089c-0.060-0.415-0.090-0.844-0.090-1.274 0-0.281 0.015-0.578 0.045-0.859l-0.105 0.089h13.305l0.030-0.059 1.642-3.481 0.075-0.148h-13.922l0.090 0.163c1.552-2.637 4.415-4.267 7.489-4.267zM31.237 7.838h13.741l-0.090-0.148-1.657 3.481 0.090-0.059h-13.32l-0.015 0.089c-0.030 0.296-0.045 0.593-0.045 0.889 0 0.43 0.030 0.859 0.105 1.304l0.015 0.089h12.235l-0.090-0.148-1.642 3.481 0.090-0.059h-9.357l0.105 0.163c1.642 2.474 4.43 3.955 7.413 3.955 2.546 0 4.972-1.081 6.66-2.963l-0.181-0.074v4.267l0.045-0.089c-2.049 1.348-4.46 2.059-6.946 2.059-4.972 0-9.432-2.844-11.376-7.244l-0.030-0.059h-4.43l0.105 0.148 1.642-3.482-0.090 0.059h1.929l-0.015-0.118c-0.045-0.385-0.060-0.785-0.060-1.17 0-0.296 0.015-0.607 0.045-0.963l0.015-0.119h-3.737l0.090 0.148 1.657-3.481-0.090 0.059h2.863l0.030-0.059c0.904-2.178 2.456-4.030 4.46-5.363 2.064-1.363 4.475-2.089 6.991-2.089 3.209 0 6.268 1.185 8.588 3.333l-0.030-0.119-1.431 3.022 0.181-0.030c-1.688-2.044-4.204-3.23-6.886-3.23-3.149 0-6.087 1.674-7.669 4.37l-0.090 0.148h0.181z"></path>
</svg>
