<!-- Generated by IcoMoon.io -->
<svg version="1.1" xmlns="http://www.w3.org/2000/svg" width="104" height="32" viewBox="0 0 104 32">
<title>1</title>
<path fill="#0d7fc3" d="M11.91 18.069c-0.146 0.445-0.382 0.77-0.707 0.976-0.292 0.193-0.711 0.323-1.256 0.389-0.571 0.080-1.468 0.119-2.691 0.119-0.903 0-1.645-0.037-2.222-0.11-0.545-0.073-0.954-0.183-1.226-0.329-0.193-0.113-0.352-0.246-0.478-0.398-0.133-0.16-0.24-0.352-0.319-0.578-0.173-0.472-0.259-1.209-0.259-2.212 0-0.844 0.080-1.492 0.239-1.943 0.153-0.432 0.386-0.758 0.698-0.977 0.279-0.186 0.708-0.315 1.286-0.389 0.651-0.080 1.608-0.119 2.87-0.119 0.804 0 1.501 0.040 2.093 0.119 0.538 0.080 0.927 0.189 1.166 0.329 0.192 0.113 0.352 0.243 0.478 0.389 0.14 0.166 0.246 0.355 0.319 0.568 0.173 0.472 0.259 1.196 0.259 2.172 0 0.864-0.083 1.528-0.249 1.993zM14.153 13.027c-0.146-0.398-0.355-0.753-0.628-1.066-0.273-0.319-0.598-0.588-0.977-0.807-0.498-0.292-1.123-0.492-1.873-0.598-0.751-0.099-1.82-0.149-3.209-0.149-0.811 0-1.512 0.023-2.103 0.069-0.611 0.053-1.076 0.129-1.395 0.23-0.366 0.113-0.691 0.276-0.977 0.488-0.066 0.053-0.133 0.113-0.199 0.179v-0.498c0-0.093-0.033-0.173-0.1-0.239s-0.143-0.1-0.229-0.1h-1.624c-0.093 0-0.176 0.033-0.249 0.1-0.059 0.060-0.089 0.139-0.089 0.239v14.031c0 0.099 0.030 0.179 0.089 0.239 0.074 0.066 0.156 0.099 0.249 0.099h1.624c0.086 0 0.163-0.033 0.229-0.099s0.1-0.147 0.1-0.239v-4.175c0.345 0.292 0.751 0.505 1.216 0.638 0.326 0.1 0.774 0.173 1.346 0.219 0.545 0.047 1.189 0.070 1.933 0.070 1.030 0 1.907-0.030 2.631-0.090 0.751-0.059 1.332-0.152 1.744-0.279 0.445-0.133 0.847-0.336 1.206-0.608 0.365-0.279 0.674-0.617 0.927-1.016 0.259-0.392 0.451-0.903 0.578-1.534 0.126-0.592 0.189-1.289 0.189-2.093 0-1.283-0.137-2.285-0.409-3.010z"></path>
<path fill="#0d7fc3" d="M27.148 18.883c-0.1 0.159-0.26 0.282-0.478 0.369-0.239 0.107-0.634 0.186-1.186 0.239-0.531 0.047-1.242 0.070-2.132 0.070-1.575 0-2.694-0.039-3.358-0.119-0.233-0.020-0.409-0.050-0.528-0.090l-0.14-0.039c-0.193-0.093-0.336-0.223-0.429-0.389-0.093-0.18-0.139-0.409-0.139-0.688 0-0.292 0.040-0.535 0.119-0.728 0.087-0.172 0.203-0.302 0.35-0.388 0.106-0.053 0.225-0.093 0.358-0.119 0.173-0.040 0.389-0.073 0.648-0.1 0.511-0.047 1.441-0.069 2.79-0.069 0.957 0 1.711 0.029 2.262 0.089 0.585 0.053 1.020 0.133 1.306 0.239 0.239 0.093 0.418 0.223 0.538 0.389 0.113 0.159 0.17 0.375 0.17 0.647s-0.050 0.502-0.149 0.688zM29.669 14.159c-0.020-0.399-0.063-0.755-0.13-1.066-0.119-0.553-0.382-1.037-0.787-1.455-0.478-0.492-1.142-0.827-1.993-1.007-0.399-0.079-0.92-0.139-1.564-0.179-0.685-0.047-1.445-0.070-2.282-0.070-1.143 0-2.099 0.050-2.87 0.149-0.783 0.106-1.401 0.265-1.853 0.478-0.472 0.233-0.824 0.562-1.056 0.987-0.233 0.418-0.349 0.926-0.349 1.524l0.020 0.489c0.014 0.080 0.050 0.149 0.11 0.209 0.066 0.060 0.143 0.090 0.229 0.090h1.694c0.099 0 0.18-0.030 0.239-0.090 0.067-0.066 0.1-0.149 0.1-0.249v-0.14c0-0.299 0.050-0.535 0.149-0.707 0.086-0.153 0.226-0.269 0.418-0.349 0.093-0.040 0.239-0.079 0.439-0.119l0.707-0.1c0.558-0.046 1.272-0.069 2.142-0.069 0.671 0 1.243 0.017 1.714 0.050 0.458 0.033 0.834 0.076 1.126 0.129 0.285 0.067 0.512 0.149 0.678 0.249 0.192 0.107 0.342 0.23 0.448 0.369 0.133 0.159 0.233 0.379 0.299 0.658 0.073 0.306 0.11 0.674 0.11 1.106v0.418c-0.086-0.073-0.176-0.139-0.269-0.199-0.293-0.173-0.618-0.296-0.977-0.369-0.332-0.053-0.857-0.1-1.575-0.14-0.704-0.033-1.584-0.050-2.64-0.050-0.804 0-1.468 0.017-1.993 0.050-0.538 0.033-1 0.086-1.385 0.159-0.233 0.040-0.442 0.1-0.628 0.179v0.010c-0.293 0.12-0.538 0.266-0.738 0.438-0.206 0.186-0.375 0.409-0.508 0.668-0.239 0.485-0.359 1.15-0.359 1.993 0 0.685 0.080 1.233 0.239 1.645 0.159 0.418 0.448 0.774 0.867 1.066 0.199 0.159 0.455 0.292 0.767 0.399 0.285 0.1 0.614 0.173 0.987 0.219h0.009c0.339 0.039 0.837 0.073 1.495 0.099 0.837 0.020 1.605 0.030 2.302 0.030 0.757 0 1.431-0.020 2.023-0.059 0.592-0.053 1.023-0.116 1.296-0.189 0.412-0.12 0.78-0.323 1.106-0.608l-0.020 0.378c0 0.086 0.033 0.17 0.099 0.249 0.073 0.066 0.156 0.1 0.249 0.1h1.624c0.086 0 0.162-0.034 0.23-0.1 0.073-0.067 0.109-0.146 0.109-0.239v-5.441c0-0.618-0.017-1.149-0.050-1.594z"></path>
<path fill="#0d7fc3" d="M33.146 10.708l4.804 8.64 4.434-8.63c0.067-0.119 0.167-0.179 0.3-0.179h1.913c0.126 0 0.223 0.053 0.289 0.16 0.066 0.119 0.070 0.229 0.010 0.328l-5.023 9.597v0.010c-0.618 1.163-1.096 1.987-1.435 2.472-0.366 0.511-0.774 0.926-1.226 1.245-0.425 0.292-0.891 0.495-1.395 0.608-0.472 0.1-1.15 0.153-2.033 0.16-0.366 0-0.681-0.007-0.947-0.020-0.086-0.007-0.159-0.040-0.219-0.099-0.066-0.067-0.1-0.146-0.1-0.239v-1.495c0-0.099 0.037-0.183 0.11-0.249 0.074-0.060 0.163-0.086 0.27-0.080 0.273 0.026 0.511 0.039 0.717 0.039 0.518 0 0.957-0.032 1.316-0.099 0.352-0.060 0.621-0.143 0.807-0.249v-0.010c0.173-0.093 0.369-0.273 0.587-0.538 0.126-0.159 0.26-0.349 0.399-0.568-0.106-0.014-0.196-0.070-0.269-0.17l-5.8-10.294c-0.066-0.113-0.066-0.23 0-0.348 0.066-0.107 0.163-0.16 0.289-0.16h1.913c0.126 0 0.222 0.056 0.288 0.169z"></path>
<path fill="#f37520" d="M39.3 28h0.372c4.485 0 8.291-0.412 11.42-1.235 0.226-0.067 0.449-0.129 0.668-0.189 4.278-1.256 6.647-3.266 7.106-6.029 0.153-0.897-0.193-1.857-1.036-2.879-0.4-0.485-0.973-1.042-1.713-1.666h0.001c-0.358-0.279-0.752-0.575-1.185-0.889-1.621-1.176-2.647-1.963-3.079-2.362-0.903-0.837-1.306-1.558-1.206-2.162 0.379-2.279 3.039-4 7.982-5.162 0.532-0.126 1.090-0.246 1.674-0.359 0.088-0.017 0.175-0.030 0.262-0.047 0.448-0.083 0.894-0.162 1.34-0.235 0.348-0.056 0.695-0.105 1.041-0.154 0.166-0.024 0.331-0.048 0.497-0.070 0.437-0.058 0.873-0.11 1.309-0.157 0.053-0.006 0.107-0.012 0.16-0.017 0.481-0.051 0.961-0.096 1.44-0.134v-0.004c0.001-0.001-0.001 0.004 0 0.004 0.069 0 0.128-0.060 0.128-0.129s-0.056-0.125-0.124-0.125c-0.002 0 0.001-0.001 0 0-0.119-0.001-0.239 0-0.363 0h-0.007c-0.004 0-0.006 0.001-0.010 0.001-0.070 0-0.135 0.002-0.205 0.002-0.488 0.001-0.97 0.006-1.442 0.017-0.271 0.007-0.533 0.020-0.799 0.029-0.261 0.009-0.527 0.016-0.783 0.029-3.109 0.154-5.837 0.54-8.184 1.158-0.226 0.067-0.448 0.129-0.668 0.189-4.278 1.256-6.646 3.265-7.105 6.029-0.153 0.897 0.193 1.857 1.036 2.88 0.4 0.485 0.973 1.041 1.713 1.666h-0.001c0.358 0.279 0.752 0.575 1.185 0.889 1.621 1.175 2.647 1.963 3.079 2.361 0.904 0.837 1.306 1.558 1.206 2.163-0.379 2.279-3.039 3.999-7.982 5.162-0.532 0.126-1.090 0.246-1.674 0.359-0.088 0.017-0.175 0.030-0.262 0.046-0.448 0.083-0.894 0.163-1.34 0.235-0.349 0.056-0.695 0.105-1.042 0.154-0.165 0.024-0.331 0.048-0.497 0.070-0.437 0.058-0.873 0.11-1.309 0.157-0.053 0.006-0.107 0.012-0.161 0.017-0.48 0.050-1.439 0.134-1.443 0.134-0.069 0-0.124 0.060-0.124 0.129s0.056 0.124 0.124 0.124z"></path>
<path fill="#f37520" d="M63.203 14.662c0.046-0.326 0.123-0.615 0.228-0.867 0.12-0.299 0.286-0.531 0.499-0.698l0.010-0.010c0.272-0.213 0.654-0.359 1.145-0.439 0.545-0.1 1.333-0.149 2.362-0.149 1.196 0 2.096 0.050 2.701 0.149 0.584 0.1 1.023 0.266 1.316 0.499 0.213 0.166 0.376 0.392 0.488 0.677 0.093 0.246 0.153 0.525 0.179 0.837h-8.928zM74.514 16.635c0.073-0.066 0.109-0.146 0.109-0.239-0.020-1.242-0.102-2.176-0.249-2.8-0.153-0.631-0.448-1.199-0.887-1.704-0.525-0.598-1.216-0.997-2.073-1.196-0.399-0.1-0.93-0.173-1.594-0.22-0.658-0.047-1.432-0.070-2.322-0.070-0.963 0-1.771 0.034-2.422 0.1-0.677 0.060-1.232 0.159-1.664 0.299-0.451 0.146-0.837 0.356-1.156 0.628-0.332 0.266-0.615 0.601-0.847 1.007-0.239 0.412-0.419 0.927-0.538 1.545-0.113 0.584-0.17 1.275-0.17 2.072 0 1.123 0.133 2.073 0.399 2.851 0.293 0.797 0.728 1.401 1.306 1.814 0.505 0.352 1.229 0.598 2.173 0.738 0.943 0.132 2.272 0.199 3.986 0.199 1.057 0 1.96-0.059 2.711-0.179 0.784-0.14 1.401-0.339 1.853-0.598 0.478-0.285 0.837-0.671 1.076-1.156 0.246-0.472 0.376-1.043 0.389-1.714 0-0.099-0.034-0.18-0.1-0.239-0.067-0.067-0.143-0.1-0.229-0.1h-1.714c-0.093 0-0.169 0.026-0.229 0.080-0.060 0.067-0.096 0.14-0.11 0.219-0.027 0.246-0.066 0.445-0.119 0.598-0.046 0.152-0.103 0.265-0.17 0.339 0 0.007-0.003 0.010-0.010 0.010-0.113 0.113-0.246 0.206-0.399 0.279-0.179 0.093-0.388 0.163-0.628 0.209-0.518 0.1-1.352 0.149-2.501 0.149-0.711 0-1.372-0.010-1.983-0.030-0.525-0.033-0.963-0.080-1.316-0.14h0.010c-0.293-0.047-0.562-0.122-0.807-0.229-0.233-0.113-0.402-0.23-0.508-0.349-0.2-0.199-0.352-0.492-0.458-0.877-0.093-0.325-0.156-0.724-0.189-1.196h11.141c0.1 0 0.179-0.034 0.24-0.1z"></path>
<path fill="#f37520" d="M87.238 11.264c-0.379-0.326-0.854-0.555-1.425-0.688-0.532-0.113-1.313-0.17-2.342-0.17-0.358 0-0.684 0.004-0.976 0.011-0.552 0.013-1.003 0.040-1.356 0.080-0.551 0.059-1.003 0.182-1.356 0.369-0.299 0.152-0.557 0.336-0.777 0.548v-0.538c0-0.093-0.033-0.173-0.099-0.239-0.073-0.067-0.156-0.1-0.249-0.1h-1.624c-0.086 0-0.162 0.033-0.229 0.1s-0.1 0.146-0.1 0.239v10.314c0 0.093 0.034 0.173 0.1 0.239s0.143 0.099 0.229 0.099h1.624c0.093 0 0.176-0.033 0.249-0.099 0.066-0.067 0.099-0.146 0.099-0.239v-4.763c0-0.652 0.037-1.223 0.11-1.714 0.073-0.472 0.179-0.847 0.319-1.126 0.086-0.173 0.183-0.306 0.289-0.399 0.113-0.1 0.266-0.193 0.458-0.279 0.213-0.086 0.462-0.159 0.747-0.219 0.446-0.092 0.967-0.152 1.565-0.179 0.246-0.007 0.508-0.010 0.787-0.010 0.611 0 1.133 0.046 1.564 0.14 0.372 0.080 0.638 0.196 0.797 0.349 0.146 0.139 0.249 0.325 0.309 0.557v0.010c0.073 0.292 0.109 0.697 0.109 1.216v0.737c0 0.086 0.033 0.166 0.1 0.239 0.066 0.067 0.146 0.1 0.239 0.1h1.664c0.094 0 0.173-0.033 0.24-0.1 0.073-0.073 0.11-0.152 0.11-0.239v-1.067c-0.013-0.737-0.11-1.355-0.289-1.853-0.192-0.538-0.488-0.98-0.887-1.325z"></path>
<path fill="#f37520" d="M100.493 18.883c-0.093 0.159-0.249 0.282-0.468 0.369-0.246 0.107-0.638 0.186-1.176 0.239-0.538 0.047-1.249 0.070-2.133 0.070-1.581 0-2.704-0.040-3.368-0.119-0.219-0.020-0.395-0.050-0.529-0.090l-0.149-0.039c-0.192-0.1-0.332-0.23-0.418-0.389-0.099-0.193-0.149-0.422-0.149-0.688 0-0.279 0.043-0.521 0.129-0.728 0.086-0.172 0.206-0.302 0.36-0.388 0.079-0.047 0.199-0.086 0.358-0.119 0.166-0.047 0.379-0.080 0.638-0.1 0.524-0.047 1.455-0.069 2.79-0.069 0.963 0 1.717 0.029 2.262 0.089 0.592 0.053 1.027 0.133 1.306 0.239 0.246 0.093 0.428 0.223 0.548 0.389 0.113 0.159 0.17 0.375 0.17 0.647 0 0.279-0.057 0.508-0.17 0.688zM103.024 14.159c-0.019-0.399-0.060-0.755-0.119-1.066-0.126-0.559-0.395-1.044-0.807-1.455h0.010c-0.486-0.492-1.147-0.827-1.984-1.007-0.405-0.086-0.93-0.146-1.574-0.179-0.677-0.046-1.438-0.070-2.282-0.070-1.143 0-2.096 0.050-2.86 0.149-0.783 0.106-1.401 0.265-1.853 0.478-0.472 0.233-0.827 0.562-1.066 0.987-0.233 0.418-0.349 0.926-0.349 1.524l0.030 0.489c0.006 0.086 0.043 0.156 0.11 0.209 0.060 0.060 0.133 0.090 0.219 0.090h1.704c0.093 0 0.173-0.030 0.239-0.090 0.060-0.066 0.090-0.149 0.090-0.249v-0.14c0-0.299 0.050-0.535 0.15-0.707 0.093-0.16 0.233-0.276 0.418-0.349 0.080-0.033 0.226-0.073 0.439-0.119l0.707-0.1c0.558-0.046 1.276-0.069 2.153-0.069 0.664 0 1.235 0.017 1.714 0.050 0.459 0.033 0.827 0.076 1.106 0.129h0.010c0.279 0.067 0.505 0.149 0.677 0.249 0.193 0.107 0.342 0.23 0.449 0.369 0.126 0.152 0.229 0.372 0.309 0.658 0.073 0.306 0.109 0.674 0.109 1.106v0.418c-0.093-0.073-0.185-0.139-0.279-0.199-0.292-0.173-0.618-0.296-0.976-0.369-0.346-0.053-0.87-0.1-1.575-0.14-0.698-0.033-1.581-0.050-2.65-0.050-0.797 0-1.458 0.017-1.983 0.050-0.538 0.033-1 0.086-1.385 0.159-0.226 0.040-0.431 0.1-0.618 0.179v0.010c-0.291 0.113-0.538 0.258-0.737 0.438-0.206 0.186-0.378 0.409-0.518 0.668-0.233 0.485-0.349 1.15-0.349 1.993 0 0.685 0.076 1.233 0.229 1.645 0.159 0.419 0.451 0.777 0.877 1.076 0.198 0.153 0.451 0.282 0.757 0.389 0.279 0.1 0.608 0.173 0.986 0.219 0.352 0.040 0.854 0.073 1.505 0.1 0.844 0.020 1.615 0.030 2.312 0.030 0.758 0 1.428-0.020 2.013-0.059 0.598-0.053 1.030-0.116 1.295-0.189 0.405-0.12 0.774-0.323 1.106-0.608l-0.010 0.378c0 0.099 0.030 0.183 0.090 0.249 0.080 0.066 0.159 0.099 0.238 0.099h1.635c0.093 0 0.173-0.033 0.239-0.099s0.1-0.146 0.1-0.239v-5.441c0-0.618-0.017-1.149-0.050-1.594z"></path>
</svg>
