<svg width="32" height="32" viewBox="0 0 32 32" fill="none" xmlns="http://www.w3.org/2000/svg">
<g id="logos:whatsapp" clip-path="url(#clip0_1_33349)">
<path id="Vector" d="M8.46038 27.4088L8.98333 27.6674C11.1626 28.9601 13.6031 29.5634 16.0438 29.5634C23.7144 29.5634 29.9902 23.3581 29.9902 15.7739C29.9902 12.1542 28.5084 8.62061 25.8935 6.03503C23.2785 3.44946 19.7918 1.98438 16.0438 1.98438C8.37328 1.98438 2.09727 8.18966 2.18449 15.8601C2.18449 18.4456 2.96898 20.9451 4.27641 23.0996L4.62505 23.6167L3.23051 28.7017L8.46038 27.4088Z" fill="#00E676"/>
<path id="Vector_2" d="M27.3738 4.65396C24.4102 1.63756 20.3134 0 16.1295 0C7.23872 0 0.0911269 7.1533 0.178223 15.8579C0.178223 18.6158 0.962708 21.2877 2.27027 23.7008L0.00390625 31.8883L8.45893 29.7337C10.8124 31.0265 13.4273 31.6298 16.0424 31.6298C24.846 31.6298 31.9936 24.4764 31.9936 15.7719C31.9936 11.5488 30.3374 7.58425 27.3739 4.65396H27.3738ZM16.1295 28.9581C13.776 28.9581 11.4226 28.355 9.41774 27.1484L8.89479 26.8898L3.83924 28.1825L5.14667 23.2701L4.79804 22.7529C0.962708 16.6338 2.79322 8.53226 9.0691 4.74008C15.345 0.948016 23.4514 2.75793 27.2867 8.96321C31.1219 15.1685 29.2914 23.1837 23.0157 26.9759C21.0107 28.2686 18.5702 28.958 16.1295 28.958V28.9581ZM23.8 19.3918L22.8412 18.9608C22.8412 18.9608 21.4467 18.3575 20.575 17.9265C20.4878 17.9265 20.4007 17.8403 20.3134 17.8403C20.0519 17.8403 19.8776 17.9265 19.7033 18.0128C19.7033 18.0128 19.6162 18.0989 18.3958 19.4779C18.3086 19.6502 18.1343 19.7365 17.96 19.7365H17.8728C17.7857 19.7365 17.6113 19.6502 17.5241 19.5641L17.0883 19.3918C16.1295 18.9608 15.2579 18.4436 14.5605 17.7542C14.3862 17.5818 14.1246 17.4095 13.9503 17.2371C13.3402 16.6338 12.73 15.9443 12.2943 15.1686L12.207 14.9963C12.1199 14.91 12.1199 14.8239 12.0327 14.6516C12.0327 14.4792 12.0327 14.3068 12.1199 14.2206C12.1199 14.2206 12.4686 13.7897 12.73 13.5312C12.9044 13.3587 12.9915 13.1002 13.1658 12.9279C13.3402 12.6693 13.4274 12.3246 13.3402 12.066C13.2531 11.635 12.207 9.30805 11.9456 8.79098C11.7712 8.53239 11.597 8.44627 11.3355 8.36003H10.3767C10.2022 8.36003 10.028 8.44627 9.85359 8.44627L9.76637 8.53239C9.59205 8.61863 9.41774 8.79098 9.24342 8.8771C9.0691 9.04958 8.98188 9.22181 8.80757 9.39429C8.1974 10.1699 7.84876 11.118 7.84876 12.066C7.84876 12.7554 8.02308 13.4449 8.28462 14.0482L8.37184 14.3068C9.15632 15.9443 10.2022 17.4095 11.597 18.7022L11.9456 19.0469C12.207 19.3055 12.4686 19.4779 12.6429 19.7363C14.4734 21.2878 16.5653 22.4082 18.9188 23.0115C19.1803 23.0976 19.529 23.0976 19.7905 23.1838H20.6621C21.0979 23.1838 21.6209 23.0115 21.9696 22.8391C22.231 22.6667 22.4054 22.6667 22.5797 22.4944L22.7541 22.3219C22.9284 22.1496 23.1028 22.0634 23.2771 21.8911C23.4514 21.7187 23.6257 21.5464 23.7129 21.3739C23.8872 21.0292 23.9743 20.5982 24.0616 20.1674V19.5641C24.0616 19.5641 23.9743 19.4779 23.8 19.3918Z" fill="white"/>
</g>
<defs>
<clipPath id="clip0_1_33349">
<rect width="32" height="32" fill="white"/>
</clipPath>
</defs>
</svg>
